<svg xmlns="http://www.w3.org/2000/svg" viewBox="0 0 14.53 20"><path d="M1.37 0A1.37 1.37 0 000 1.37v2.57a1.37 1.37 0 102.74 0v-.89h9v.89a1.37 1.37 0 102.74 0V1.37a1.37 1.37 0 10-2.74 0v.68h-9v-.68A1.37 1.37 0 001.37 0zm1.37 17.84v.79a1.37 1.37 0 01-2.74 0v-2.57a1.37 1.37 0 112.74 0v.78h9v-.78a1.37 1.37 0 112.74 0v2.57a1.37 1.37 0 01-2.74 0v-.79zm4-2.15a.5.5 0 00.5.5.5.5 0 00.5-.5V4.11a.5.5 0 10-1 0zm6.79 2.94v-2.57a.37.37 0 00-.37-.38.38.38 0 00-.37.38v2.57a.38.38 0 00.37.37.37.37 0 00.37-.37zM1.74 16.06v2.57a.37.37 0 01-.74 0v-2.57a.38.38 0 01.37-.38.38.38 0 01.37.38z" class="fill" fill-rule="evenodd"/><path d="M11.79 16.06a1.37 1.37 0 011.37-1.38 1.37 1.37 0 011.37 1.38v2.57A1.37 1.37 0 0113.16 20a1.37 1.37 0 01-1.37-1.37zM0 16.06a1.37 1.37 0 011.37-1.38 1.37 1.37 0 011.37 1.38v2.57A1.37 1.37 0 011.37 20 1.37 1.37 0 010 18.63z" class="fill"/></svg>