<svg xmlns="http://www.w3.org/2000/svg" viewBox="0 0 16.38 9.31"><path d="M5.41 1a1.51 1.51 0 00-1.11.48L2.87 3h10.62l-1.55-1.55A1.51 1.51 0 0010.86 1zM3.57.8A2.5 2.5 0 015.41 0h5.45a2.46 2.46 0 011.79.76L15 3.19a.5.5 0 01-.36.85H1.72a.48.48 0 01-.45-.3.49.49 0 01.09-.54z" class="fill" fill-rule="evenodd"/><path d="M0 2.29a.62.62 0 01.62-.62h1.25a.63.63 0 110 1.25H.62A.63.63 0 010 2.29zM13.88 2.29a.63.63 0 01.63-.62h1.25a.63.63 0 010 1.25h-1.25a.63.63 0 01-.63-.63z" class="fill"/><path d="M.71 3.92a1 1 0 011-1h13a1 1 0 011 1v.87h.19a.29.29 0 01.3.3V9a.29.29 0 01-.3.3h-2.4a.29.29 0 01-.3-.3V7.91h-10V9a.29.29 0 01-.3.3H.56a.29.29 0 01-.3-.3V5.09a.29.29 0 01.3-.3h.15zM2.5 5.41a.62.62 0 01.62-.62h1.25a.63.63 0 010 1.21H3.12a.63.63 0 01-.62-.59zm8.89 0a.62.62 0 01.61-.62h1.25a.63.63 0 010 1.25H12a.63.63 0 01-.61-.63z" class="fill" fill-rule="evenodd"/></svg>