<svg xmlns="http://www.w3.org/2000/svg" viewBox="0 0 24 24"><path d="M12 24A12 12 0 100 12a12 12 0 0012 12z" fill="#f2f2f2"/><path d="M2.78 19.68H17a1.22 1.22 0 00.46-.09 1.2 1.2 0 00.65-.65 1.22 1.22 0 00.09-.46v-13A1.2 1.2 0 0017 4.32H2.78a12 12 0 000 15.36z" fill="#bababa" fill-rule="evenodd"/><path d="M.41 8.88h17.83V5.76H1.75A11.86 11.86 0 00.41 8.88z" fill="#333" fill-rule="evenodd"/><path d="M.12 13.68H11v-3.36H.12a11.82 11.82 0 000 3.36zm16.44-3.36H13.2a.72.72 0 00-.72.72V13a.72.72 0 00.72.72h3.36a.72.72 0 00.72-.72v-2a.72.72 0 00-.72-.72z" fill="#ddd" fill-rule="evenodd"/><path d="M17 10.5l-4.3 3a.69.69 0 00.47.18h3.36a.72.72 0 00.72-.72V11a.63.63 0 00-.07-.3.61.61 0 00-.18-.2zM7.56 17.28h9.12a.6.6 0 010 1.2H7.56a.6.6 0 010-1.2z" fill="#fff" fill-rule="evenodd"/></svg>