<svg xmlns="http://www.w3.org/2000/svg" viewBox="0 0 593.37 347.74"><path d="M66.13 322.76c-4.64-.69-11.7-2-18.6-3.67-3.52-.89-7.19-1.93-10.54-3.15a41.71 41.71 0 01-9.85-4.86c-1.19-.84-2.33-1.59-3.62-2.48-.74-.47-1.54-1-2.45-1.61a74.1 74.1 0 01-7.35-5.56c-5.16-4.56-10.31-11.11-11.41-20.73-.14-1.17-.32-2.51-.49-4-.6-4.86-1.37-11-1.66-16.35a60.6 60.6 0 01.17-10.86 23.58 23.58 0 011.54-6.08 15.75 15.75 0 016.25-7.59 11.52 11.52 0 001.88-1.6V222a176.57 176.57 0 013.4-27 73.36 73.36 0 014.42-14.19c1.73-3.85 4.93-9.67 10.91-12.75a44.86 44.86 0 005.68-4.24c1-.8 2.38-2 4-3.33 2.26-1.88 4.84-4.06 6.94-5.77 7.62-6.23 17.34-13.6 28.3-18.93l63.72-86.71.2-.22c4.14-5.14 15.28-16.82 28.45-24.21 1.56-.87 3.1-1.76 4.64-2.68a121.15 121.15 0 0114.36-7.49c7.49-3.13 16.84-5.71 32.39-8.68C243.08.89 285.27.49 369.05.84a74.8 74.8 0 0118.31-.49h10.86V2.5c7.89 2.51 16.65 7.67 20.39 18.26 3.57 10 5.61 23.66 6.85 37.75 1.26 14.36 1.81 30.18 2 45.17.12 9.15.42 26.41.84 46.15h65.76L477 128.75l15.6-19.27 42.89 53-42.89 53-15.6-19.36 17.39-21.48H428.9c.13 4.49.23 9 .35 13.42.45 16.71 1 32.74 1.54 45 .3 6.17.57 11.33.87 15.18.15 1.91.29 3.4.42 4.46.05.57.12.9.12 1l.08.2a130.77 130.77 0 014.16 16.67c1.1 6.62 1.64 15-1 23.06-.4 1.19-.67 2.11-.92 3h9.95v24.87h-23.55v-7.57a36.88 36.88 0 01-8.19 1.49c-.1 0-.2 0-.3.05a27.33 27.33 0 00-5.58 1.12l-3 .79c-1.91.47-4 1-6.6 1.39v2.73h-11.73v-1.34c-.42 0-.86.07-1.31.1l-2.23.15a56.7 56.7 0 01-97.08-.13H161.72a56.71 56.71 0 01-95.59 2.48zm425.63-1.26h-23.62v-24.81h23.62zm47.22 0h-23.61v-24.81H539zm35.37 0h-11.71v-24.81h11.71a5.12 5.12 0 00-1.76.38 6.3 6.3 0 00-2 1.24 4.49 4.49 0 00-.91 1.14l23.73 7.07a21.63 21.63 0 01-6 10 18.92 18.92 0 01-13.06 4.98zM385.52 25.07a49.88 49.88 0 00-13.39.4l-1.07.18H370c-76-.33-115.51 0-139.47 3.19v124.22H91.68l-2 2.68-3 1.34c-9 4-17.76 10.37-25.7 16.86-2.48 2-4.31 3.58-6.1 5.09-1.49 1.24-2.95 2.48-4.76 4a68.76 68.76 0 01-9 6.54 14.41 14.41 0 00-.72 1.42 49.35 49.35 0 00-2.8 9.32 146.4 146.4 0 00-2.85 22.58v19.27l-2 3.07a44 44 0 01-7.94 9.06c0 1.19 0 2.72.1 4.68.25 4.47.87 9.35 1.44 14.07.22 1.66.42 3.27.59 4.83s.82 2.91 3.18 5a48.72 48.72 0 004.84 3.6l1.78 1.19c1.54 1 3.3 2.18 4.84 3.3l.27.17c.2.1.47.25.82.4.69.34 1.61.71 2.75 1.14 2.28.82 5.09 1.63 8.14 2.4.64.15 1.29.32 2 .47a97.12 97.12 0 017-32.54c7.41-17.78 22.25-34.13 48.26-36.83 12.88-1.34 24 1.49 32.92 7.69 8.73 6.08 14.53 14.68 18.35 23.49a88 88 0 015.29 16.91 57.29 57.29 0 012.45 16.74c0 1.14 0 2.28-.09 3.4v1H275.5a100.32 100.32 0 012-13.52 55.7 55.7 0 014.88-15.53c.67-1.61 1.42-3.17 2.21-4.73A56.82 56.82 0 01303.35 240c8.68-5.78 19.3-8.95 31.77-8.68 25.58.55 41.55 14.61 50.38 31a90 90 0 019.57 31.68c1-.23 1.91-.43 2.68-.62l1.71-.48a60.47 60.47 0 0110.54-2.1h.48c0-.22.12-.44.19-.72.33-1.11.72-2.45 1.19-4 .85-2.55.95-6.35.1-11.38a108.39 108.39 0 00-3.54-13.89l-.05-.17a29.05 29.05 0 01-.92-4.92c-.2-1.56-.37-3.44-.52-5.53-.32-4.21-.62-9.64-.92-15.92-.57-12.55-1.09-28.75-1.56-45.51-.13-4.67-.25-9.38-.35-14.09H385v-24.84h18.55c-.42-19.59-.72-36.68-.84-45.78-.23-14.71-.75-29.86-1.94-43.36C399.54 47 397.7 36 395.25 29c-.18-.49-1.19-2.4-7.1-3.54a20.23 20.23 0 00-2.16-.35h-.47zm204.7 243.87a3.9 3.9 0 01-.07-.4c-.12-.72-.27-1.78-.45-3.2-.32-2.82-.64-6.62-1-11.06L564 256c.32 4.61.67 8.8 1.06 12.15.18 1.66.4 3.25.65 4.61a23.09 23.09 0 001.24 4.77l.22.67c.15.44.3 1 .5 1.71.37 1.44.79 3.22 1.19 5.21l24.36-4.69a83.42 83.42 0 00-3-11.49zm-3.57-82.15c.08 6.48.13 11.51.13 14.46 0 4.84.1 11 .29 17.61l-24.8.72c-.2-6.79-.3-13.17-.3-18.33 0-2.8-.05-7.71-.12-14.19zm-1-57.69c.24 10 .42 19.82.59 28.85l-24.8.42c-.15-9-.35-18.73-.57-28.73zM205.7 33.76a82.39 82.39 0 00-11.19 3.64 78.06 78.06 0 00-10.19 5.33c-1.74 1-3.75 2.19-6.23 3.58-9.32 5.23-18 14.16-21.15 18l-47 64h95.76zm378.17 37.57c.38 9 .72 18.83 1 28.9l-24.8.74c-.3-10-.62-19.72-1-28.62zm-12.17-59a29.89 29.89 0 018.38 13c1.09 3.7 1.74 10.22 2.23 16.87l-24.73 1.86c-.27-3.45-.52-6.28-.79-8.41s-.45-3-.47-3.17a6.08 6.08 0 00-1.59-2.06zm-32.27 12.82h-14.12V.35h11.54a34.45 34.45 0 0113 .67l-5.49 24.18a15.43 15.43 0 00-2.7-.4 4.91 4.91 0 00-.89 0zm-90.36 0h-25.42V.35h25.42zm50.82 0h-25.42V.35h25.42z" class="fill" fill-rule="evenodd"/></svg>