<svg xmlns="http://www.w3.org/2000/svg" viewBox="0 0 13.75 13.75"><defs><clipPath id="a" transform="translate(-.25 -.25)"><path fill="none" d="M0 0h14v14H0z"/></clipPath></defs><g clip-path="url(#a)"><path d="M6.75 6.75A.76.76 0 017.5 6h5.25a.75.75 0 010 1.5H7.5a.76.76 0 01-.75-.75z" class="fill nostroke" fill-rule="evenodd"/><circle cx="9.25" cy="9.25" r="4.5" class="fill nostroke"/><path d="M6.18 9.25a.5.5 0 01.5-.5h5.14a.5.5 0 010 1H6.68a.5.5 0 01-.5-.5z" fill="#fff" fill-rule="evenodd"/><path d="M9.25 6.18a.5.5 0 01.5.5v5.14a.5.5 0 01-1 0V6.68a.5.5 0 01.5-.5z" fill="#fff" fill-rule="evenodd"/><path d="M6.22.22a.75.75 0 010 1.06L3.34 4.16a.75.75 0 01-1.06 0L.22 2.09a.75.75 0 011.06-1.06l1.53 1.53L5.16.22a.75.75 0 011.06 0zM6.75 2.19a.75.75 0 01.75-.75h5.25a.75.75 0 010 1.5H7.5a.76.76 0 01-.75-.75zM6.22 4.84a.77.77 0 010 1.07L3.34 8.75a.75.75 0 01-1.06 0l-2.06-2a.75.75 0 010-1.06.74.74 0 011.06 0l1.53 1.5 2.35-2.35a.75.75 0 011.06 0zM6.22 9.47a.75.75 0 010 1.06l-2.88 2.88a.75.75 0 01-1.06 0L.22 11.34a.75.75 0 111.06-1.06l1.53 1.53 2.35-2.34a.75.75 0 011.06 0z" class="fill nostroke" fill-rule="evenodd"/></g></svg>