<svg xmlns="http://www.w3.org/2000/svg" viewBox="0 0 22.76 24.09"><path class="fill" d="M7.35 7.53A14.73 14.73 0 016.54 5a6.84 6.84 0 01-.09-3.18A2.23 2.23 0 018.48 0a5.41 5.41 0 013.34 1.65 15.59 15.59 0 012.66 3.05 6.54 6.54 0 01.71.5 15.33 15.33 0 013.83 5 12.09 12.09 0 011.55 4.63 4.86 4.86 0 011.51 1.67c1.72 3.21-.2 4.61-1.86 3.65-1.24-.72-.94-2.23-.7-2.94L8 23.93a2.1 2.1 0 01-2-.36 11.26 11.26 0 01-3-3.1A15.92 15.92 0 01.08 14c-.15-1-.17-2.12.66-2.61l2-1.16h.07zM1.1 12a1 1 0 00-.33.76 7.81 7.81 0 00.8 3.65 16.66 16.66 0 003.8 5.79 3.76 3.76 0 001.84 1.15.73.73 0 00.44-.05l1-.57a5.1 5.1 0 01-1-.57 14.77 14.77 0 01-3.94-5.05A11.65 11.65 0 012 12a4.89 4.89 0 010-.54zm10.81-6.28L8.27 7.83c.19.41.4.8.61 1.2a14.15 14.15 0 004.24 5 4.77 4.77 0 001.32.65s.39.26.19.55-.4.15-.67 0A9.61 9.61 0 0110 12a18.82 18.82 0 01-2.36-3.8l-4.51 2.61a1 1 0 00-.32.76 7.68 7.68 0 00.79 3.65A16.8 16.8 0 007.37 21a3.85 3.85 0 001.82 1.15.64.64 0 00.45-.05l8.79-5.1a3.78 3.78 0 01-.69-.36 10.71 10.71 0 01-2.53-2.54 17 17 0 01-3.16-6.5 5.41 5.41 0 01-.14-1.88zM14 5.25l-.29-.13a1.26 1.26 0 00-.46-.12c-.43 0-.61.55-.64.93a1.69 1.69 0 000 .23 9.7 9.7 0 001.11 4 18.24 18.24 0 001.76 3.06 11.67 11.67 0 014.32 1.11 12.18 12.18 0 00-1.06-3.13 17.39 17.39 0 00-3.11-4.7 7.64 7.64 0 00-1.25-1.1.34.34 0 01-.29-.08.38.38 0 01-.09-.07zm-.63-.93a10.31 10.31 0 00-3.54-3.23 2 2 0 00-2-.15A2.7 2.7 0 007 3.36a11.16 11.16 0 001 3.81l4.63-2.69a.21.21 0 01.12 0 1.11 1.11 0 01.52-.12h.09z"/></svg>