<svg xmlns="http://www.w3.org/2000/svg" viewBox="0 0 24 17.02"><path d="M9.83 1H1.55a.55.55 0 100 1.09h8.28zM1.55 0a1.55 1.55 0 100 3.09h9.28V0z" class="fill" fill-rule="evenodd"/><path d="M24 1.55A1.54 1.54 0 0022.45 0h-9.28v3.09h9.28A1.54 1.54 0 0024 1.55z" class="fill"/><path d="M14.17 1h8.28a.55.55 0 110 1.09h-8.28zm8.28-1a1.55 1.55 0 110 3.09h-9.28V0z" class="fill" fill-rule="evenodd"/><path d="M17 15.47a1.54 1.54 0 00-1.55-1.55h-2.28V17h2.32A1.55 1.55 0 0017 15.47z" class="fill"/><path d="M14.17 14.92h1.32a.55.55 0 110 1.1h-1.32zm1.32-1a1.55 1.55 0 010 3.1h-2.32v-3.1zM9.83 14.92H8.51a.55.55 0 000 1.1h1.32zm-1.32-1a1.55 1.55 0 000 3.1h2.32v-3.1zM9.83 8H4.64a.55.55 0 000 1.1h5.19zM4.64 7a1.55 1.55 0 000 3.1h6.19V7z" class="fill" fill-rule="evenodd"/><path d="M20.91 8.51A1.55 1.55 0 0019.36 7h-6.19v3.1h6.19a1.56 1.56 0 001.55-1.59z" class="fill"/><path d="M14.17 8h5.19a.55.55 0 110 1.1h-5.19zm5.19-1a1.55 1.55 0 110 3.1h-6.19V7z" class="fill" fill-rule="evenodd"/></svg>