<svg xmlns="http://www.w3.org/2000/svg" viewBox="0 0 24 28.25"><path class="fill" d="M16.33 28.23h-4.66c-2.31 0-4.65 0-6.92-.07a8.1 8.1 0 01-2.5-.43A2.42 2.42 0 01.7 26.21c-.18-.55-.41-1.09-.55-1.65a3.48 3.48 0 01.61-3.26A1.43 1.43 0 012 20.88a4.84 4.84 0 012.53 1.83l.4.48H5a35.41 35.41 0 015.14-.54h3.5a37.26 37.26 0 015.46.54 6.91 6.91 0 012.38-2.14 1.54 1.54 0 012 .4l.06.09a4.37 4.37 0 01.1 4 4.05 4.05 0 01-.82 1.63 4.17 4.17 0 01-2.34.89 31 31 0 01-3.74.17h-.34zm-5.84-4.81v2.2a.39.39 0 01-.71.19.5.5 0 010-.13v-2.26a14.91 14.91 0 00-1.65.11h-.16a2.47 2.47 0 00-.78 2.14 4.86 4.86 0 00.75 1.77h8.24a5.25 5.25 0 00.78-1.84 2.54 2.54 0 00-.8-2.09c-.55-.06-1.1-.1-1.66-.12v2.18a.39.39 0 01-.72.17.35.35 0 010-.11.13.13 0 010-.06v-2.2h-1.39v2.19c0 .32-.52.53-.71.19a.29.29 0 010-.13v-2.19zM17 27.48c.84 0 1.68-.05 2.52-.1a5.48 5.48 0 002.48-.56 1.67 1.67 0 00.7-1 11.57 11.57 0 00.6-2 2.57 2.57 0 00-.51-2 .88.88 0 00-1-.05 6.65 6.65 0 00-2.15 2 .48.48 0 01-.23.16 1.49 1.49 0 01-.5-.06l-1.65-.24a3.07 3.07 0 01.43 2.38 6 6 0 01-.69 1.47zM6.85 23.69c-.65.09-1.31.19-2 .3a.49.49 0 01-.29-.06.77.77 0 01-.21-.23 6 6 0 00-2.2-2 1.13 1.13 0 00-.44-.1c-.61 0-.94.95-1 1.58A7.53 7.53 0 001.42 26a1.62 1.62 0 00.25.51c.73.92 2.29.89 3.44.94l1.89.01a3.84 3.84 0 01-.59-2.7 3.74 3.74 0 01.44-1.07zm8.64-16.93a4 4 0 013.81 3.12l1.9 6.76v.25a9.76 9.76 0 01-.57 3.68A2.9 2.9 0 0118 22.5H6a2.64 2.64 0 01-2.05-.85 5.59 5.59 0 01-1.07-3.27c-.05-.53-.07-1.06-.07-1.59a.58.58 0 010-.15l1.9-6.75v-.14a4.16 4.16 0 011.5-2.21 3.85 3.85 0 012.31-.78zm-7 .76a3.3 3.3 0 00-3.09 2.56l-1.84 6.71a8.85 8.85 0 00.58 3.78 2 2 0 001.07 1.05 2.37 2.37 0 00.79.12h12a1.89 1.89 0 001.23-.42 3.73 3.73 0 001-2.21 12.82 12.82 0 00.18-2.32l-1.89-6.72a3.22 3.22 0 00-3.08-2.55zm6 1.21a3.21 3.21 0 012.91 2.76l1.4 5.87a7.16 7.16 0 01.05.76 7.2 7.2 0 01-.85 3.23.45.45 0 01-.48.25.41.41 0 01-.26-.46.88.88 0 01.12-.24 6 6 0 00.77-3.37l-1.4-5.87a2.41 2.41 0 00-2.17-2.17H9.43A2 2 0 008 10.2a3.13 3.13 0 00-.68 1.42l-1.44 5.87a5.13 5.13 0 00.62 3.26s.15.34 0 .52-.46.07-.63-.16a6.11 6.11 0 01-.7-3.66.62.62 0 010-.09l1.4-5.86v-.08a3.19 3.19 0 012.87-2.69zM17 4.54v.15A1.41 1.41 0 0115.68 6H8.35A1.4 1.4 0 017 4.62a.66.66 0 010-.11l.55-2.62A2.32 2.32 0 018.84.21 1.2 1.2 0 019.45 0h5.11a2.34 2.34 0 011.76 1.4 1.19 1.19 0 01.14.52L17 4.51zM9.46.77a.74.74 0 00-.36.17 1.88 1.88 0 00-.78.93v.14l-.57 2.61a.62.62 0 00.59.57h7.33a.61.61 0 00.59-.56L15.71 2a1.4 1.4 0 00-.18-.46 1.89 1.89 0 00-.92-.77h-.06c-1.69-.01-3.39 0-5.09 0z"/></svg>