<svg xmlns="http://www.w3.org/2000/svg" viewBox="0 0 18 13.85"><path d="M6.23 9.69a4.2 4.2 0 01-3.46-1.87v4.64a1.39 1.39 0 001.38 1.39h12.47A1.39 1.39 0 0018 12.46V6.92h-7.89a4.12 4.12 0 01-3.88 2.77zm6.23.35a.33.33 0 01.35-.35h2.77a.33.33 0 01.34.35v1.38a.33.33 0 01-.34.35h-2.77a.33.33 0 01-.35-.35zM18 3.46v.69h-7.89a4.32 4.32 0 00-1.59-2.07h8.1A1.38 1.38 0 0118 3.46zM2.15 4.85A2.47 2.47 0 010 2.42 2.45 2.45 0 012.42 0a2.33 2.33 0 012.29 1.66 4.29 4.29 0 00-2.56 3.19zm4.08-2.08a2.77 2.77 0 11-2.77 2.77 2.78 2.78 0 012.77-2.77z" class="fill"/></svg>