<svg xmlns="http://www.w3.org/2000/svg" viewBox="0 0 24 19.19"><path class="fill" d="M0 1.63A.63.63 0 01.63 1h22.74a.63.63 0 01.63.64v16.91a.64.64 0 01-.63.64H.63a.64.64 0 01-.63-.64zm.63-.2a.2.2 0 00-.19.2v16.92a.2.2 0 00.19.2h22.74a.2.2 0 00.19-.2V1.63a.2.2 0 00-.19-.2z"/><path class="fill" d="M.3 1.2a.84.84 0 01.33-.06h22.74a.84.84 0 01.33.06.56.56 0 01.17.11.46.46 0 01.13.32V7s-.1.07-.22.07H.22C.1 7.11 0 7.08 0 7V1.63a.46.46 0 01.13-.32.56.56 0 01.17-.11zm.25.15a.39.39 0 00-.11.28V7h23.12V1.63a.39.39 0 00-.11-.28.27.27 0 00-.1-.06H.65a.27.27 0 00-.1.06zm.12-.07zm22.66 0z"/><path class="fill" d="M6.84 0H5.25v2.43h1.59zM6.84 9.08H5.25v2h1.59zM6.84 14.08H5.25v2h1.59zM12.78 9.08h-1.59v2h1.59zM12.78 14.08h-1.59v2h1.59zM18.72 9.08h-1.59v2h1.59zM18.72 14.08h-1.59v2h1.59zM10.8 0H9.21v2.43h1.59zM14.76 0h-1.59v2.43h1.59zM18.72 0h-1.59v2.43h1.59z"/></svg>