<svg xmlns="http://www.w3.org/2000/svg" viewBox="0 0 17.98 24"><path d="M5.27 4.47V0a.7.7 0 00-.5.21L.21 4.72a.7.7 0 00-.21.5h4.47a.8.8 0 00.8-.75z" class="fill"/><path d="M15.77 0H6.68v4.47a2.21 2.21 0 01-2.21 2.21H0v15.11A2.21 2.21 0 002.21 24h13.56A2.21 2.21 0 0018 21.79V2.21A2.21 2.21 0 0015.77 0zM5.48 12.26a.69.69 0 011 0l1.81 1.81V9A.71.71 0 019 8.28a.7.7 0 01.7.71v5.08l1.81-1.81a.7.7 0 111 1l-3 3a.69.69 0 01-1 0l-3-3a.69.69 0 01-.03-1zM12 19.48H6a.7.7 0 110-1.4h6a.7.7 0 010 1.4z" class="fill"/></svg>