<svg xmlns="http://www.w3.org/2000/svg" viewBox="0 0 24 27.74"><path d="M20 23.45a.37.37 0 01.21.61.31.31 0 01-.25.11H4.08a.32.32 0 01-.26-.11.38.38 0 01.26-.62H20zM20 3.47a.37.37 0 01.21.61.31.31 0 01-.25.1H4.08a.32.32 0 01-.26-.1.38.38 0 01.26-.62H20zM12.05 5.55c.14 0 .16.06.2.11a.36.36 0 01.11.25v16a.37.37 0 01-.61.25.31.31 0 01-.11-.25v-16a.39.39 0 01.27-.35.37.37 0 01.14-.01z"/><path d="M13.92 23.8a2 2 0 10-1.95 2 1.95 1.95 0 001.95-2z"/><path d="M12 21.49a2.32 2.32 0 11-.43 4.6 2.32 2.32 0 01.4-4.6zm0 .72A1.6 1.6 0 1013.56 24 1.64 1.64 0 0012 22.21zM13.92 4a2 2 0 10-1.95 2 1.95 1.95 0 001.95-2z"/><path d="M12 1.62a2.38 2.38 0 012.25 1.89 2.38 2.38 0 01-2.73 2.7 2.37 2.37 0 01-1.81-1.95A2.38 2.38 0 0112 1.62zm0 .72a1.63 1.63 0 00-1.54 1.28 1.64 1.64 0 00.93 1.79 1.65 1.65 0 002.19-1.23A1.64 1.64 0 0012 2.34zM21.81 0A2.27 2.27 0 0124 2.19v3.53a2.2 2.2 0 01-4.4 0V2.19A2.26 2.26 0 0121.78 0zm0 .72a1.53 1.53 0 00-1.49 1.48v3.52a1.48 1.48 0 003 0V2.2A1.53 1.53 0 0021.83.72zM21.81 19.84A2.26 2.26 0 0124 22v3.53a2.2 2.2 0 01-4.4 0V22a2.27 2.27 0 012.17-2.19zm0 .72A1.53 1.53 0 0020.32 22v3.53a1.48 1.48 0 003 0V22a1.53 1.53 0 00-1.46-1.47zM2.22 0A2.26 2.26 0 014.4 2.21v3.51a2.28 2.28 0 01-1.57 2.1 2.26 2.26 0 01-2.62-1.2A2.1 2.1 0 010 5.73V2.19A2.26 2.26 0 012.16 0zm0 .72A1.52 1.52 0 00.72 2.2v3.52a1.54 1.54 0 001.44 1.47 1.52 1.52 0 001.52-1.48V2.19A1.51 1.51 0 002.24.72zM2.22 19.84a2.27 2.27 0 012.18 2.21v3.51a2.27 2.27 0 01-1.58 2.1 2.25 2.25 0 01-2.61-1.2 2.07 2.07 0 01-.2-.89C0 24.39 0 23.21 0 22a2.25 2.25 0 012.18-2.19zm0 .72A1.52 1.52 0 00.72 22v3.52A1.54 1.54 0 002.16 27a1.53 1.53 0 001.52-1.48V22a1.52 1.52 0 00-1.44-1.47z"/></svg>