<svg xmlns="http://www.w3.org/2000/svg" viewBox="0 0 22.33 24.09"><path class="fill" d="M5.14 0a5.24 5.24 0 014.52 2.75 5.21 5.21 0 010 4.77 5.24 5.24 0 01-5.54 2.68 5.27 5.27 0 01-4-3.77 5.27 5.27 0 011.4-4.94A5.16 5.16 0 015.11 0zm0 .65a4.58 4.58 0 00-4 2.43 4.58 4.58 0 000 4.14A4.58 4.58 0 006 9.56a4.56 4.56 0 003.46-3.29A4.6 4.6 0 008.27 2 4.48 4.48 0 005.14.65zM11.17 4.57a.24.24 0 01.18.09l5.71 5.73c.2.22-.08.74-.42.49L10.9 5.12c-.12-.13-.1-.17-.1-.24a.34.34 0 01.29-.31.2.2 0 01.08 0zM15.44 20.41c.25 0 .26.13.29.26a.34.34 0 01-.18.36h-.05l-5.83 1.6a.28.28 0 01-.16 0 .34.34 0 01-.2-.48.3.3 0 01.19-.15l5.83-1.59zM1 9.64a.32.32 0 01.28.3l.45 6.42c0 .21-.08.26-.16.3a.33.33 0 01-.47-.2.11.11 0 010-.06L.6 10a.34.34 0 01.4-.36z"/><path class="fill" d="M5.12 2.43a2.79 2.79 0 012.64 2.21A2.77 2.77 0 017 7.1a2.75 2.75 0 01-2.92.57 2.81 2.81 0 01-1.64-3 2.77 2.77 0 012.61-2.23zm0 .65a2.13 2.13 0 00-2 1.67A2.12 2.12 0 005.5 7.19a2.13 2.13 0 001.65-1.75 2.13 2.13 0 00-2-2.36zM17.83 11.27a4.57 4.57 0 11-4.54 5.18 4.69 4.69 0 011.41-4 4.57 4.57 0 013.07-1.22zm-.06.65a3.92 3.92 0 102.67 1 3.93 3.93 0 00-2.62-1z"/><path class="fill" d="M17.8 17.39a1.56 1.56 0 10-1.55-1.55 1.54 1.54 0 001.55 1.55zM5.13 16.06a4 4 0 11-.79 8 4 4 0 01-2-6.87 4 4 0 012.71-1.1zm0 .65a3.37 3.37 0 101.24 6.49A3.38 3.38 0 006.5 17a3.3 3.3 0 00-1.42-.29z"/><path class="fill" d="M5.14 20.94a.85.85 0 10-.84-.85.85.85 0 00.84.85z"/></svg>