<svg xmlns="http://www.w3.org/2000/svg" viewBox="0 0 24.5 17.25"><path d="M0 .5A.5.5 0 01.5 0h12.92a.5.5 0 01.5.5v16.25a.5.5 0 01-.25.43.48.48 0 01-.49 0L7 13.66.75 17.18a.5.5 0 01-.75-.43zM1 1v14.89l5.71-3.24a.5.5 0 01.5 0l5.71 3.24V1z" class="fill" fill-rule="evenodd"/><path d="M.5 15.08v1.62l6.37-3.6 6.55 3.6v-1.62L7.1 11.39z" class="fill"/><path d="M6.86 11a.48.48 0 01.49 0l6.33 3.69a.51.51 0 01.24.43v1.58a.5.5 0 01-.24.43.52.52 0 01-.5 0l-6.31-3.46-6.12 3.47a.52.52 0 01-.5 0A.48.48 0 010 16.7v-1.62a.49.49 0 01.26-.43zM1 15.38v.46l5.62-3.18a.53.53 0 01.49 0l5.81 3.19v-.48L7.09 12z" class="fill" fill-rule="evenodd"/><path d="M24.5 5.06h-8.12v-1h8.12z" class="fill notcheck" fill-rule="evenodd"/><path d="M19.94 8.62V.5h1v8.12z" class="fill notcheck" fill-rule="evenodd"/><path d="M11.12 3.22H.78v-1h10.34z" class="fill" fill-rule="evenodd"/><path d="M23.84 1.29l-4.06 7-.87-.5 4.09-7z" class="stroke check" fill="none"/><path d="M19.4 8.12l-2.79-2.79.71-.71 2.79 2.79z" class="stroke check" fill="none"/></svg>