<svg xmlns="http://www.w3.org/2000/svg" viewBox="0 0 14.53 20"><path d="M11.79 17.34h-9M13.16 2.55H2.74M7.24 4.11v11.58" fill="none" class="stroke"/><path d="M13.16 0a1.37 1.37 0 011.37 1.37v2.57a1.37 1.37 0 01-1.37 1.38 1.37 1.37 0 01-1.37-1.38V1.37A1.37 1.37 0 0113.16 0zM1.37 0a1.37 1.37 0 011.37 1.37v2.57a1.37 1.37 0 01-1.37 1.38A1.37 1.37 0 010 3.94V1.37A1.37 1.37 0 011.37 0z" class="fill"/><path d="M13.16 15.18a.87.87 0 01.87.87v2.58a.87.87 0 01-.87.87.87.87 0 01-.87-.87v-2.58a.87.87 0 01.87-.87zM1.37 15.18a.87.87 0 01.87.87v2.58a.87.87 0 01-.87.87.87.87 0 01-.87-.87v-2.58a.87.87 0 01.87-.87z" fill="none" class="stroke"/></svg>