<svg xmlns="http://www.w3.org/2000/svg" viewBox="0 0 30.25 25.3"><path d="M7.36 9.58l4 .32v14.46l-4-.5zM25 8.4l-3.65 1.19.21 14.3 3.69-1.37z" class="fill-1"/><path d="M1.72 8.77v14.42l17.46 2.11v-15zm1 1.14v12.35l15.38 1.83V11.28z" class="fill-2" fill-rule="evenodd"/><path d="M29 7.22v14l-10.76 4V10.33zM28 8.6v11.9l-8.72 3.27V11.12z" class="fill-2" fill-rule="evenodd"/><path d="M0 3.26v6.37l19.18 1.76V5zM1 4.4v4.28l17.1 1.57V6z" class="fill-2" fill-rule="evenodd"/><path d="M11.3 0l18.85 1.74.1 1-11.34 3.32L.4 4.2l-.09-1zm.1 1.06L3.19 3.43 18.81 5l8.51-2.48z" class="fill-2" fill-rule="evenodd"/><path d="M30.1 1.7v6.12L18 11.39V5.27zm-1 1.39V7L19 10V6.05z" class="fill-2" fill-rule="evenodd"/><path d="M3.06 2.36L22.19 4.7l3.62-1.18L6.12 1.39z" class="fill-1"/><path d="M18.16.64L6.67 4.92l4 .38L21.81.92zM25.87 3.53l-3.68 1.14v5.57l3.68-1z" class="fill-1"/><path d="M6.67 4.92l4 .29v5.43l-4-.29z" class="fill-1"/></svg>