<svg xmlns="http://www.w3.org/2000/svg" viewBox="0 0 28 27"><path d="M13 3a3 3 0 013-3 3 3 0 012.9 2.2 5.41 5.41 0 00-3.6 3.6A2.81 2.81 0 0113 3zm4 4.5a3.5 3.5 0 007 0 3.5 3.5 0 00-7 0zm10.9 8.4a1.43 1.43 0 00-1.9-.8l-3.1 1.2-3.9 1.6c-.1 0-.2.1-.4.1H14a1 1 0 010-2h4.4l1.2-.5a1.78 1.78 0 00.4-1 1.54 1.54 0 00-1.5-1.5H15l-3.3-.9a2 2 0 00-1.3.2l-3.1 1.5a1 1 0 00-.5.4L5 16l6 6h5.5a1.27 1.27 0 00.6-.1l10-4a1.6 1.6 0 00.8-2zM3.7 17.7a1 1 0 00-1.4 0L0 20l7 7 2.3-2.3a1 1 0 000-1.4z" class="fill"/></svg>