<svg xmlns="http://www.w3.org/2000/svg" viewBox="0 0 26.49 24"><path d="M15.48 6v4.3a1.94 1.94 0 011 1.7.9.9 0 01-.1.5L18 14.1a1 1 0 11-1.4 1.4L15 13.9c-.2 0-.3.1-.5.1a2 2 0 01-2-2 1.94 1.94 0 011-1.7V6a1 1 0 012 0zm-1.1-6a12 12 0 00-11.8 11H.48a.52.52 0 00-.4.8l3.5 5.1a.47.47 0 00.8 0l3.5-5.1a.52.52 0 00-.4-.8h-2a9.05 9.05 0 018.8-8 9.14 9.14 0 019.2 8.7 9 9 0 01-9 9.3 8.69 8.69 0 01-6.2-2.5 1 1 0 00-1.5.2l-.6.8a1 1 0 00.2 1.3 11.77 11.77 0 008.1 3.2 12 12 0 0012-12.5A12.09 12.09 0 0014.38 0z" class="fill"/></svg>