<svg width="16" height="16" fill="none" xmlns="http://www.w3.org/2000/svg"><path d="M16 8c0 1.607 0 2.692-.037 3.29-.075 1.458-.486 2.58-1.309 3.364-.822.785-1.906 1.234-3.364 1.309C10.692 16 9.57 16 8 16c-1.607 0-2.692 0-3.29-.037-1.458-.075-2.58-.486-3.364-1.309C.56 13.87.112 12.748.037 11.29 0 10.692 0 9.57 0 8s0-2.692.037-3.29c.075-1.458.486-2.58 1.309-3.364C2.13.56 3.252.112 4.71.037 5.308 0 6.43 0 8 0c1.607 0 2.692 0 3.29.037 1.458.075 2.58.486 3.364 1.309.785.822 1.234 1.906 1.309 3.364 0 .598.037 1.683.037 3.29zM8.785 1.42H6.131c-.262 0-.598 0-1.01.038-.41 0-.785.037-1.084.112-.299.037-.56.112-.747.187-.337.15-.636.336-.935.598-.262.262-.448.56-.598.935-.075.187-.15.448-.187.747-.037.3-.075.636-.112 1.085 0 .41-.037.747-.037 1.009V9.869c0 .262 0 .598.037 1.01 0 .41.037.785.112 1.084.075.299.112.56.187.747.15.337.336.636.598.935.262.261.56.449.935.598.187.075.448.15.747.187.3.037.636.075 1.085.112.448.037.747.037 1.009.037H9.869c.262 0 .598 0 1.01-.037a4.6 4.6 0 001.084-.112c.299-.037.56-.112.747-.187.337-.15.636-.337.935-.598.261-.262.449-.56.598-.935.075-.187.15-.448.187-.747.037-.3.075-.636.112-1.084 0-.412.037-.748.037-1.01V8.785 8v-.785-1.084c0-.262 0-.598-.037-1.01a4.6 4.6 0 00-.112-1.084c-.037-.299-.112-.56-.187-.747a3.602 3.602 0 00-.598-.935 2.677 2.677 0 00-.935-.598 3.102 3.102 0 00-.747-.187 25.47 25.47 0 00-1.084-.112c-.412 0-.748-.037-1.01-.037H8.785zm2.094 3.664c.785.785 1.196 1.757 1.196 2.916s-.411 2.094-1.196 2.916c-.785.785-1.758 1.196-2.916 1.196-1.16 0-2.094-.411-2.916-1.196C4.262 10.13 3.85 9.159 3.85 8s.412-2.093 1.197-2.916c.785-.785 1.757-1.196 2.916-1.196 1.158 0 2.13.374 2.916 1.196zM9.869 9.87A2.573 2.573 0 0010.654 8c0-.71-.261-1.383-.785-1.907a2.596 2.596 0 00-1.906-.785c-.748 0-1.384.262-1.907.785A2.596 2.596 0 005.271 8c0 .748.262 1.383.785 1.87a2.596 2.596 0 001.907.784c.747 0 1.383-.261 1.906-.785zm3.066-6.841a.936.936 0 01.299.673.936.936 0 01-.3.673.936.936 0 01-.672.299.936.936 0 01-.673-.3.936.936 0 01-.3-.672c0-.262.113-.486.3-.673a.936.936 0 01.673-.299c.261 0 .486.112.673.299z" class="fill"/></svg>