<svg width="16" height="16" fill="none" xmlns="http://www.w3.org/2000/svg"><path d="M11.594 10.434c-.855.544-2.033.76-2.811.84l.653.644 2.383 2.384c.872.893-.546 2.29-1.427 1.428-.597-.607-1.472-1.481-2.384-2.394l-2.384 2.39c-.88.86-2.299-.55-1.418-1.427.606-.606 1.472-1.481 2.384-2.384l.643-.643c-.768-.082-1.965-.285-2.83-.84C3.385 9.774 2.938 9.39 3.33 8.587c.232-.456.866-.84 1.706-.178 0 0 1.134.903 2.965.903 1.83 0 2.964-.903 2.964-.903.84-.66 1.472-.278 1.706.178.388.803-.06 1.187-1.078 1.846zM3.947 4.052A4.055 4.055 0 017.999 0a4.055 4.055 0 014.052 4.052 4.053 4.053 0 01-8.104 0zm2.062 0c0 1.096.893 1.99 1.99 1.99a1.995 1.995 0 000-3.99c-1.097 0-1.99.894-1.99 2z" class="fill"/></svg>