<svg xmlns="http://www.w3.org/2000/svg" viewBox="0 0 18 18"><path d="M18 8.93A8.93 8.93 0 019.56 18H9a8.78 8.78 0 01-5.38-1.8l-1 1.2a.39.39 0 01-.62-.15L.83 12.68c-.08-.23.15-.53.37-.45l4.63.52a.34.34 0 01.22.6l-1 1.13a6.29 6.29 0 004.26 1.2A6.57 6.57 0 0014 13.43a7 7 0 001.72-4.65.84.84 0 01.22-.6.93.93 0 01.6-.23l.74.08a.55.55 0 01.45.22 1 1 0 01.27.68zm-15.9.9a.87.87 0 00.22-.6A6.28 6.28 0 014 4.58a6.54 6.54 0 014.67-2.26 6.91 6.91 0 014.25 1.21L12 4.65a.35.35 0 00.23.6l4.63.53a.38.38 0 00.37-.45L16.06.75a.39.39 0 00-.67-.15l-1.05 1.2A8.75 8.75 0 009 0h-.56a9.09 9.09 0 00-6.2 3A8.8 8.8 0 000 9.07a.8.8 0 00.15.53.58.58 0 00.45.23l.75.07a.51.51 0 00.75-.07z" class="fill"/></svg>