<svg xmlns="http://www.w3.org/2000/svg" viewBox="0 0 14.53 20"><path d="M13.16 20a1.37 1.37 0 001.37-1.37v-2.58a1.37 1.37 0 10-2.74 0V17h-9v-.9a1.37 1.37 0 10-2.74 0v2.58a1.37 1.37 0 002.74 0V18h9v.68A1.37 1.37 0 0013.16 20zM11.79 2.16v-.79a1.37 1.37 0 112.74 0v2.57a1.37 1.37 0 11-2.74 0v-.78h-9v.78a1.37 1.37 0 11-2.79 0V1.37a1.37 1.37 0 012.74 0v.79zm-4 2.15a.5.5 0 00-.5-.5.5.5 0 00-.5.5v11.58a.5.5 0 00.5.5.5.5 0 00.5-.5zM1 1.37v2.57a.38.38 0 00.37.38.38.38 0 00.37-.38V1.37a.37.37 0 10-.74 0zm11.79 2.57V1.37a.38.38 0 01.37-.37.37.37 0 01.37.37v2.57a.37.37 0 01-.37.38.38.38 0 01-.37-.38z" class="fill" fill-rule="evenodd"/></svg>