<svg xmlns="http://www.w3.org/2000/svg" viewBox="0 0 16 16"><path d="M8 0a8 8 0 11-8 8 8 8 0 018-8zM6.35 12.2s0 1.89.84 2 .84.14 1.23 0 .58-.2.68-.81.18-1.19.18-1.19a12.69 12.69 0 01-1.43.06c-.95 0-1.5-.06-1.5-.06zm7.74-1.48s.56-1.17-.18-1.21a2 2 0 00-1.91.79 19.75 19.75 0 00-1 3s.08.41.64.06c.37-.23.54-.23.62-.2a6.62 6.62 0 001.83-2.44zM3.64 13.05l.51.21c.45.21.52 0 .52 0s-.23-2.61-1-3.08S2.09 9.07 2 9.93a5.39 5.39 0 00-.08.73 6.76 6.76 0 001.72 2.39zm4-5.74c.84 0 1.52.35 1.52.78s-.68.78-1.52.78-1.51-.35-1.51-.78.66-.78 1.49-.78zm6.51-1.76c-.23-.33-.52-.63-.74-1s-.21-.81-.49-1.11a6.67 6.67 0 00-10.29.59c-.3.41-.22.83-.42 1.29a7.28 7.28 0 01-.55.87h.06s-.23.49 0 .63A2.24 2.24 0 003 6.81a8.81 8.81 0 014.72-1.17 11.78 11.78 0 015 .82c.43.11 1 .43 1.32.17s.12-.97.09-1.08z" class="fill" fill-rule="evenodd"/></svg>