<svg xmlns="http://www.w3.org/2000/svg" viewBox="0 0 19 19"><defs><style>.cls-2{fill:none;stroke-linecap:round;stroke-linejoin:round}</style></defs><path class="cls-1 fill" d="M16.46 13.44l-.32-.38-.07.06v.08zm-13.92 0L3 13.2v-.08l-.07-.06zM.5 9.51zm2-3.95l.32.38.07-.06L3 5.8zm13.92 0L16 5.8v.08l.07.06zM9.5 18a8.52 8.52 0 007.4-4.31l-.9-.49A7.51 7.51 0 019.5 17zm-7.4-4.31A8.52 8.52 0 009.5 18v-1A7.51 7.51 0 013 13.2zM0 9.51a5.7 5.7 0 002.22 4.32l.64-.77A4.68 4.68 0 011 9.5zm0 0A9.51 9.51 0 009.5 19v-1A8.51 8.51 0 011 9.5zM9.5 19A9.5 9.5 0 0019 9.5h-1A8.52 8.52 0 019.5 18zM19 9.5A9.5 9.5 0 009.5 0v1A8.52 8.52 0 0118 9.5zM9.5 0A9.5 9.5 0 000 9.5h1A8.52 8.52 0 019.5 1zM2.22 5.17A5.72 5.72 0 000 9.5h1a4.68 4.68 0 011.86-3.56zM9.5 1a8.52 8.52 0 00-7.4 4.31l.9.49A7.51 7.51 0 019.5 2zm7.4 4.31A8.52 8.52 0 009.5 1v1A7.51 7.51 0 0116 5.8zM19 9.5a5.72 5.72 0 00-2.22-4.33l-.64.77A4.68 4.68 0 0118 9.5zm-2.22 4.33A5.72 5.72 0 0019 9.5h-1a4.68 4.68 0 01-1.86 3.56z"/><path fill="none" class="cls-2 stroke" d="M2.13 9.79C2.7 8.83 5 6.91 9.6 6.91s6.76 2.18 7.27 2.88"/><path fill="none" class="cls-2 stroke" d="M2.13 9C2.7 8.06 5 6.15 9.6 6.15S16.36 8.32 16.87 9M10 17v-3.38a8.9 8.9 0 011.43-3.26 11.44 11.44 0 011.92-1.24M9.09 17v-3.38a8.9 8.9 0 00-1.43-3.26 10.49 10.49 0 00-1.92-1.24"/><path class="cls-3 fill stroke" d="M5.6 9a1.84 1.84 0 011.84-1.82h4.12A1.84 1.84 0 0113.4 9a1.37 1.37 0 01-.32.74 5 5 0 01-.93.91 6.12 6.12 0 01-1.18.7 2.36 2.36 0 01-.94.26H9a2.45 2.45 0 01-1-.24 6.12 6.12 0 01-1.18-.7 5 5 0 01-.93-.91A1.4 1.4 0 015.6 9z"/></svg>