<svg xmlns="http://www.w3.org/2000/svg" viewBox="0 0 21.5 32"><path d="M8.59 8l-.28.33a9 9 0 00-1.22 2.18l-3.71.09a5.89 5.89 0 01.72-1.06 2.59 2.59 0 011.4-1l.14-.05A20.14 20.14 0 018.59 8zm-5.45 3.1L6.9 11v.1a20 20 0 00-.82 3.13l-3.94.1a17.27 17.27 0 01.7-2.46q.16-.4.3-.77zM2 14.81a27.46 27.46 0 00-.37 3.07h4A30 30 0 016 14.72zm-.42 4.87v-1.33h4v1.32q0 1 .06 2h-4c-.03-.61-.05-1.29-.05-1.99zm.1 2.5a22 22 0 00.51 3.24l3.94.14a26.83 26.83 0 01-.46-3.38zm1.07 5a12.59 12.59 0 01-.43-1.31l3.93.13a15.55 15.55 0 00.57 2q.21.55.45 1.05l-3.72-.23a9.29 9.29 0 01-.79-1.62zm1.15 2.08a3.39 3.39 0 001.61 1.18 16.57 16.57 0 003.12.56 6.79 6.79 0 01-1.11-1.5zM10.35 32h-.17a16.53 16.53 0 01-5.6-.86.46.46 0 01-.21-.14 7 7 0 01-2.49-3.41 22.16 22.16 0 01-1.23-7.91 23.57 23.57 0 011.28-8.13 9.14 9.14 0 011.44-2.61 4.53 4.53 0 011-.89.5.5 0 01.25-.2 20.12 20.12 0 015.7-.85h.21a16.45 16.45 0 015.59.86.21.21 0 01.1.06c2.22.47 4 5.46 4 11.55s-1.7 11-3.87 11.53a.51.51 0 01-.21.15 19.68 19.68 0 01-5.79.85zm0-.94a21.09 21.09 0 004.26-.49l-.08-.06-4.53.36a2.42 2.42 0 00.39.19zm-1-.62a6.84 6.84 0 01-1.55-2.56h5.13a8 8 0 001.21 2.19zm3.34-3H7.62a18.8 18.8 0 01-.74-3H12a19.6 19.6 0 00.75 2.97zm-5.88-3.5h5.11a29.44 29.44 0 01-.31-3.24l-5.07-.1a30.13 30.13 0 00.27 3.34zm4.78-4.47v.76l-5.07-.1v-.46c0-1.05 0-2.06.14-3l5 .1c-.03.86-.07 1.77-.07 2.7zm-4.87-3.28l5 .1a24.52 24.52 0 01.49-2.95l-5-.09a21.91 21.91 0 00-.49 2.94zm6.57-6a14.15 14.15 0 00-.94 2.64l-5-.09c.12-.48.26-.93.41-1.35a12.57 12.57 0 01.56-1.31zm-4.72-.54A5.68 5.68 0 019 9a2.68 2.68 0 011.36-1h.13a17.77 17.77 0 014.09.45 4.89 4.89 0 00-1.08 1.37zM18 27.34a23.84 23.84 0 001.19-7.87v-.15c0 4.61-1.22 8.33-2.7 8.33s-2.71-3.8-2.71-8.47 1.21-8.47 2.71-8.47c1.07 0 2 1.95 2.44 4.78A19.68 19.68 0 0018 11.6a7.13 7.13 0 00-1.2-2.19 1.37 1.37 0 00-1-.59 1.37 1.37 0 00-1 .59 7.14 7.14 0 00-1.19 2.19 23.55 23.55 0 00-1.2 7.87 23.55 23.55 0 001.2 7.87 7 7 0 001.19 2.19 1.37 1.37 0 001 .59 1.37 1.37 0 001-.59 7 7 0 001.2-2.19zm-.49-2.46a19.72 19.72 0 00.74-5.7 19.79 19.79 0 00-.74-5.71 5.22 5.22 0 00-.72-1.53.91.91 0 00-.3-.29.82.82 0 00-.3.29 5.22 5.22 0 00-.72 1.53 19.75 19.75 0 00-.75 5.71 19.68 19.68 0 00.75 5.7 5.22 5.22 0 00.72 1.53c.16.22.26.28.3.29a.8.8 0 00.3-.29 5.22 5.22 0 00.76-1.53zm-1-13.23zm0 0z" class="fill-1" fill-rule="evenodd"/><path d="M16.4 4.16a15.64 15.64 0 01-5.87.68A10 10 0 0113 2.13a3.5 3.5 0 011.88-.72 2.33 2.33 0 011.77.86c.6.64.65 1 .62 1.18s-.21.43-.87.71zm1.27-2.86A3.75 3.75 0 0014.85 0a4.85 4.85 0 00-2.67 1 11.26 11.26 0 00-2.81 3 7.63 7.63 0 00-1.62-1.84 3.15 3.15 0 00-1.87-.76 2.55 2.55 0 00-2 1 2.37 2.37 0 00-.66 1.86 2 2 0 001.2 1.38c-.29.12-.58.24-.86.39a6 6 0 00-1.45 1 6.6 6.6 0 00-.68.85L1.4 8a2.45 2.45 0 01-.48.55A2.29 2.29 0 010 9l.35 1.37a3.93 3.93 0 001.44-.65 4 4 0 00.77-.86V8.8a4.8 4.8 0 01.54-.67 4.06 4.06 0 011.1-.78 9.65 9.65 0 013-.9 13.23 13.23 0 012.46-.14h.08a18 18 0 016.76 1 5.32 5.32 0 011.5.77 5.64 5.64 0 01.64.66l.06.06a3.54 3.54 0 00.91.82 4.88 4.88 0 001.65.61l.29-1.38a3.76 3.76 0 01-1.19-.42 2.78 2.78 0 01-.6-.55l-.06-.07a6.11 6.11 0 00-.86-.81 7.15 7.15 0 00-1.71-1c-.27-.11-.54-.21-.83-.3.24-.08.46-.15.66-.24a2.58 2.58 0 001.69-1.74 2.88 2.88 0 00-.98-2.42zM5 4.39a8 8 0 003.18.46 6.12 6.12 0 00-1.31-1.59 1.72 1.72 0 00-1-.45 1.13 1.13 0 00-.87.52c-.36.43-.37.64-.36.7s.03.18.36.36z" class="fill-2" fill-rule="evenodd"/></svg>