<svg xmlns="http://www.w3.org/2000/svg" viewBox="0 0 24 24"><path class="fill" d="M3.59 17.58h-.14l-.11-.07-.08-.1v-.12l.12-7.33h-2.2L1 9.89c-.1-.06-.14-.07-.19-.17a.53.53 0 010-.12V7.28l.08-.1.11-.07H4.28a.45.45 0 01.19.17v.25l-.07.1-.12.07H1.52v1.59H3.86L4 9.4l.08.11v.12L4 17h2.29l.12.07.08.1v3.44h2.52l.11.07.08.11v2.64h9.6v-2.35h-4.06a.52.52 0 01-.19-.17v-4.03a.52.52 0 01.19-.17h2.41v-3.14h-3.56a.4.4 0 01-.19-.17V9.38a.4.4 0 01.19-.17h1.13V7.79H11.4a.48.48 0 01-.2-.17v-.24l.08-.1.12-.07H15.23l.12.07.07.1v2.24a.4.4 0 01-.19.17H14.1v3.13h3.54a.45.45 0 01.19.17V17.12a.45.45 0 01-.19.17h-2.41v3.12h4.06a.52.52 0 01.19.17v3.16a.52.52 0 01-.19.17H8.68l-.12-.07-.07-.11V21.1H5.97l-.12-.07-.09-.03V17.55zm18.78 3.19A1.64 1.64 0 0124 21.94a1.47 1.47 0 01-1 1.63 1.92 1.92 0 01-.58.11 1.74 1.74 0 01-1.53-.83 1.51 1.51 0 011.47-2.08zm0 .31a1.2 1.2 0 00-1.13 1.7 1.38 1.38 0 001.17.58 1.31 1.31 0 00.44-.07 1.13 1.13 0 00.49-1.82 1.39 1.39 0 00-1-.39zm-.08 2h-.61v-1.66h.6a1 1 0 01.45.1.84.84 0 01.31.28.81.81 0 01.11.41v.08a.77.77 0 01-.11.4.73.73 0 01-.31.29.92.92 0 01-.46.1zm0-1.35h-.15v1h.16a.36.36 0 00.29-.12.53.53 0 00.11-.36v-.08a.53.53 0 00-.11-.36.38.38 0 00-.33-.08zm.11-4.47a1.66 1.66 0 011.6 1.18 1.48 1.48 0 01-1 1.63 1.65 1.65 0 01-.58.1 1.74 1.74 0 01-1.53-.82 1.51 1.51 0 011.47-2.09zm0 .32c-.88 0-1.59 1-1.13 1.69a1.39 1.39 0 001.17.59 1.32 1.32 0 00.44-.08 1.12 1.12 0 00.45-1.78 1.35 1.35 0 00-1-.39zm.31 1.42v-1h.45v1.65h-.45l-.67-1v1h-.45v-1.73H22zm-.34-5.38A1.67 1.67 0 0124 14.74a1.49 1.49 0 01-1 1.64 1.91 1.91 0 01-.58.1 1.74 1.74 0 01-1.53-.83 1.51 1.51 0 011.47-2.08zm0 .31a1.25 1.25 0 00-1.27 1.33 1.28 1.28 0 001.27 1 1.25 1.25 0 001.28-1.25 1.27 1.27 0 00-1.25-1zM1.24 1.66A2.44 2.44 0 013.57 0h8.84a2.34 2.34 0 012.4 2.12v1.8a1.49 1.49 0 01-.38 1 5.4 5.4 0 01-2 1.08l-1.88.63v7.75a1.38 1.38 0 01-.12.53 1.64 1.64 0 01-.52.8.47.47 0 01-.3.12H6.24c-.53 0-.8-.7-.91-1.23a1.81 1.81 0 010-.23V6.68l-1.74-.63c-.95-.39-2-.71-2.35-1.67a1.43 1.43 0 01-.07-.46v-.28H1a1 1 0 01-.93-1.36 1.15 1.15 0 011-.62zM22 15.88h-.45v-1.66h.74a1 1 0 01.52.13.42.42 0 01.19.37.52.52 0 010 .28.5.5 0 01-.25.19l.39.66h-.48l-.33-.58H22zm.29-1.35H22V15h.29a.25.25 0 00.19-.06.24.24 0 000-.34.25.25 0 00-.15-.07zM3.59 1.26a1 1 0 00-1 .88v1.78c0 .27.34.43.61.56s.64.28 1 .42l1.69.61a1.69 1.69 0 01.6.49 1.33 1.33 0 01.23.7v7.7a2 2 0 00.07.22H9c0-.08.06-.19.06-.19V6.68A1.25 1.25 0 019.34 6a1.61 1.61 0 01.66-.5l1.84-.61a6.75 6.75 0 001.41-.65.4.4 0 00.13-.33V2.13a1 1 0 00-1-.87c-2.91-.02-5.85 0-8.79 0zm18.78 8.49A1.67 1.67 0 0124 10.92a1.49 1.49 0 01-1 1.64 1.91 1.91 0 01-.58.1 1.74 1.74 0 01-1.53-.83 1.51 1.51 0 011.47-2.08zm0 .31a1.25 1.25 0 00-1.27 1.33 1.28 1.28 0 001.27 1 1.25 1.25 0 001.28-1.25 1.27 1.27 0 00-1.25-1zm0 .3a.94.94 0 01.39.07.59.59 0 01.26.2.53.53 0 01.09.3.46.46 0 01-.2.4.87.87 0 01-.54.15h-.31v.58h-.46v-1.7zm0 .8a.34.34 0 00.2-.05.21.21 0 00.07-.17.24.24 0 00-.07-.19.26.26 0 00-.2-.08h-.31v.49zM1.17 2.29h-.06c-.35 0-.57.53-.17.69a.51.51 0 00.17 0h.06z"/></svg>