<svg xmlns="http://www.w3.org/2000/svg" viewBox="0 0 400 400"><path d="M400 200A200 200 0 11200 0a199.94 199.94 0 01200 200zM163.4 305.5c88.7 0 137.2-73.5 137.2-137.2 0-2.1 0-4.2-.1-6.2a98.79 98.79 0 0024.1-25 97.87 97.87 0 01-27.7 7.6 48.19 48.19 0 0021.2-26.7 97.65 97.65 0 01-30.6 11.7 48.25 48.25 0 00-83.4 33 44.19 44.19 0 001.3 11 136.79 136.79 0 01-99.4-50.4 48.2 48.2 0 0015 64.3 47.37 47.37 0 01-21.8-6v.6a48.27 48.27 0 0038.7 47.3 48.07 48.07 0 01-12.7 1.7 46 46 0 01-9.1-.9 48.15 48.15 0 0045 33.5 96.93 96.93 0 01-59.9 20.6 87.68 87.68 0 01-11.5-.7 134.35 134.35 0 0073.7 21.8" class="fill"/></svg>