<svg xmlns="http://www.w3.org/2000/svg" viewBox="0 0 24 14.66"><path class="fill" d="M5.19 11.75l-.19.06c-.35.13-1.38.5-2.74.91a2.39 2.39 0 00-1.63 1.94L0 14.59a3 3 0 012.11-2.47c1.19-.36 2.12-.69 2.56-.85l.22-.79v-.05A10.33 10.33 0 013 4.63a4.6 4.6 0 019.19 0A9.49 9.49 0 0110.82 10a4 4 0 01-3.19 2 3.35 3.35 0 01-2.24-1zm.4-1.43a2.82 2.82 0 002 1c1.7 0 3.62-1.91 3.92-5.66a9.82 9.82 0 01-.91-1.6h-.11l-.3.15h-.07l-.27.14-.27.15h-.07L9 4.85a3.37 3.37 0 01-1.37.33 3.85 3.85 0 01-2.58-1h-.11a.68.68 0 00-.38.12.85.85 0 00-.15.21c-.06.12-.12.27-.19.45S4 5.34 4 5.58s-.07.25-.11.37A8.58 8.58 0 005.34 10c.08.14.17.23.25.32zM11.2 3.8c.09.2.24.49.39.76a4 4 0 00-7.92-.17c0-.1.09-.2.14-.3a1.23 1.23 0 01.33-.42 1.27 1.27 0 01.77-.24 1.05 1.05 0 01.35.08.53.53 0 01.26.21 3.22 3.22 0 002.12.83 2.79 2.79 0 001.11-.27L9.21 4h.07l.31-.17.23-.11.08-.05a3.52 3.52 0 01.39-.18.9.9 0 01.47-.06.59.59 0 01.44.37z" fill-rule="evenodd"/><path class="fill" d="M12.88 12.72c-1.37-.41-2.4-.78-2.75-.91l.23-.59c.24.09.84.31 1.67.57v-.09c1-.3 1.77-.57 2.14-.7l.27-.95A10.55 10.55 0 0112.89 5H13v-.34a11.89 11.89 0 001.61-.27 3.62 3.62 0 001.32-.68 5.14 5.14 0 00.88-.87l.7-.88-.14 1.12a1.58 1.58 0 00.25 1 2.24 2.24 0 001.44.91 4.41 4.41 0 011.78.77 1 1 0 01.42.9l-.61-.13s0-.12-.21-.29l-.07-.05c-.16 3.5-1.93 5.23-3.68 5.23a2.61 2.61 0 01-1.79-.76l-.24.86-.15.06c-.23.09-.8.3-1.58.55h.13a3 3 0 012.11 2.47l-.62.07a2.43 2.43 0 00-1.67-1.95zm6.87-6.91a5.91 5.91 0 00-.83-.26 2.85 2.85 0 01-1.82-1.18 2 2 0 01-.27-.6c-.15.14-.32.29-.51.44a4 4 0 01-1.57.79c-.52.11-.92.19-1.21.23A9.4 9.4 0 0015 9.79a2.19 2.19 0 001.69 1c1.31-.05 3-1.43 3.06-4.98z" fill-rule="evenodd"/><path class="fill" d="M21.13 12.31c-1.16-.35-2-.67-2.33-.78l.23-.59c.28.11 1.14.42 2.28.76a2.66 2.66 0 011.83 2.14l-.63.07a2 2 0 00-1.38-1.6zM16.24.75A3 3 0 0015 .67a3.1 3.1 0 00-2.29 1.72l-.09.15-.53-.34.09-.15A3.7 3.7 0 0114.9 0a3.57 3.57 0 011.53.11 1.69 1.69 0 01.36.15A1.12 1.12 0 0117 .2a4.88 4.88 0 011.41-.2 4.65 4.65 0 012.92 1.31A4.94 4.94 0 0123 4.84a10.1 10.1 0 01-.56 3.28l-.09.31c-.3 1-.41 1.66 0 2.19a9.53 9.53 0 001.65 1.9l-.38.5a9.78 9.78 0 01-1.84-2 3 3 0 01-.06-2.73l.09-.31a9.4 9.4 0 00.54-3.08 4.35 4.35 0 00-1.45-3.09A4 4 0 0018.41.67a3.93 3.93 0 00-1.2.13h-.12l-.61-.02a.25.25 0 000 .09.88.88 0 00-.24-.12z"/></svg>