<svg xmlns="http://www.w3.org/2000/svg" viewBox="0 0 27.9 28.01"><path d="M5.3 13.31a1.22 1.22 0 01.6-1.7V9c0-3 2-5 5.5-5a8.72 8.72 0 012.5.4V7a4 4 0 002 3.5 3.19 3.19 0 001.6 2.8v.1l-.3.8a3.11 3.11 0 01-1.3 1.5l-.7 3.1a3 3 0 01-2.9 2.4h-1.9a3 3 0 01-2.9-2.4l-.7-3.1a2.73 2.73 0 01-1.3-1.5zm16.7 9.5l-5.1-2.7a5 5 0 01-4.5 2.8h-1.9a5 5 0 01-4.5-2.8l-5.1 2.7a1.57 1.57 0 00-.9 1.4V27a.94.94 0 001 1h21a.94.94 0 001-1v-2.8a1.87 1.87 0 00-1-1.39zm5.9-20.9v5a2 2 0 01-2 2h-2.7l-3.3 2.5a1.08 1.08 0 01-.7.3 1.27 1.27 0 01-.6-.1 1.23 1.23 0 01-.7-1.1V9a2 2 0 01-2-2V2a2 2 0 012-2h8a1.86 1.86 0 012 1.91zm-2 0h-8v5h2v2l2.7-2h3.3z" class="fill"/></svg>