<svg xmlns="http://www.w3.org/2000/svg" viewBox="0 0 631.99 666.39"><path d="M560.65 65C544.09 49.72 477.17 1.14 328.11.48c0 0-175.78-10.6-261.47 68C18.94 116.19 2.16 186 .39 272.55S-3.67 521.3 152.68 565.28h.15l-.1 67.11s-1 27.17 16.89 32.71c21.64 6.72 34.34-13.93 55-36.19 11.34-12.22 27-30.17 38.8-43.89 106.93 9 189.17-11.57 198.51-14.61 21.59-7 143.76-22.66 163.63-184.84C646.07 218.4 615.64 112.66 560.65 65zm18.12 308.58C562 509 462.91 517.51 444.64 523.37c-7.77 2.5-80 20.47-170.83 14.54 0 0-67.68 81.65-88.82 102.88-3.3 3.32-7.18 4.66-9.77 4-3.64-.89-4.64-5.2-4.6-11.5.06-9 .58-111.52.58-111.52C38.94 485.05 46.65 347 48.15 274.71s15.08-131.51 55.42-171.34c72.48-65.65 221.79-55.84 221.79-55.84 126.09.55 186.51 38.52 200.52 51.24 46.52 39.83 70.22 135.14 52.89 274.77z" class="fill"/><path d="M389.47 268.77q-2.46-49.59-50.38-52.09M432.72 283.27q1-46.2-27.37-77.2c-19-20.74-45.3-32.16-79.05-34.63" fill="none" class="stroke" stroke-linecap="round" stroke-linejoin="round" stroke-width="16.86"/><path d="M477 300.59q-.62-80.17-47.91-126.28t-117.65-46.6" fill="none" class="stroke" stroke-linecap="round" stroke-linejoin="round" stroke-width="16.86"/><path d="M340.76 381.68s11.85 1 18.23-6.86l12.44-15.65c6-7.76 20.48-12.71 34.66-4.81A366.75 366.75 0 01437 374.1c9.41 6.92 28.68 23 28.74 23 9.18 7.75 11.3 19.13 5.05 31.13 0 .07-.05.19-.05.25a129.8 129.8 0 01-25.89 31.88c-.12.06-.12.12-.23.18q-13.38 11.18-26.29 12.71a17.63 17.63 0 01-3.84.24 35.38 35.38 0 01-11.18-1.72l-.28-.41c-13.26-3.74-35.4-13.1-72.27-33.44A430.52 430.52 0 01270 397.81a318.61 318.61 0 01-27.31-24.22l-.92-.92-.92-.92-.92-.92-.92-.92a318.61 318.61 0 01-24.22-27.31 431.29 431.29 0 01-40.11-60.71c-20.34-36.88-29.7-59-33.44-72.28l-.41-.28a35.08 35.08 0 01-1.71-11.18 17 17 0 01.23-3.84q1.65-12.9 12.77-26.31c.06-.11.12-.11.18-.23a129.57 129.57 0 0131.88-25.88c.06 0 .18-.06.25-.06 12-6.25 23.38-4.13 31.12 5 .06.06 16.11 19.33 23 28.74q10.63 15 19.74 30.94c7.9 14.17 2.95 28.68-4.81 34.66l-15.65 12.44c-7.9 6.38-6.86 18.23-6.86 18.23s23.18 87.73 109.79 109.84z" class="fill"/></svg>