<svg xmlns="http://www.w3.org/2000/svg" viewBox="0 0 23.56 21.37"><path d="M10.69 21.37A10.69 10.69 0 100 10.69a10.68 10.68 0 0010.69 10.68zm0-.61A10.08 10.08 0 10.64 10.69a10.07 10.07 0 0010.07 10.07z" class="fill" fill-rule="evenodd"/><path d="M4 3.46a13.79 13.79 0 011.82 1 18.3 18.3 0 003.93 2.02c.25.09.5.16.76.23l.49.14 2.15.68c1 .25 1.93.52 2.85.84a1.39 1.39 0 01.73.44 2.27 2.27 0 01.35 1.66l.18.11a1.47 1.47 0 01.68 1.05 13 13 0 010 1.53v1.17l.32.33v.06a.19.19 0 010 .08l-.74.8-.14.35V16a.71.71 0 01-.28.08h-.37a5.14 5.14 0 01-.87.09.27.27 0 01-.22-.11.22.22 0 010-.14 6.13 6.13 0 00-.21-2.66 2.94 2.94 0 00-1.85-2 4.08 4.08 0 00-1.39-.16 3.39 3.39 0 00-2.8 1.45 5 5 0 00-.71 2.94v.18H3.49l-.23-.29h5.05a6.06 6.06 0 01.24-1.89 3.79 3.79 0 011.6-2.2 4 4 0 011.95-.53 3.73 3.73 0 012.19.51 3 3 0 01.92.93 5.72 5.72 0 01.64 3.8c.2 0 .41 0 .61-.07h.16l.49-.07.12-.3.67-.73-.27-.27v-.14a20.69 20.69 0 000-2.49 1.84 1.84 0 00-.07-.47 1.43 1.43 0 00-.73-.7h-.05l-.12-.05a10.81 10.81 0 01-2.36-1.2 27.17 27.17 0 01-2.57-2 .2.2 0 01-.05-.09l-1.38-.41A10.63 10.63 0 019 6.52 21.91 21.91 0 015.71 4.7a12.4 12.4 0 00-1.9-1zM2.86 15h3.81a1.52 1.52 0 00.71-.11c.31-.15.37-.47.42-.8a2.07 2.07 0 010-.22v-.17a26.22 26.22 0 00.57-3.4 7.7 7.7 0 00-.18-2V8.13h.29A.81.81 0 009 8a.33.33 0 00.16-.28.37.37 0 00-.16-.29 4 4 0 00-.56-.52 23.83 23.83 0 00-4.05-2.76l-.68-.35c-.07.07-.13.15-.19.22.62.3 1.22.64 1.81 1a22.16 22.16 0 013.14 2.26l.07.06a1.38 1.38 0 01.31.33.77.77 0 01-.34.08h-.39l-6.28-.62c0 .12-.08.25-.11.37l3.48.38 1.84.2a5.51 5.51 0 00.71.07h.17a11.94 11.94 0 01.21 1.46 6 6 0 010 1 31.9 31.9 0 01-.57 3.22v.22a.91.91 0 01-.16.51.35.35 0 01-.19.12 2.6 2.6 0 01-.64 0h-3.9zM15 13.42a3.15 3.15 0 00-2.74-1.67 3.06 3.06 0 00-1.3.27 3.1 3.1 0 104 1.4zm-4.1-.17a2 2 0 011.34-.49A2.1 2.1 0 0114.11 14a2.09 2.09 0 11-3.95.42 2.15 2.15 0 01.7-1.17zm4.93 2.92zm-3.35-8.52l.77.21h.15l2 .63a1.74 1.74 0 011.07.64 2.73 2.73 0 01.27 1.14l-.67-.27H16a8.46 8.46 0 01-1.51-.74 22.87 22.87 0 01-2-1.56l-.08-.07h.07z" class="fill" fill-rule="evenodd"/><path d="M19.59 15.63l3.51 2.26a1.19 1.19 0 01-1.29 2l-3.5-2.26z" class="fill"/></svg>