<svg width="16" height="16" fill="none" xmlns="http://www.w3.org/2000/svg"><path fill-rule="evenodd" clip-rule="evenodd" d="M10.453 0C14.933 0 16 1.067 16 5.547v4.906C16 14.933 14.933 16 10.453 16H5.547C1.067 16 0 14.933 0 10.453V5.547C0 1.067 1.067 0 5.547 0h4.906zm-6.12 5H3.167c-.334 0-.4.16-.4.327 0 .313.393 1.846 1.84 3.873a4.566 4.566 0 003.56 2.133c.74 0 .833-.166.833-.453V9.833c0-.333.073-.4.307-.4.233 0 .466.087 1.16.754.793.793.92 1.146 1.366 1.146H13c.333 0 .5-.166.407-.493a4.952 4.952 0 00-.987-1.367c-.273-.326-.667-.666-.807-.84-.14-.173-.12-.326 0-.52a14.556 14.556 0 001.574-2.666c.073-.247 0-.427-.354-.427h-1.166a.514.514 0 00-.507.327 9.78 9.78 0 01-1.433 2.386c-.274.274-.4.36-.547.36-.147 0-.18-.086-.18-.333V5.427C9 5.133 8.913 5 8.667 5H6.833a.287.287 0 00-.3.267c0 .28.427.346.467 1.14V8.12c0 .38-.067.447-.213.447-.4 0-1.334-1.454-1.934-3.114-.106-.32-.186-.453-.52-.453z" class="fill"/></svg>