<svg width="17" height="16" fill="none" xmlns="http://www.w3.org/2000/svg"><path d="M13.643 2.335C12.173.822 10.141 0 8.065 0 3.655 0 .108 3.59.15 7.957c0 1.384.39 2.724 1.038 3.935L.065 16l4.195-1.081a7.721 7.721 0 003.762.951c4.367 0 7.913-3.589 7.913-7.956a7.848 7.848 0 00-2.292-5.579zM8.065 14.53c-1.168 0-2.335-.303-3.33-.908l-.26-.13-2.507.648.648-2.464-.173-.26c-1.902-3.07-.994-7.135 2.12-9.038 3.113-1.902 7.134-.994 9.037 2.12 1.903 3.113.995 7.134-2.119 9.037a6.304 6.304 0 01-3.416.995zm3.805-4.8l-.475-.216s-.692-.303-1.125-.52c-.043 0-.086-.043-.13-.043a.625.625 0 00-.302.087s-.043.043-.649.735a.238.238 0 01-.216.13H8.93a.328.328 0 01-.173-.087L8.54 9.73c-.476-.216-.908-.476-1.254-.822-.087-.086-.217-.173-.303-.26-.303-.302-.606-.648-.822-1.037l-.043-.087c-.043-.043-.043-.086-.086-.173 0-.086 0-.173.043-.216 0 0 .173-.216.302-.346.087-.086.13-.216.217-.303.086-.13.13-.302.086-.432-.043-.216-.562-1.384-.692-1.643a.5.5 0 00-.302-.216H5.21c-.087 0-.173.043-.26.043l-.043.043c-.086.043-.173.13-.26.173-.086.087-.129.173-.215.26-.303.389-.476.864-.476 1.34 0 .346.086.692.216.995l.043.13c.39.821.908 1.556 1.6 2.205l.173.173c.13.13.26.216.346.346a7.727 7.727 0 003.114 1.643c.13.043.302.043.432.086h.433c.216 0 .475-.086.648-.172.13-.087.216-.087.303-.174l.086-.086c.087-.086.173-.13.26-.216.086-.087.173-.173.216-.26.087-.173.13-.389.173-.605v-.303s-.043-.043-.13-.086z" class="fill"/></svg>