<svg width="283" height="161" viewBox="0 0 283 161" fill="none" xmlns="http://www.w3.org/2000/svg">
<path fill-rule="evenodd" clip-rule="evenodd" d="M110.115 49.3433H129.142C130.799 49.3433 132.142 50.6864 132.142 52.3433V55.4514H107.115V52.3433C107.115 50.6864 108.458 49.3433 110.115 49.3433ZM106.115 52.3433C106.115 50.1341 107.906 48.3433 110.115 48.3433H129.142C131.351 48.3433 133.142 50.1341 133.142 52.3433V55.5259H181.25C186.773 55.5259 191.25 60.003 191.25 65.5259V103.59C191.25 109.113 186.773 113.59 181.25 113.59H101.25C95.7272 113.59 91.25 109.113 91.25 103.59V65.5259C91.25 60.003 95.7272 55.5259 101.25 55.5259H106.115V52.3433ZM101.25 56.5259H181.25C186.221 56.5259 190.25 60.5553 190.25 65.5259V103.59C190.25 108.561 186.221 112.59 181.25 112.59H101.25C96.2794 112.59 92.25 108.561 92.25 103.59V65.5259C92.25 60.5553 96.2794 56.5259 101.25 56.5259ZM141.25 106.024C152.639 106.024 161.872 96.7914 161.872 85.4024C161.872 74.0134 152.639 64.7808 141.25 64.7808C129.861 64.7808 120.628 74.0134 120.628 85.4024C120.628 96.7914 129.861 106.024 141.25 106.024ZM158.297 85.4023C158.297 94.8173 150.665 102.45 141.25 102.45C131.835 102.45 124.203 94.8173 124.203 85.4023C124.203 75.9874 131.835 68.355 141.25 68.355C150.665 68.355 158.297 75.9874 158.297 85.4023ZM162.872 85.4024C162.872 97.3437 153.191 107.024 141.25 107.024C129.309 107.024 119.628 97.3437 119.628 85.4024C119.628 73.4611 129.309 63.7808 141.25 63.7808C153.191 63.7808 162.872 73.4611 162.872 85.4024ZM157.297 85.4023C157.297 94.265 150.113 101.45 141.25 101.45C132.387 101.45 125.203 94.265 125.203 85.4023C125.203 76.5396 132.387 69.355 141.25 69.355C150.113 69.355 157.297 76.5396 157.297 85.4023ZM176.385 63.4302H180.439C180.633 63.4302 180.79 63.5875 180.79 63.7815C180.79 63.9756 180.633 64.1329 180.439 64.1329H176.385C176.191 64.1329 176.034 63.9756 176.034 63.7815C176.034 63.5875 176.191 63.4302 176.385 63.4302ZM175.034 63.7815C175.034 63.0352 175.639 62.4302 176.385 62.4302H180.439C181.185 62.4302 181.79 63.0352 181.79 63.7815C181.79 64.5279 181.185 65.1329 180.439 65.1329H176.385C175.639 65.1329 175.034 64.5279 175.034 63.7815Z" fill="#DDDDDD"/>
</svg>
