<?xml version="1.0" standalone="no"?>
<!DOCTYPE svg PUBLIC "-//W3C//DTD SVG 1.1//EN" "http://www.w3.org/Graphics/SVG/1.1/DTD/svg11.dtd" >
<svg xmlns="http://www.w3.org/2000/svg" xmlns:xlink="http://www.w3.org/1999/xlink" version="1.1">
<metadata>
Created by FontForge 20170731 at Thu Jul 12 23:30:53 2012
 By Aleksey,,,
[c] Copyright 1993, 1998-2003, The Font Bureau, Inc. Based on a design by S.H. deRoos. All Rights Reserved.
</metadata>
<defs>
<font id="NobelWGL-Bold" horiz-adv-x="0" >
  <font-face 
    font-family="NobelWGL-Bold"
    font-weight="700"
    font-stretch="normal"
    units-per-em="2048"
    panose-1="2 0 5 3 4 0 0 2 0 3"
    ascent="1638"
    descent="-410"
    x-height="883"
    cap-height="1495"
    bbox="-76 -699 2347 2083"
    underline-thickness="20"
    underline-position="-173"
    unicode-range="U+0020-FB04"
  />
<missing-glyph horiz-adv-x="1024" 
 />
    <glyph glyph-name="uniFB00" unicode="ff" horiz-adv-x="1206" 
d="M35 647v236h110v364q0 123 64.5 198t193.5 75h166v-267h-51q-40 0 -52 -69q-3 -17 -3 -31v-270h117v-236h-117v-647h-318v647h-110zM618 647v236h111v364q0 123 64.5 198t193.5 75h166v-267h-51q-40 0 -52 -69q-3 -17 -3 -31v-270h116v-236h-116v-647h-318v647h-111z" />
    <glyph glyph-name="uniFB01" unicode="fi" horiz-adv-x="1145" 
d="M35 647v236h110v364q0 123 64.5 198t193.5 75h166v-267h-51q-40 0 -52 -69q-3 -17 -3 -31v-270h117v-236h-117v-647h-318v647h-110zM725 0v883h317v-883h-317zM725 1026v291h317v-291h-317z" />
    <glyph glyph-name="uniFB02" unicode="fl" horiz-adv-x="1145" 
d="M35 647v236h110v364q0 123 64.5 198t193.5 75h166v-267h-51q-40 0 -52 -69q-3 -17 -3 -31v-270h117v-236h-117v-647h-318v647h-110zM725 0v1495h317v-1495h-317z" />
    <glyph glyph-name="uniFB03" unicode="ffi" horiz-adv-x="1729" 
d="M35 647v236h110v364q0 123 64.5 198t193.5 75h166v-267h-51q-40 0 -52 -69q-3 -17 -3 -31v-270h117v-236h-117v-647h-318v647h-110zM618 647v236h111v364q0 123 64.5 198t193.5 75h166v-267h-51q-40 0 -52 -69q-3 -17 -3 -31v-270h116v-236h-116v-647h-318v647h-111z
M1309 0v883h317v-883h-317zM1309 1026v291h317v-291h-317z" />
    <glyph glyph-name="uniFB04" unicode="ffl" horiz-adv-x="1729" 
d="M35 647v236h110v364q0 123 64.5 198t193.5 75h166v-267h-51q-40 0 -52 -69q-3 -17 -3 -31v-270h117v-236h-117v-647h-318v647h-110zM618 647v236h111v364q0 123 64.5 198t193.5 75h166v-267h-51q-40 0 -52 -69q-3 -17 -3 -31v-270h116v-236h-116v-647h-318v647h-111z
M1309 0v1495h317v-1495h-317z" />
    <glyph glyph-name=".notdef" horiz-adv-x="1024" 
 />
    <glyph glyph-name="glyph1" 
 />
    <glyph glyph-name="glyph2" horiz-adv-x="682" 
 />
    <glyph glyph-name="space" unicode=" " horiz-adv-x="461" 
 />
    <glyph glyph-name="exclam" unicode="!" horiz-adv-x="627" 
d="M154 0v299h319v-299h-319zM154 944v551h319v-551l-47 -534h-225z" />
    <glyph glyph-name="quotedbl" unicode="&#x22;" horiz-adv-x="922" 
d="M102 1194v301h295v-301l-55 -287h-184zM524 1194v301h295v-301l-55 -287h-184z" />
    <glyph glyph-name="numbersign" unicode="#" horiz-adv-x="1405" 
d="M123 383v227h194l25 281h-219v227h239l33 377h256l-33 -377h234l33 377h256l-33 -377h174v-227h-195l-24 -281h219v-227h-240l-32 -383h-256l32 383h-233l-33 -383h-256l33 383h-174zM573 610h234l24 281h-233z" />
    <glyph glyph-name="dollar" unicode="$" horiz-adv-x="1407" 
d="M66 272l198 193q64 -66 157 -121t204 -74v375q-236 45 -355 130q-157 111 -157 306q0 182 146 292q140 105 366 122v143h176v-143q244 -24 493 -233l-188 -197q-120 124 -305 160v-320q250 -54 369 -138q161 -114 161 -321q0 -112 -44 -191t-117 -133
q-142 -104 -369 -122v-205h-176v205q-320 27 -559 272zM420 1081q0 -53 57.5 -83.5t147.5 -53.5v285q-205 -18 -205 -148zM801 266q223 33 223 156q0 74 -53 116t-170 70v-342z" />
    <glyph glyph-name="percent" unicode="%" horiz-adv-x="1577" 
d="M76 1133q0 165 89 275q90 112 224 112q136 0 224 -114q85 -110 85 -270q0 -81 -23.5 -152t-65.5 -124q-89 -112 -226 -112q-121 0 -208 95q-99 108 -99 290zM133 0l1022 1495h289l-1022 -1495h-289zM287 1133.5q0 -205.5 96 -205.5q102 0 102 205q0 139 -51 188
q-18 18 -47 18q-100 0 -100 -205.5zM893 360q0 166 89 276q90 112 224 112q138 0 224 -114q86 -113 86 -270q0 -81 -24 -152t-66 -124q-90 -113 -226 -113q-120 0 -208 96q-99 108 -99 289zM1104 360q0 -204 96 -204q103 0 103 204q0 137 -51 188q-19 19 -47.5 19t-48 -17.5
t-30.5 -45.5q-22 -54 -22 -144z" />
    <glyph glyph-name="ampersand" unicode="&#x26;" horiz-adv-x="1413" 
d="M45 426q0 195 181 344q53 43 108 80q-76 90 -103 137q-51 92 -51 177t34 149.5t89 110.5q115 96 279 96q161 0 282 -99q125 -102 125 -258q0 -162 -167 -285q-48 -36 -101 -69l276 -346q71 71 164 180l180 -203q-79 -100 -176 -188l203 -252h-352l-70 86
q-190 -111 -377 -111q-204 0 -360 125q-164 132 -164 326zM360 442q0 -94 79 -154q74 -57 171 -57q82 0 174 58l-297 370q-127 -104 -127 -217zM467 1177q0 -42 32.5 -87.5t71.5 -92.5q62 41 102 83t40 95.5t-37 85t-87 31.5t-86 -36.5t-36 -78.5z" />
    <glyph glyph-name="quotesingle" unicode="'" horiz-adv-x="512" 
d="M102 1194v301h295v-301l-55 -287h-184z" />
    <glyph glyph-name="parenleft" unicode="(" horiz-adv-x="741" 
d="M82 596q0 309 177 570q163 241 417 354v-273q-117 -131 -177.5 -283.5t-60.5 -366.5t54.5 -377t183.5 -312v-275q-289 142 -441.5 385.5t-152.5 577.5z" />
    <glyph glyph-name="parenright" unicode=")" horiz-adv-x="741" 
d="M66 -92q129 149 183 312t54 377t-60.5 366.5t-176.5 283.5v273q256 -117 416 -354q177 -261 177 -582.5t-152.5 -565t-440.5 -385.5v275z" />
    <glyph glyph-name="asterisk" unicode="*" horiz-adv-x="872" 
d="M51 1169l39 123l242 -37l39 240h127l37 -240l241 37l45 -121l-217 -114l107 -215l-103 -78l-174 172l-172 -170l-104 74l108 219z" />
    <glyph glyph-name="plus" unicode="+" horiz-adv-x="1110" 
d="M72 545v266h346v330h274v-330h346v-266h-346v-330h-274v330h-346z" />
    <glyph glyph-name="comma" unicode="," horiz-adv-x="512" 
d="M39 -213q63 96 63 238v284h295v-233q0 -115 -48 -213.5t-116 -190.5z" />
    <glyph glyph-name="hyphen" unicode="-" horiz-adv-x="778" 
d="M82 418v270h614v-270h-614z" />
    <glyph glyph-name="period" unicode="." horiz-adv-x="512" 
d="M102 0v309h308v-309h-308z" />
    <glyph glyph-name="slash" unicode="/" horiz-adv-x="909" 
d="M41 0l520 1495h307l-518 -1495h-309z" />
    <glyph glyph-name="zero" unicode="0" horiz-adv-x="1317" 
d="M53 754q0 338 157 546q165 220 441 220q278 0 441 -220q159 -212 159 -549q0 -167 -41 -309.5t-118 -245.5q-162 -221 -441 -221q-277 0 -441 221q-157 211 -157 558zM393 754q0 -329 130 -454q50 -48 128 -48q260 0 260 502q0 322 -132 443q-50 46 -130 46t-130 -46
t-77 -117q-49 -127 -49 -326z" />
    <glyph glyph-name="one" unicode="1" horiz-adv-x="819" 
d="M41 952v242q142 18 227 77q106 73 172 224h240v-1495h-328v1065q-93 -93 -311 -113z" />
    <glyph glyph-name="two" unicode="2" horiz-adv-x="1188" 
d="M47 0l629 850q72 101 83 169q5 30 5 83t-43 102t-117 49q-209 0 -209 -209v-32h-307v32q0 227 158 358q141 118 358 118q207 0 344 -109q144 -115 144 -324q0 -114 -41 -198t-101 -162l-346 -451h475v-276h-1032z" />
    <glyph glyph-name="three" unicode="3" horiz-adv-x="1225" 
d="M33 197l174 204q152 -139 360 -139q103 0 173.5 52.5t70.5 150.5t-72.5 137t-208.5 39h-92v266h129q105 0 156 38t51 122t-60.5 125t-152.5 41t-159.5 -19.5t-133.5 -74.5l-153 215q170 134 345 158q64 8 148 8t174 -29t161 -81q159 -116 159 -292q0 -112 -55.5 -196
t-157.5 -123q117 -33 183.5 -124t66.5 -206t-40 -204t-114 -153q-157 -137 -418 -137q-327 0 -534 222z" />
    <glyph glyph-name="four" unicode="4" horiz-adv-x="1210" 
d="M31 365v192l674 938h262v-885h172v-245h-172v-365h-328v365h-608zM324 610h315v445z" />
    <glyph glyph-name="five" unicode="5" horiz-adv-x="1229" 
d="M61 158l177 221q143 -117 303 -117q105 0 178 75q76 78 76 189q0 119 -75 190q-66 62 -145 62q-169 0 -272 -155l-190 71l82 801h821v-266h-574l-28 -264q63 49 122.5 64t149.5 15t172 -35.5t140 -102.5q124 -143 124 -380q0 -236 -172 -395q-169 -156 -409 -156
q-204 0 -387 113q-54 33 -93 70z" />
    <glyph glyph-name="six" unicode="6" horiz-adv-x="1229" 
d="M45 504q0 298 201 606q150 231 407 442l197 -229q-111 -83 -193 -170q-144 -151 -182 -246q85 70 189 79q34 3 103 3t151.5 -39t144 -104.5t96.5 -153.5t35 -196.5t-43 -204.5t-122 -167q-166 -149 -425 -149q-245 0 -404 153q-155 150 -155 376zM373 493.5
q0 -108.5 66.5 -180t178 -71.5t180 71.5t68.5 178t-69.5 176t-179 69.5t-177 -67.5t-67.5 -176z" />
    <glyph glyph-name="seven" unicode="7" horiz-adv-x="1208" 
d="M119 1219v276h1050l-680 -1495h-344l600 1219h-626z" />
    <glyph glyph-name="eight" unicode="8" horiz-adv-x="1303" 
d="M61 432q0 253 265 373q-86 53 -138.5 117.5t-52.5 171.5q0 192 133 309t383 117t386.5 -117t136.5 -309q0 -107 -47.5 -171.5t-133.5 -117.5q121 -55 184.5 -147.5t63.5 -219.5t-45 -207.5t-125 -136.5q-168 -119 -420 -119q-257 0 -419 121q-171 128 -171 336zM379 461
q0 -98 84 -160q79 -59 188 -59q110 0 189 59q84 62 84 160t-84 155q-76 52 -189 52q-112 0 -188 -52q-84 -57 -84 -155zM442 1090q0 -82 61.5 -129.5t147.5 -47.5t150.5 47.5t64.5 129t-64 128t-151 46.5q-85 0 -145 -44q-64 -48 -64 -130z" />
    <glyph glyph-name="nine" unicode="9" horiz-adv-x="1229" 
d="M33 991q0 231 165 380q164 149 425 149q244 0 403 -153q156 -150 156 -375q0 -111 -31 -220.5t-81 -212t-113.5 -197t-130.5 -174.5q-139 -163 -253 -245l-196 229q113 84 194 170q144 154 181 246q-91 -70 -190 -79q-34 -3 -102.5 -3t-151.5 38t-144 104
q-131 142 -131 343zM360 997q0 -101 72 -171q69 -68 178 -68t176.5 67.5t67.5 176t-66.5 180t-178 71.5t-180.5 -71.5t-69 -184.5z" />
    <glyph glyph-name="colon" unicode=":" horiz-adv-x="512" 
d="M102 0v309h308v-309h-308zM102 573v310h308v-310h-308z" />
    <glyph glyph-name="semicolon" unicode=";" horiz-adv-x="512" 
d="M39 -213q63 96 63 238v284h295v-233q0 -115 -48 -213.5t-116 -190.5zM102 573v310h308v-310h-308z" />
    <glyph glyph-name="less" unicode="&#x3c;" horiz-adv-x="799" 
d="M78 526v277l596 405v-317l-361 -225l361 -228v-321z" />
    <glyph glyph-name="equal" unicode="=" horiz-adv-x="1069" 
d="M113 303v266h843v-266h-843zM113 795v266h843v-266h-843z" />
    <glyph glyph-name="greater" unicode="&#x3e;" horiz-adv-x="799" 
d="M125 123v317l360 226l-360 227v321l596 -409v-277z" />
    <glyph glyph-name="question" unicode="?" horiz-adv-x="942" 
d="M31 1354q158 166 395 166q199 0 330 -106q129 -105 129 -277q0 -145 -128 -309q-36 -46 -84 -104q-122 -147 -122 -278v-47h-295v47q0 183 139 361q31 41 61.5 79t55.5 74q55 81 55 143t-41 110.5t-110.5 48.5t-119.5 -34t-97 -81zM244 0v299h319v-299h-319z" />
    <glyph glyph-name="at" unicode="@" horiz-adv-x="1729" 
d="M92 747.5q0 159.5 60.5 300t166 246t246 166t307 60.5t310 -55.5t244.5 -152.5q210 -205 210 -503q0 -235 -141 -381q-59 -61 -123.5 -90t-109.5 -29q-153 0 -218 92q-126 -92 -266 -92q-152 0 -238 84q-81 79 -81 203q0 144 133 230q124 81 330 81h116q0 78 -36.5 103.5
t-159.5 25.5t-230 -47l-63 166q57 35 123 46q121 20 184 20q393 0 393 -254v-471q0 -47 49 -47q78 0 140 86q75 102 75 244.5t-45 250t-129 186.5q-182 173 -473 173q-268 0 -456 -186q-189 -187 -189 -464q0 -275 189 -460q88 -86 205.5 -135.5t257 -49.5t253.5 56l50 -107
q-150 -68 -310.5 -68t-301 60.5t-246 166t-166 246t-60.5 300zM678 605q0 -54 33.5 -79.5t138 -25.5t184.5 69v160h-106q-123 0 -186.5 -35t-63.5 -89z" />
    <glyph glyph-name="A" unicode="A" horiz-adv-x="1454" 
d="M31 0l534 1495h316l542 -1495h-360l-115 377h-454l-117 -377h-346zM580 653h286l-110 365q-27 86 -33 119q-2 -4 -11.5 -42t-19.5 -77z" />
    <glyph glyph-name="B" unicode="B" horiz-adv-x="1352" 
d="M154 0v1495h518q236 0 378 -107t142 -294q0 -113 -63.5 -198t-161.5 -122q134 -21 216 -120q87 -104 87 -248q0 -82 -39 -161t-109 -133q-145 -112 -401 -112h-567zM481 276h240q117 0 164 44.5t47 121.5q0 154 -211 154h-240v-320zM481 872h160q229 0 229 183
q0 94 -59 129t-170 35h-160v-347z" />
    <glyph glyph-name="C" unicode="C" horiz-adv-x="1475" 
d="M82 756q0 168 59.5 308t162 241.5t240.5 158t300 56.5t290 -51.5t244 -170.5l-184 -215q-150 150 -354 150q-190 0 -306 -135q-114 -133 -114 -353.5t108.5 -351.5t317.5 -131q176 0 303 104q37 31 74 66l188 -215q-223 -242 -553 -242q-182 0 -323.5 54.5t-241.5 156.5
q-211 214 -211 570z" />
    <glyph glyph-name="D" unicode="D" horiz-adv-x="1466" 
d="M154 0v1495h452q336 0 550 -191q228 -205 228 -556q0 -183 -65.5 -323t-174.5 -235q-218 -190 -538 -190h-452zM481 276h125q200 0 324 142q117 133 117 334q0 96 -32 182t-91 148q-127 137 -318 137h-125v-943z" />
    <glyph glyph-name="E" unicode="E" horiz-adv-x="1171" 
d="M154 0v1495h870v-276h-543v-351h504v-276h-504v-316h574v-276h-901z" />
    <glyph glyph-name="F" unicode="F" horiz-adv-x="1067" 
d="M154 0v1495h800v-276h-473v-357h443v-276h-443v-586h-327z" />
    <glyph glyph-name="G" unicode="G" horiz-adv-x="1649" 
d="M82 754q0 339 224 556q104 101 242 155.5t315 54.5t317.5 -69t238.5 -175l-202 -199q-144 156 -375 156q-184 0 -312 -143q-124 -139 -124 -336q0 -203 124 -344q131 -148 318 -148q283 0 369 215h-381v277h743q0 -358 -213 -574q-201 -205 -518 -205q-166 0 -307.5 56.5
t-242.5 160.5q-216 221 -216 562z" />
    <glyph glyph-name="H" unicode="H" horiz-adv-x="1483" 
d="M154 0v1495h327v-621h520v621h328v-1495h-328v598h-520v-598h-327z" />
    <glyph glyph-name="I" unicode="I" horiz-adv-x="635" 
d="M154 0v1495h327v-1495h-327z" />
    <glyph glyph-name="J" unicode="J" horiz-adv-x="883" 
d="M72 0v281h104q117 0 176.5 61t59.5 205v948h327v-1022q0 -204 -147 -341q-144 -132 -350 -132h-170z" />
    <glyph glyph-name="K" unicode="K" horiz-adv-x="1458" 
d="M154 0v1495h327v-543l484 543h405l-582 -637l611 -858h-398l-436 612l-84 -92v-520h-327z" />
    <glyph glyph-name="L" unicode="L" horiz-adv-x="1085" 
d="M154 0v1495h327v-1219h533v-276h-860z" />
    <glyph glyph-name="M" unicode="M" horiz-adv-x="1802" 
d="M154 0v1495h321l404 -729q10 -21 18 -42.5t10 -25.5q0 11 27 68l381 729h334v-1495h-328v862q0 91 6 103q-2 -4 -9 -22.5t-18 -35.5l-333 -612h-125l-340 612q-20 34 -27 58l6 -103v-862h-327z" />
    <glyph glyph-name="N" unicode="N" horiz-adv-x="1610" 
d="M154 0v1495h282l660 -862q16 -21 25 -39.5t12 -22.5l-5 76v848h328v-1495h-282l-660 870q-28 42 -37 60l4 -74v-856h-327z" />
    <glyph glyph-name="O" unicode="O" horiz-adv-x="1704" 
d="M82 754.5q0 160.5 55.5 300t156.5 243t243.5 163t316.5 59.5q346 0 559 -216q100 -102 154.5 -243t54.5 -305t-55.5 -306.5t-156.5 -248t-243.5 -166t-316.5 -60.5t-315.5 61.5t-241.5 168t-155.5 248t-55.5 302zM420 754q0 -205 128 -350q125 -142 302 -142
q194 0 318 150q116 141 116 344q0 96 -30.5 183t-87.5 153q-122 141 -312 141q-187 0 -314 -147q-120 -139 -120 -332z" />
    <glyph glyph-name="P" unicode="P" horiz-adv-x="1247" 
d="M154 0v1495h495q254 0 399 -115q148 -120 148 -326q0 -106 -38 -191t-108 -145q-144 -124 -401 -124h-168v-594h-327zM481 870h168q219 0 219 179q0 92 -54 131t-165 39h-168v-349z" />
    <glyph glyph-name="Q" unicode="Q" horiz-adv-x="1704" 
d="M82 754.5q0 160.5 55.5 300t156.5 243t243.5 163t316.5 59.5q346 0 559 -216q209 -213 209 -550q0 -269 -149 -475q98 -59 165 -76l-133 -240q-84 26 -229 131q-188 -119 -426 -119q-174 0 -315.5 61.5t-241.5 168t-155.5 248t-55.5 302zM420 754q0 -199 128 -346
q58 -68 137 -107t175 -39t184 47q-45 56 -69 101l174 159q16 -23 70 -82q65 121 65 241t-30.5 206t-87.5 152q-127 147 -312 147q-187 0 -314 -147q-120 -139 -120 -332z" />
    <glyph glyph-name="R" unicode="R" horiz-adv-x="1329" 
d="M154 0v1495h536q229 0 375 -127q139 -121 139 -304t-93 -290.5t-241 -148.5l398 -625h-371l-416 707v-707h-327zM481 858h209q86 0 136.5 51.5t50.5 134t-54.5 129t-132.5 46.5h-209v-361z" />
    <glyph glyph-name="S" unicode="S" horiz-adv-x="1214" 
d="M80 162l170 229q65 -53 155.5 -91t192.5 -38t141 37t39 98.5t-44 101.5t-107.5 69.5t-131 54t-118.5 53.5t-100.5 63.5t-86.5 82.5q-77 102 -77 241t46 221t121 134q146 102 365 102q107 0 223.5 -31t208.5 -98l-147 -244q-49 37 -126 61.5t-146.5 24.5t-108.5 -14.5
t-63 -36.5q-46 -39 -46 -92.5t33 -88t85 -62.5t116.5 -51.5t125 -50t114 -59.5t96.5 -81q96 -107 96 -273q0 -213 -140.5 -331t-383.5 -118q-156 0 -275 51.5t-227 135.5z" />
    <glyph glyph-name="T" unicode="T" horiz-adv-x="1057" 
d="M72 1219v276h913v-276h-289v-1219h-327v1219h-297z" />
    <glyph glyph-name="U" unicode="U" horiz-adv-x="1581" 
d="M143 606v889h330v-889q0 -156 87 -251q89 -97 222 -97q139 0 234 97q96 98 96 251v889h326v-889q0 -294 -197 -469q-182 -162 -459 -162q-270 0 -448 162q-191 174 -191 469z" />
    <glyph glyph-name="V" unicode="V" horiz-adv-x="1352" 
d="M31 1495h336l290 -954q5 -17 9 -31t8 -27.5t6 -25.5q4 14 9 33.5t16 50.5l288 954h328l-487 -1495h-314z" />
    <glyph glyph-name="W" unicode="W" horiz-adv-x="1954" 
d="M72 1495h340l192 -799q10 -55 16.5 -92t8.5 -65q2 26 6 51.5t8 54.5t8 51l164 799h326l176 -799q4 -18 7 -45.5t7 -54.5t8 -57q2 28 6.5 55t8.5 53.5t10 48.5l186 799h332l-393 -1495h-318l-161 786q-31 163 -31 232q0 -6 -4 -35t-8 -65q-8 -75 -19 -132l-162 -786h-327z
" />
    <glyph glyph-name="X" unicode="X" horiz-adv-x="1432" 
d="M49 0l479 815l-405 680h362l228 -391l215 391h366l-401 -680l489 -815h-366l-303 528l-299 -528h-365z" />
    <glyph glyph-name="Y" unicode="Y" horiz-adv-x="1413" 
d="M31 1495h372l275 -518q7 -14 15.5 -41t13.5 -39q2 12 8 31.5t20 48.5l273 518h374l-516 -889v-606h-327v606z" />
    <glyph glyph-name="Z" unicode="Z" horiz-adv-x="1352" 
d="M59 0l689 1219h-615v276h1122l-688 -1219h672v-276h-1180z" />
    <glyph glyph-name="bracketleft" unicode="[" horiz-adv-x="748" 
d="M154 -367v1862h532v-274h-221v-1313h221v-275h-532z" />
    <glyph glyph-name="backslash" unicode="\" horiz-adv-x="909" 
d="M41 1495h307l520 -1495h-309z" />
    <glyph glyph-name="bracketright" unicode="]" horiz-adv-x="748" 
d="M61 -92h222v1313h-222v274h533v-1862h-533v275z" />
    <glyph glyph-name="asciicircum" unicode="^" horiz-adv-x="1194" 
d="M61 756l375 739h318l379 -739h-322l-217 463l-215 -463h-318z" />
    <glyph glyph-name="underscore" unicode="_" horiz-adv-x="1024" 
d="M0 -129h1024v-225h-1024v225z" />
    <glyph glyph-name="grave" unicode="`" horiz-adv-x="1024" 
d="M250 1356h293l157 -342h-227z" />
    <glyph glyph-name="a" unicode="a" horiz-adv-x="1083" 
d="M45 240q0 112 57.5 176.5t147.5 101.5q151 62 420 72v31q0 47 -32 64t-99 17q-166 0 -316 -75l-98 190q162 90 402.5 90t350 -78.5t109.5 -267.5v-561h-317v68q-86 -58 -126 -70q-77 -23 -160 -23t-141.5 19.5t-102.5 55.5q-95 78 -95 190zM383 281.5q0 -37.5 31.5 -59
t70.5 -21.5q115 0 185 63v148q-192 0 -262 -68q-25 -25 -25 -62.5z" />
    <glyph glyph-name="b" unicode="b" horiz-adv-x="1151" 
d="M102 0v1495h318v-702q37 53 111.5 83.5t160.5 30.5t163 -39t131 -103.5t84 -149.5t30 -176t-30 -176t-84 -149q-119 -139 -300 -139q-80 0 -154.5 31t-111.5 84v-90h-318zM420 443.5q0 -91.5 49 -149.5t130 -58t132 58t51 150.5t-51 147.5t-131 55t-130 -56t-50 -147.5z
" />
    <glyph glyph-name="c" unicode="c" horiz-adv-x="946" 
d="M51 438q0 195 137 332t349 137q221 0 358 -164l-182 -170q-76 82 -169 82t-145.5 -61.5t-52.5 -155.5q0 -84 52 -146q57 -67 128.5 -67t109.5 23.5t75 66.5l213 -149q-80 -100 -169 -145.5t-206 -45.5t-206 36t-153 97q-139 133 -139 330z" />
    <glyph glyph-name="d" unicode="d" horiz-adv-x="1151" 
d="M51 440q0 188 114 324q119 143 300 143q80 0 154.5 -30.5t111.5 -83.5v702h318v-1495h-318v90q-37 -53 -111.5 -84t-160.5 -31t-163 38t-131 101q-114 135 -114 326zM369 444.5q0 -92.5 51 -150.5t132 -58t130 58t49 149.5t-50 147.5t-130 56t-131 -55t-51 -147.5z" />
    <glyph glyph-name="e" unicode="e" horiz-adv-x="1032" 
d="M51 449q0 211 129 339q122 119 316 119q213 0 340 -139q131 -142 131 -381h-619q8 -78 56.5 -132t147.5 -54t165.5 23.5t124.5 70.5l135 -172q-100 -84 -204.5 -116t-213 -32t-199 27t-158.5 84q-151 125 -151 363zM350 555h291q-6 68 -46 107.5t-105.5 39.5t-96.5 -42
t-43 -105z" />
    <glyph glyph-name="f" unicode="f" horiz-adv-x="623" 
d="M35 647v236h110v364q0 123 64.5 198t193.5 75h166v-267h-51q-55 0 -55 -100v-270h117v-236h-117v-647h-318v647h-110z" />
    <glyph glyph-name="g" unicode="g" horiz-adv-x="1151" 
d="M51 442q0 193 114 326q119 139 300 139q80 0 154.5 -30.5t111.5 -83.5v90h318v-865q0 -200 -129 -304.5t-351 -104.5q-137 0 -251.5 32.5t-174.5 67.5l103 209q121 -72 303 -72q106 0 144 48.5t38 113.5v92q-35 -43 -102.5 -78.5t-161.5 -35.5t-171 36.5t-131 99.5
q-114 135 -114 320zM369 438q0 -92 51 -147t131 -55t130 56t50 147t-49 149.5t-130 58.5t-132 -58.5t-51 -150.5z" />
    <glyph glyph-name="h" unicode="h" horiz-adv-x="1104" 
d="M102 0v1495h318v-704q85 116 254 116q167 0 256 -109q78 -95 78 -268v-530h-318v455q0 90 -26.5 138t-97 48t-108.5 -47t-38 -129v-465h-318z" />
    <glyph glyph-name="i" unicode="i" horiz-adv-x="522" 
d="M102 0v883h318v-883h-318zM102 1026v291h318v-291h-318z" />
    <glyph glyph-name="j" unicode="j" horiz-adv-x="522" 
d="M-31 -100h78q33 0 44 26.5t11 73.5v883h318v-977q0 -123 -64.5 -198t-193.5 -75h-193v267zM102 1026v291h318v-291h-318z" />
    <glyph glyph-name="k" unicode="k" horiz-adv-x="1114" 
d="M102 0v1495h318v-956l317 344h355l-359 -377l338 -506h-377l-184 281l-90 -97v-184h-318z" />
    <glyph glyph-name="l" unicode="l" horiz-adv-x="522" 
d="M102 0v1495h318v-1495h-318z" />
    <glyph glyph-name="m" unicode="m" horiz-adv-x="1651" 
d="M102 0v883h318v-92q80 116 253.5 116t260.5 -145q47 59 116.5 102t169 43t162 -29.5t100.5 -79.5q72 -95 72 -268v-530h-317v455q0 90 -21.5 138t-93.5 48q-135 0 -135 -176v-465h-317v455q0 90 -21.5 138t-95.5 48q-133 0 -133 -176v-465h-318z" />
    <glyph glyph-name="n" unicode="n" horiz-adv-x="1104" 
d="M102 0v883h318v-92q85 116 254 116q167 0 256 -109q78 -95 78 -268v-530h-318v455q0 90 -26.5 138t-97 48t-108.5 -47t-38 -129v-465h-318z" />
    <glyph glyph-name="o" unicode="o" horiz-adv-x="1055" 
d="M51 442q0 193 143 332q137 133 332 133q198 0 336 -131q142 -132 142 -330q0 -100 -39 -186t-103 -148q-141 -137 -334 -137q-197 0 -336 133q-141 135 -141 334zM360 464q0 -61 10.5 -98.5t31.5 -68.5q49 -70 126 -70q79 0 126 70q40 61 40 147q0 37 -10 75t-30 67
q-48 69 -128 69q-75 0 -124 -69q-42 -61 -42 -122z" />
    <glyph glyph-name="p" unicode="p" horiz-adv-x="1151" 
d="M102 -367v1250h318v-90q37 53 111.5 83.5t160.5 30.5t163 -38t131 -101t84 -148t30 -176.5t-30 -176.5t-84 -149q-119 -143 -300 -143q-80 0 -154.5 31t-111.5 84v-457h-318zM420 439q0 -91 50 -147t130 -56t131 55t51 147t-51 150.5t-132 58.5t-130 -58.5t-49 -149.5z
" />
    <glyph glyph-name="q" unicode="q" horiz-adv-x="1151" 
d="M51 442q0 193 114 326q119 139 300 139q80 0 154.5 -30.5t111.5 -83.5v90h318v-1250h-318v457q-37 -53 -111.5 -84t-160.5 -31t-163 39t-131 104q-114 136 -114 324zM369 438q0 -92 51 -147t131 -55t130 56t50 147t-49 149.5t-130 58.5t-132 -58.5t-51 -150.5z" />
    <glyph glyph-name="r" unicode="r" horiz-adv-x="868" 
d="M102 0v883h318v-117q33 55 92 98t128 43q138 0 222 -84l-155 -268q-41 31 -71 43t-71 12q-78 0 -111.5 -52t-33.5 -124v-434h-318z" />
    <glyph glyph-name="s" unicode="s" horiz-adv-x="848" 
d="M43 76l102 200q127 -75 230.5 -75t103.5 49q0 35 -35.5 55.5t-85 37.5t-98.5 37.5t-91 53.5q-95 75 -95 203q0 196 218 253q68 17 160 17q163 0 312 -82l-90 -196q-104 57 -213 57t-109 -47q0 -23 46 -42t103.5 -40.5t107.5 -45.5t92 -59q96 -78 96 -196
q0 -141 -114 -216q-99 -65 -232 -65q-265 0 -408 101z" />
    <glyph glyph-name="t" unicode="t" horiz-adv-x="705" 
d="M35 647v236h110v366h318v-366h149v-236h-149v-266q0 -51 25.5 -83t72.5 -32h78v-266h-199q-133 0 -214 92t-81 232v323h-110z" />
    <glyph glyph-name="u" unicode="u" horiz-adv-x="1104" 
d="M96 352v531h318v-455q0 -90 26.5 -138t97 -48t108.5 47t38 129v465h317v-883h-317v92q-85 -117 -254 -117q-166 0 -256 110q-78 95 -78 267z" />
    <glyph glyph-name="v" unicode="v" horiz-adv-x="1044" 
d="M20 883h338l142 -363q10 -31 17 -67.5t9 -44.5q0 11 6.5 35t11.5 42.5t11 34.5l141 363h328l-389 -883h-217z" />
    <glyph glyph-name="w" unicode="w" horiz-adv-x="1556" 
d="M20 883h330l166 -441l16 -55q0 17 19 55l235 514l236 -514q4 -10 7 -20t6 -18.5t5 -18.5q2 8 5.5 23.5t9.5 33.5l162 441h319l-358 -883h-197l-168 332q-10 16 -15 37.5t-7 29.5q-3 -4 -10 -27.5t-15 -41.5l-168 -330h-199z" />
    <glyph glyph-name="x" unicode="x" horiz-adv-x="995" 
d="M25 0l305 453l-273 430h336l76 -138l33 -65q0 9 30 65l70 138h340l-276 -432l305 -451h-340l-90 150q-4 8 -11.5 20t-15.5 26.5t-18 32.5q-9 -12 -16 -25q-12 -24 -29 -52l-93 -152h-333z" />
    <glyph glyph-name="y" unicode="y" horiz-adv-x="987" 
d="M20 883h334l121 -402q18 -59 29 -110q2 16 7 33.5t10 37t11 39.5l105 402h330l-371 -1080q-31 -88 -89 -141t-163 -53h-184v260h67q47 0 84 24.5t37 59.5q0 57 -24 127z" />
    <glyph glyph-name="z" unicode="z" horiz-adv-x="973" 
d="M18 0l400 592q15 25 37 47q-9 -2 -17 -2h-360v246h866l-391 -590q-6 -8 -12 -16.5t-13.5 -16.5t-13.5 -18q10 0 21 2l40 2h318v-246h-875z" />
    <glyph glyph-name="braceleft" unicode="{" horiz-adv-x="717" 
d="M41 457v237q106 15 139 83q25 50 25 196q0 227 117.5 368.5t345.5 178.5v-246q-76 -58 -97 -100q-39 -73 -39 -164.5t-5 -156.5t-25 -116q-39 -105 -158 -162q120 -60 158 -161q30 -78 30 -262q0 -100 25 -147.5t50.5 -73t60.5 -52.5v-246q-228 37 -345.5 178.5
t-117.5 368.5q0 144 -20.5 186t-53.5 62.5t-90 28.5z" />
    <glyph glyph-name="bar" unicode="|" horiz-adv-x="578" 
d="M133 -367v1862h311v-1862h-311z" />
    <glyph glyph-name="braceright" unicode="}" horiz-adv-x="717" 
d="M49 -121q76 58 97 100q38 72 38 163t5.5 157t24.5 117q39 104 159 162q-121 59 -159 162q-30 81 -30 261q0 101 -24.5 148t-50 72.5t-60.5 52.5v246q227 -37 345 -178.5t118 -368.5q0 -144 20.5 -186t53 -62t90.5 -29v-237q-107 -18 -140 -85q-24 -50 -24 -194
q0 -227 -118 -368.5t-345 -178.5v246z" />
    <glyph glyph-name="asciitilde" unicode="~" horiz-adv-x="1147" 
d="M82 532q0 183 62 306q71 137 210 137q103 0 221 -78q52 -31 92 -58.5t66 -27.5q58 0 58 160h274q0 -181 -65 -307q-73 -138 -207 -138q-125 0 -312 134q-41 30 -67 30q-58 0 -58 -158h-274z" />
    <glyph glyph-name="exclamdown" unicode="&#xa1;" horiz-adv-x="627" 
d="M154 0v551l47 534h225l47 -534v-551h-319zM154 1196v299h319v-299h-319z" />
    <glyph glyph-name="cent" unicode="&#xa2;" horiz-adv-x="952" 
d="M51 438q0 184 125 318q130 137 320 149v109h98v-109q184 -20 301 -162l-182 -170q-51 58 -119 74v-416q57 18 117 84l213 -149q-72 -88 -149 -133t-181 -56v-139h-98v139q-194 14 -320 143q-125 130 -125 318zM346 443.5q0 -76.5 40 -137t110 -77.5v422
q-68 -16 -109 -73.5t-41 -134z" />
    <glyph glyph-name="sterling" unicode="&#xa3;" horiz-adv-x="1546" 
d="M88 221q0 115 93 183q87 63 206 63q139 0 219 -29q-14 74 -86 160h-373v92h289q-61 70 -88 101h-201v92h140q-64 117 -64 229.5t49.5 185t127.5 121.5q162 101 376 101q251 0 406 -109q170 -120 170 -348h-332q0 111 -68.5 161t-175.5 50q-79 0 -148 -52
q-67 -53 -67 -120.5t27.5 -118.5t68.5 -100h439v-92h-361q43 -50 74 -101h287v-92h-240q41 -112 41 -242v-10q47 -22 88 -37.5t90 -15.5q86 0 86 82v63h277v-121q0 -157 -72 -249.5t-180.5 -92.5t-200.5 42t-182 96q-130 -138 -379 -138q-128 0 -228 64q-108 69 -108 182z
M297 221q0 -41 37 -57.5t87 -16.5t94 26t69 71q-107 57 -185 57q-102 0 -102 -80z" />
    <glyph glyph-name="currency" unicode="&#xa4;" horiz-adv-x="1337" 
d="M35 608v92h178q-2 50 0 101h-178v92h184q29 285 175 451q155 176 401 176q174 0 298 -81t195 -229l-250 -141q-97 178 -237 178q-180 0 -233 -217q-15 -65 -21 -137h371v-92h-377q-2 -51 0 -101h377v-92h-371q42 -360 248 -360q96 0 156.5 53t107.5 135l237 -143
q-86 -166 -207.5 -242t-273 -76t-253 46.5t-172.5 130.5q-142 169 -171 456h-184z" />
    <glyph glyph-name="yen" unicode="&#xa5;" horiz-adv-x="1413" 
d="M31 1495h372l275 -518q10 -23 18.5 -49.5t10.5 -30.5q0 26 28 80l273 518h374l-512 -879h293v-157h-297v-125h297v-158h-297v-176h-327v176h-293v158h293v125h-293v157h286z" />
    <glyph glyph-name="brokenbar" unicode="&#xa6;" horiz-adv-x="578" 
d="M133 -367v777h311v-777h-311zM133 719v776h311v-776h-311z" />
    <glyph glyph-name="section" unicode="&#xa7;" horiz-adv-x="1462" 
d="M92 547q0 210 223 350q-84 88 -84 242q0 169 139 275t351 106q299 0 526 -156l-151 -246q-176 125 -387 125q-82 0 -120 -25.5t-38 -53t5 -44t22 -30.5q34 -28 131 -56l301 -84q161 -45 260.5 -131t99.5 -237q0 -211 -223 -351q84 -88 84 -241q0 -170 -139 -276
q-138 -105 -351 -105q-243 0 -419 92q-56 29 -107 63l152 246q174 -125 387 -125q82 0 119.5 26t37.5 53.5t-5 44t-22 30.5q-38 30 -130 55l-301 84q-162 45 -261.5 131t-99.5 238zM410 598q0 -65 44 -98t171 -68l274 -76q154 99 154 174q0 64 -45 98q-47 36 -170 68
l-275 76q-153 -100 -153 -174z" />
    <glyph glyph-name="dieresis" unicode="&#xa8;" horiz-adv-x="1024" 
d="M164 1014v266h258v-266h-258zM602 1014v266h258v-266h-258z" />
    <glyph glyph-name="copyright" unicode="&#xa9;" horiz-adv-x="1729" 
d="M92 747.5q0 159.5 60.5 300t166 246t246 166t300 60.5t300 -60.5t246 -166t165.5 -246t60 -300t-60 -300t-165.5 -246t-246 -166t-300 -60.5t-300 60.5t-246 166t-166 246t-60.5 300zM217 745q0 -265 189 -456q188 -189 458 -189q135 0 253 50.5t205 138.5t138 204.5
t51 252t-51 253t-138 204.5t-205 138.5t-253 51.5t-252.5 -51.5t-205.5 -138.5q-189 -188 -189 -458zM428 768q0 183 125 314q130 135 319 135q218 0 332 -142l-143 -133q-41 39 -78 55.5t-101.5 16.5t-109.5 -21.5t-74 -57.5q-61 -74 -61 -151t20.5 -128.5t52.5 -88.5
q66 -75 152 -75t132 20t89 70l140 -125q-54 -72 -145 -120t-191.5 -48t-179 31.5t-141.5 93.5q-138 136 -138 354z" />
    <glyph glyph-name="ordfeminine" unicode="&#xaa;" horiz-adv-x="924" 
d="M129 522v166h643v-166h-643zM129 1012q0 78 28.5 124t78.5 78q101 64 262 64h102q0 51 -29.5 70.5t-133.5 19.5t-183 -37l-53 137q91 52 245 52q326 0 326 -224v-477h-176v49q-90 -69 -216 -69t-188.5 67.5t-62.5 145.5zM311 1028q0 -72 115 -72q53 0 88 11.5t82 44.5
v118h-109q-176 0 -176 -102z" />
    <glyph glyph-name="guillemotleft" unicode="&#xab;" horiz-adv-x="922" 
d="M82 311v279l311 227v-268l-133 -98l133 -99v-268zM508 311v279l311 227v-268l-133 -98l133 -99v-268z" />
    <glyph glyph-name="logicalnot" unicode="&#xac;" horiz-adv-x="1110" 
d="M72 545v266h966v-596h-274v330h-692z" />
    <glyph glyph-name="registered" unicode="&#xae;" horiz-adv-x="1729" 
d="M92 747.5q0 159.5 60.5 300t166 246t246 166t300 60.5t300 -60.5t246 -166t165.5 -246t60 -300t-60 -300t-165.5 -246t-246 -166t-300 -60.5t-300 60.5t-246 166t-166 246t-60.5 300zM217 745q0 -265 189 -456q188 -189 458 -189q135 0 253 50.5t205 138.5t138 204.5
t51 252t-51 253t-138 204.5t-205 138.5t-253 51.5t-252.5 -51.5t-205.5 -138.5q-189 -188 -189 -458zM573 317v897h353q126 0 206 -76q80 -77 80 -186.5t-56 -177t-148 -84.5l249 -373h-235l-244 390v-390h-205zM778 821h107q53 0 86 32t33 85t-33 79.5t-82 26.5h-111v-223z
" />
    <glyph glyph-name="macron" unicode="&#xaf;" horiz-adv-x="1024" 
d="M205 1075v135h614v-135h-614z" />
    <glyph glyph-name="degree" unicode="&#xb0;" horiz-adv-x="872" 
d="M51 1135q0 159 112 271q114 114 273 114q156 0 272 -114q113 -112 113 -272q0 -79 -30.5 -150t-82.5 -123q-113 -111 -272 -111q-162 0 -273 111q-112 112 -112 274zM244 1135q0 -80 57 -135q59 -58 135 -58q78 0 135.5 57.5t57.5 135.5q0 77 -57.5 134.5t-135.5 57.5
q-76 0 -135 -57q-57 -56 -57 -135z" />
    <glyph glyph-name="plusminus" unicode="&#xb1;" horiz-adv-x="1729" 
d="M35 647v236h110v364q0 123 64.5 198t193.5 75h166v-267h-51q-40 0 -52 -69q-3 -17 -3 -31v-270h117v-236h-117v-647h-318v647h-110zM618 647v236h111v364q0 123 64.5 198t193.5 75h166v-267h-51q-40 0 -52 -69q-3 -17 -3 -31v-270h116v-236h-116v-647h-318v647h-111z
M1309 0v1495h317v-1495h-317z" />
    <glyph glyph-name="uni00B2" unicode="&#xb2;" horiz-adv-x="938" 
d="M92 592l397 457q54 61 54 129q0 34 -28 64t-75 30q-59 0 -90 -54q-12 -20 -12 -51v-28h-240v37q0 158 104 251q99 89 251 89q169 0 263 -101q83 -89 83 -217q0 -127 -82 -225l-113 -135h189v-246h-701z" />
    <glyph glyph-name="uni00B3" unicode="&#xb3;" horiz-adv-x="866" 
d="M94 651l129 185q79 -70 180 -70q52 0 86.5 26.5t34.5 76t-35.5 68.5t-103.5 19h-47v174h65q52 0 77.5 18.5t25.5 60.5t-31 62.5t-76 20.5q-92 0 -145 -47l-119 191q105 82 283 82q145 0 244 -81q100 -81 100 -202q0 -66 -39 -116t-78 -64q51 -17 93 -72t42 -127
t-22.5 -127t-68.5 -97q-100 -91 -286 -91q-139 0 -249 65q-35 21 -60 45z" />
    <glyph glyph-name="acute" unicode="&#xb4;" horiz-adv-x="1024" 
d="M328 1014l157 342h293l-223 -342h-227z" />
    <glyph glyph-name="mu" unicode="&#xb5;" horiz-adv-x="1151" 
d="M102 -367v1250h318v-482q4 -77 30.5 -118t95 -41t106.5 47t38 129v465h318v-883h-318v92q-85 -117 -254 -117h-16v-342h-318z" />
    <glyph glyph-name="paragraph" unicode="&#xb6;" horiz-adv-x="1618" 
d="M55 952q0 226 147 378q159 165 425 165h837v-1862h-272v1588h-152v-1588h-272v791h-182q-235 0 -388 166q-143 154 -143 362zM367 963.5q0 -117.5 67.5 -191.5t190.5 -74h143v523h-131q-133 0 -201.5 -70t-68.5 -187.5z" />
    <glyph glyph-name="periodcentered" unicode="&#xb7;" horiz-adv-x="512" 
d="M102 565v309h308v-309h-308z" />
    <glyph glyph-name="cedilla" unicode="&#xb8;" horiz-adv-x="1024" 
d="M279 -301l65 88q64 -41 137.5 -41t73.5 55q0 39 -59 39t-86 -10l-43 70l98 129h135l-68 -86q84 4 134.5 -34t50.5 -87t-19.5 -83t-51.5 -57q-66 -49 -142 -49q-127 0 -225 66z" />
    <glyph glyph-name="uni00B9" unicode="&#xb9;" horiz-adv-x="672" 
d="M88 1085v248q91 12 126.5 35t56 51.5t42.5 73.5h215v-922h-284v566q-40 -40 -156 -52z" />
    <glyph glyph-name="ordmasculine" unicode="&#xba;" horiz-adv-x="995" 
d="M137 522v166h719v-166h-719zM137 1165q0 143 97 246q104 109 258 109t262 -106q102 -100 102 -246q0 -74 -27.5 -142t-75.5 -119q-102 -108 -257 -108q-156 0 -255 99q-104 104 -104 267zM330 1157q0 -80 44 -129t125 -49t123 52t42 134t-48.5 129t-122 47t-118.5 -52
t-45 -132z" />
    <glyph glyph-name="guillemotright" unicode="&#xbb;" horiz-adv-x="922" 
d="M102 84v268l134 99l-134 98v268l312 -227v-279zM528 84v268l134 99l-134 98v268l312 -227v-279z" />
    <glyph glyph-name="onequarter" unicode="&#xbc;" horiz-adv-x="2093" 
d="M92 1085v248q91 12 126.5 35t56 51.5t42.5 73.5h211v-922h-280v566q-40 -40 -156 -52zM297 0l1022 1495h305l-1022 -1495h-305zM1231 182v178l358 562h287v-535h86v-205h-86v-182h-266v182h-379zM1444 387h166v252z" />
    <glyph glyph-name="onehalf" unicode="&#xbd;" horiz-adv-x="2077" 
d="M92 1085v248q91 12 126.5 35t56 51.5t42.5 73.5h211v-922h-280v566q-40 -40 -156 -52zM297 0l1022 1495h305l-1022 -1495h-305zM1243 0l397 457q54 61 54 129q0 35 -28 64.5t-75 29.5q-59 0 -90 -54q-12 -20 -12 -51v-28h-240v37q0 159 104 252q98 88 251 88
q169 0 263 -101q83 -89 83 -217q0 -127 -82 -225l-113 -135h189v-246h-701z" />
    <glyph glyph-name="threequarters" unicode="&#xbe;" horiz-adv-x="2298" 
d="M94 651l129 185q79 -70 180 -70q52 0 86.5 26.5t34.5 76t-35.5 68.5t-103.5 19h-47v174h65q52 0 77.5 18.5t25.5 60.5t-31 62.5t-76 20.5q-92 0 -145 -47l-119 191q105 82 283 82q145 0 244 -81q100 -81 100 -202q0 -66 -39 -116t-78 -64q51 -17 93 -72t42 -127
t-22.5 -127t-68.5 -97q-100 -91 -286 -91q-139 0 -249 65q-35 21 -60 45zM502 0l1022 1495h305l-1022 -1495h-305zM1436 182v178l358 562h287v-535h86v-205h-86v-182h-266v182h-379zM1649 387h166v252z" />
    <glyph glyph-name="questiondown" unicode="&#xbf;" horiz-adv-x="942" 
d="M57 358q0 142 129 309q35 46 83 104q122 147 122 278v47h295v-47q0 -183 -139 -361q-31 -41 -61.5 -79t-55.5 -75q-55 -82 -55 -143t41 -109.5t110.5 -48.5t119.5 34t97 81l168 -207q-156 -166 -395 -166q-199 0 -330 106q-129 105 -129 277zM379 1196v299h319v-299h-319
z" />
    <glyph glyph-name="Agrave" unicode="&#xc0;" horiz-adv-x="1454" 
d="M31 0l534 1495h316l542 -1495h-360l-115 377h-454l-117 -377h-346zM387 1960h293l157 -342h-227zM580 653h286l-110 365q-27 86 -33 119q-2 -4 -11.5 -42t-19.5 -77z" />
    <glyph glyph-name="Aacute" unicode="&#xc1;" horiz-adv-x="1454" 
d="M31 0l534 1495h316l542 -1495h-360l-115 377h-454l-117 -377h-346zM580 653h286l-110 365q-27 86 -33 119q-2 -4 -11.5 -42t-19.5 -77zM615 1618l157 342h293l-223 -342h-227z" />
    <glyph glyph-name="Acircumflex" unicode="&#xc2;" horiz-adv-x="1454" 
d="M31 0l534 1495h316l542 -1495h-360l-115 377h-454l-117 -377h-346zM401 1618l211 301h222l211 -301h-232l-92 143l-92 -143h-228zM580 653h286l-110 365q-27 86 -33 119q-2 -4 -11.5 -42t-19.5 -77z" />
    <glyph glyph-name="Atilde" unicode="&#xc3;" horiz-adv-x="1454" 
d="M31 0l534 1495h316l542 -1495h-360l-115 377h-454l-117 -377h-346zM328 1618q0 116 69.5 185t192.5 69q54 0 115 -28q109 -50 147 -50q84 0 84 74h170q0 -119 -69.5 -186.5t-192.5 -67.5q-53 0 -114 28q-111 49 -148 49q-84 0 -84 -73h-170zM580 653h286l-110 365
q-27 86 -33 119q-2 -4 -11.5 -42t-19.5 -77z" />
    <glyph glyph-name="Adieresis" unicode="&#xc4;" horiz-adv-x="1454" 
d="M31 0l534 1495h316l542 -1495h-360l-115 377h-454l-117 -377h-346zM82 1208v287h258v-287h-258zM580 653h286l-110 365q-27 86 -33 119q-2 -4 -11.5 -42t-19.5 -77zM1106 1208v287h258v-287h-258z" />
    <glyph glyph-name="Aring" unicode="&#xc5;" horiz-adv-x="1454" 
d="M31 0l524 1466q-96 83 -96 201q0 107 78.5 185.5t185.5 78.5q105 0 185 -79q79 -77 79 -190t-96 -196l532 -1466h-360l-115 377h-454l-117 -377h-346zM580 653h286l-110 365q-27 86 -33 119q-2 -4 -11.5 -42t-19.5 -77zM614 1667q0 -47 31 -77.5t78 -30.5t77.5 30.5
t30.5 77.5t-30.5 78t-77.5 31t-78 -31t-31 -78z" />
    <glyph glyph-name="AE" unicode="&#xc6;" horiz-adv-x="1952" 
d="M20 0l775 1495h1009v-276h-542v-351h503v-276h-503v-316h573v-276h-870v387h-416l-201 -387h-328zM676 653h289v568z" />
    <glyph glyph-name="Ccedilla" unicode="&#xc7;" horiz-adv-x="1475" 
d="M82 756q0 168 59.5 308t162 241.5t240.5 158t300 56.5t290 -51.5t244 -170.5l-184 -215q-150 150 -354 150q-190 0 -306 -135q-114 -133 -114 -353.5t108.5 -351.5t317.5 -131q176 0 303 104q37 31 74 66l188 -215q-104 -113 -237.5 -177.5t-325.5 -64.5l-27 -32
q84 4 134.5 -34t50.5 -87t-19.5 -83t-51.5 -57q-66 -49 -142 -49q-128 0 -226 66l66 88q63 -41 137 -41t74 55q0 39 -59 39t-87 -10l-43 70l64 84q-288 36 -463 242q-174 207 -174 530z" />
    <glyph glyph-name="Egrave" unicode="&#xc8;" horiz-adv-x="1171" 
d="M154 0v1495h870v-276h-543v-351h504v-276h-504v-316h574v-276h-901zM289 1960h293l157 -342h-227z" />
    <glyph glyph-name="Eacute" unicode="&#xc9;" horiz-adv-x="1171" 
d="M154 0v1495h870v-276h-543v-351h504v-276h-504v-316h574v-276h-901zM426 1618l157 342h293l-223 -342h-227z" />
    <glyph glyph-name="Ecircumflex" unicode="&#xca;" horiz-adv-x="1171" 
d="M154 0v1495h870v-276h-543v-351h504v-276h-504v-316h574v-276h-901zM260 1618l211 301h222l211 -301h-232l-92 143l-92 -143h-228z" />
    <glyph glyph-name="Edieresis" unicode="&#xcb;" horiz-adv-x="1171" 
d="M154 0v1495h870v-276h-543v-351h504v-276h-504v-316h574v-276h-901zM232 1618v266h258v-266h-258zM670 1618v266h258v-266h-258z" />
    <glyph glyph-name="Igrave" unicode="&#xcc;" horiz-adv-x="635" 
d="M-11 1960h293l157 -342h-227zM154 0v1495h327v-1495h-327z" />
    <glyph glyph-name="Iacute" unicode="&#xcd;" horiz-adv-x="635" 
d="M154 0v1495h327v-1495h-327zM202 1618l157 342h293l-223 -342h-227z" />
    <glyph glyph-name="Icircumflex" unicode="&#xce;" horiz-adv-x="635" 
d="M-4 1618l211 301h222l211 -301h-232l-92 143l-92 -143h-228zM154 0v1495h327v-1495h-327z" />
    <glyph glyph-name="Idieresis" unicode="&#xcf;" horiz-adv-x="635" 
d="M-30 1618v266h258v-266h-258zM154 0v1495h327v-1495h-327zM408 1618v266h258v-266h-258z" />
    <glyph glyph-name="Eth" unicode="&#xd0;" horiz-adv-x="1528" 
d="M51 592v270h164v633h453q335 0 548 -191q230 -206 230 -556q0 -183 -65.5 -323t-174 -234.5t-249 -142.5t-289.5 -48h-453v592h-164zM543 276h125q200 0 324 142q116 132 116 334q0 96 -32 182t-90 148q-127 137 -318 137h-125v-357h225v-270h-225v-316z" />
    <glyph glyph-name="Ntilde" unicode="&#xd1;" horiz-adv-x="1610" 
d="M154 0v1495h282l660 -862q16 -21 25 -39.5t12 -22.5l-5 76v848h328v-1495h-282l-660 870q-28 42 -37 60l4 -74v-856h-327zM404 1618q0 116 69.5 185t192.5 69q54 0 115 -28q109 -50 147 -50q84 0 84 74h170q0 -119 -69.5 -186.5t-192.5 -67.5q-53 0 -114 28
q-111 49 -148 49q-84 0 -84 -73h-170z" />
    <glyph glyph-name="Ograve" unicode="&#xd2;" horiz-adv-x="1704" 
d="M82 754.5q0 160.5 55.5 300t156.5 243t243.5 163t316.5 59.5q346 0 559 -216q100 -102 154.5 -243t54.5 -305t-55.5 -306.5t-156.5 -248t-243.5 -166t-316.5 -60.5t-315.5 61.5t-241.5 168t-155.5 248t-55.5 302zM420 754q0 -205 128 -350q125 -142 302 -142
q194 0 318 150q116 141 116 344q0 96 -30.5 183t-87.5 153q-122 141 -312 141q-187 0 -314 -147q-120 -139 -120 -332zM516 1960h293l157 -342h-227z" />
    <glyph glyph-name="Oacute" unicode="&#xd3;" horiz-adv-x="1704" 
d="M82 754.5q0 160.5 55.5 300t156.5 243t243.5 163t316.5 59.5q346 0 559 -216q100 -102 154.5 -243t54.5 -305t-55.5 -306.5t-156.5 -248t-243.5 -166t-316.5 -60.5t-315.5 61.5t-241.5 168t-155.5 248t-55.5 302zM420 754q0 -205 128 -350q125 -142 302 -142
q194 0 318 150q116 141 116 344q0 96 -30.5 183t-87.5 153q-122 141 -312 141q-187 0 -314 -147q-120 -139 -120 -332zM688 1618l157 342h293l-223 -342h-227z" />
    <glyph glyph-name="Ocircumflex" unicode="&#xd4;" horiz-adv-x="1704" 
d="M82 754.5q0 160.5 55.5 300t156.5 243t243.5 163t316.5 59.5q346 0 559 -216q100 -102 154.5 -243t54.5 -305t-55.5 -306.5t-156.5 -248t-243.5 -166t-316.5 -60.5t-315.5 61.5t-241.5 168t-155.5 248t-55.5 302zM420 754q0 -205 128 -350q125 -142 302 -142
q194 0 318 150q116 141 116 344q0 96 -30.5 183t-87.5 153q-122 141 -312 141q-187 0 -314 -147q-120 -139 -120 -332zM530 1618l211 301h222l211 -301h-232l-92 143l-92 -143h-228z" />
    <glyph glyph-name="Otilde" unicode="&#xd5;" horiz-adv-x="1704" 
d="M82 754.5q0 160.5 55.5 300t156.5 243t243.5 163t316.5 59.5q346 0 559 -216q100 -102 154.5 -243t54.5 -305t-55.5 -306.5t-156.5 -248t-243.5 -166t-316.5 -60.5t-315.5 61.5t-241.5 168t-155.5 248t-55.5 302zM420 754q0 -205 128 -350q125 -142 302 -142
q194 0 318 150q116 141 116 344q0 96 -30.5 183t-87.5 153q-122 141 -312 141q-187 0 -314 -147q-120 -139 -120 -332zM457 1618q0 116 69.5 185t192.5 69q54 0 115 -28q109 -50 147 -50q84 0 84 74h170q0 -119 -69.5 -186.5t-192.5 -67.5q-53 0 -114 28q-111 49 -148 49
q-84 0 -84 -73h-170z" />
    <glyph glyph-name="Odieresis" unicode="&#xd6;" horiz-adv-x="1704" 
d="M82 754q0 269 154 475h-154v266h258v-154q213 179 514 179q304 0 510 -172v147h258v-266h-145q145 -196 145 -475q0 -162 -55.5 -304.5t-156.5 -248t-243.5 -166t-316.5 -60.5t-315.5 61.5t-241.5 168t-155.5 248t-55.5 301.5zM420 754q0 -199 128 -346q58 -68 137 -107
t172 -39t174 41t137.5 109.5t86 157.5t29.5 183.5t-30.5 180.5t-87.5 152q-127 147 -312 147q-187 0 -314 -147q-120 -139 -120 -332z" />
    <glyph glyph-name="multiply" unicode="&#xd7;" horiz-adv-x="1092" 
d="M57 383l295 293l-291 293l193 192l291 -291l291 291l194 -194l-291 -291l293 -293l-192 -195l-293 293l-295 -293z" />
    <glyph glyph-name="Oslash" unicode="&#xd8;" horiz-adv-x="1704" 
d="M82 754q0 326 212 544q101 103 243.5 162.5t316.5 59.5q298 0 504 -168l151 147l125 -110l-159 -156q147 -203 147 -479q0 -162 -55.5 -304.5t-156.5 -248t-243.5 -166t-316.5 -60.5q-281 0 -494 170l-151 -149l-121 115l158 153q-160 207 -160 490zM420 754
q0 -126 63 -254l643 626q-113 107 -272 107q-187 0 -314 -147q-120 -139 -120 -332zM586 369q117 -107 264 -107q194 0 318 150q116 141 116 342q0 127 -57 237z" />
    <glyph glyph-name="Ugrave" unicode="&#xd9;" horiz-adv-x="1581" 
d="M143 606v889h330v-889q0 -156 87 -251q89 -97 222 -97q139 0 234 97q96 98 96 251v889h326v-889q0 -294 -197 -469q-182 -162 -459 -162q-270 0 -448 162q-191 174 -191 469zM490 1940h293l157 -342h-227z" />
    <glyph glyph-name="Uacute" unicode="&#xda;" horiz-adv-x="1581" 
d="M143 606v889h330v-889q0 -156 87 -251q89 -97 222 -97q139 0 234 97q96 98 96 251v889h326v-889q0 -294 -197 -469q-182 -162 -459 -162q-270 0 -448 162q-191 174 -191 469zM645 1598l157 342h293l-223 -342h-227z" />
    <glyph glyph-name="Ucircumflex" unicode="&#xdb;" horiz-adv-x="1581" 
d="M143 606v889h330v-889q0 -156 87 -251q89 -97 222 -97q139 0 234 97q96 98 96 251v889h326v-889q0 -294 -197 -469q-182 -162 -459 -162q-270 0 -448 162q-191 174 -191 469zM471 1618l211 301h222l211 -301h-232l-92 143l-92 -143h-228z" />
    <glyph glyph-name="Udieresis" unicode="&#xdc;" horiz-adv-x="1581" 
d="M143 606v889h330v-889q0 -156 87 -251q89 -97 222 -97q139 0 234 97q96 98 96 251v889h326v-889q0 -294 -197 -469q-182 -162 -459 -162q-270 0 -448 162q-191 174 -191 469zM575 1167v328h166v-328h-166zM844 1167v328h166v-328h-166z" />
    <glyph glyph-name="Yacute" unicode="&#xdd;" horiz-adv-x="1413" 
d="M31 1495h372l275 -518q7 -14 15.5 -41t13.5 -39q2 12 8 31.5t20 48.5l273 518h374l-516 -889v-606h-327v606zM570 1618l157 342h293l-223 -342h-227z" />
    <glyph glyph-name="Thorn" unicode="&#xde;" horiz-adv-x="1247" 
d="M154 0v1495h327v-281h168q254 0 399 -116q148 -119 148 -324q0 -106 -38 -191t-108 -145q-146 -125 -401 -125h-168v-313h-327zM481 590h168q219 0 219 178q0 92 -54 131t-165 39h-168v-348z" />
    <glyph glyph-name="germandbls" unicode="&#xdf;" horiz-adv-x="1133" 
d="M102 0v1133q0 171 138 279q137 108 329 108q195 0 315 -103q122 -104 122 -270q0 -111 -56.5 -189.5t-142.5 -113.5q185 -72 249 -258q25 -70 25 -168.5t-31.5 -180t-88 -140t-136.5 -90.5t-156.5 -32t-142.5 21v248q35 -17 109 -17t105.5 49.5t31.5 120t-14.5 122.5
t-45.5 99q-69 101 -206 132v184q92 0 141 52t49 130q0 152 -135 152q-107 0 -134 -90q-7 -23 -7 -48v-1130h-318z" />
    <glyph glyph-name="agrave" unicode="&#xe0;" horiz-adv-x="1083" 
d="M45 240q0 112 57.5 176.5t147.5 101.5q151 62 420 72v31q0 47 -32 64t-99 17q-166 0 -316 -75l-98 190q162 90 402.5 90t350 -78.5t109.5 -267.5v-561h-317v68q-86 -58 -126 -70q-77 -23 -160 -23t-141.5 19.5t-102.5 55.5q-95 78 -95 190zM243 1356h293l157 -342h-227z
M383 281.5q0 -37.5 31.5 -59t70.5 -21.5q115 0 185 63v148q-192 0 -262 -68q-25 -25 -25 -62.5z" />
    <glyph glyph-name="aacute" unicode="&#xe1;" horiz-adv-x="1083" 
d="M45 240q0 112 57.5 176.5t147.5 101.5q151 62 420 72v31q0 47 -32 64t-99 17q-166 0 -316 -75l-98 190q162 90 402.5 90t350 -78.5t109.5 -267.5v-561h-317v68q-86 -58 -126 -70q-77 -23 -160 -23t-141.5 19.5t-102.5 55.5q-95 78 -95 190zM383 281.5q0 -37.5 31.5 -59
t70.5 -21.5q115 0 185 63v148q-192 0 -262 -68q-25 -25 -25 -62.5zM404 1014l157 342h293l-223 -342h-227z" />
    <glyph glyph-name="acircumflex" unicode="&#xe2;" horiz-adv-x="1083" 
d="M45 240q0 112 57.5 176.5t147.5 101.5q151 62 420 72v31q0 47 -32 64t-99 17q-166 0 -316 -75l-98 190q162 90 402.5 90t350 -78.5t109.5 -267.5v-561h-317v68q-86 -58 -126 -70q-77 -23 -160 -23t-141.5 19.5t-102.5 55.5q-95 78 -95 190zM221 1014l211 301h222
l211 -301h-232l-92 143l-92 -143h-228zM383 281.5q0 -37.5 31.5 -59t70.5 -21.5q115 0 185 63v148q-192 0 -262 -68q-25 -25 -25 -62.5z" />
    <glyph glyph-name="atilde" unicode="&#xe3;" horiz-adv-x="1083" 
d="M45 240q0 112 57.5 176.5t147.5 101.5q151 62 420 72v31q0 47 -32 64t-99 17q-166 0 -316 -75l-98 190q162 90 402.5 90t350 -78.5t109.5 -267.5v-561h-317v68q-86 -58 -126 -70q-77 -23 -160 -23t-141.5 19.5t-102.5 55.5q-95 78 -95 190zM164 1014q0 116 69.5 185
t192.5 69q54 0 115 -28q109 -50 147 -50q84 0 84 74h170q0 -119 -69.5 -186.5t-192.5 -67.5q-53 0 -114 28q-111 49 -148 49q-84 0 -84 -73h-170zM383 281.5q0 -37.5 31.5 -59t70.5 -21.5q115 0 185 63v148q-192 0 -262 -68q-25 -25 -25 -62.5z" />
    <glyph glyph-name="adieresis" unicode="&#xe4;" horiz-adv-x="1083" 
d="M45 240q0 112 57.5 176.5t147.5 101.5q151 62 420 72v31q0 47 -32 64t-99 17q-166 0 -316 -75l-98 190q162 90 402.5 90t350 -78.5t109.5 -267.5v-561h-317v68q-86 -58 -126 -70q-77 -23 -160 -23t-141.5 19.5t-102.5 55.5q-95 78 -95 190zM197 1014v266h258v-266h-258z
M383 281.5q0 -37.5 31.5 -59t70.5 -21.5q115 0 185 63v148q-192 0 -262 -68q-25 -25 -25 -62.5zM635 1014v266h258v-266h-258z" />
    <glyph glyph-name="aring" unicode="&#xe5;" horiz-adv-x="1083" 
d="M45 240q0 112 57.5 176.5t147.5 101.5q151 62 420 72v31q0 47 -32 64t-99 17q-166 0 -316 -75l-98 190q162 90 402.5 90t350 -78.5t109.5 -267.5v-561h-317v68q-86 -58 -126 -70q-77 -23 -160 -23t-141.5 19.5t-102.5 55.5q-95 78 -95 190zM285 1264q0 105 78 185
q78 79 186 79t186 -79q78 -80 78 -185q0 -54 -21.5 -102t-56.5 -84q-78 -79 -186 -79t-186 79q-78 80 -78 186zM383 281.5q0 -37.5 31.5 -59t70.5 -21.5q115 0 185 63v148q-192 0 -262 -68q-25 -25 -25 -62.5zM440 1264q0 -47 31 -78t78 -31t78 31t31 78t-31 77.5t-78 30.5
t-78 -30.5t-31 -77.5z" />
    <glyph glyph-name="ae" unicode="&#xe6;" horiz-adv-x="1642" 
d="M45 240q0 112 58.5 176.5t150.5 101.5q154 62 424 72v31q0 47 -36 64t-103 17q-166 0 -316 -75l-98 190q162 90 402.5 90t330.5 -86q104 86 248 86q213 0 340 -139q131 -142 131 -381h-627q6 -76 59.5 -131t152.5 -55q176 0 290 94l135 -172q-100 -84 -204.5 -116
t-223.5 -32t-225.5 40t-175.5 126q-99 -95 -159 -121q-104 -45 -201 -45t-155.5 19.5t-102.5 55.5q-95 78 -95 190zM383 281.5q0 -37.5 31.5 -59t70.5 -21.5q123 0 193 63v148q-196 0 -268 -68q-27 -25 -27 -62.5zM952 555h299q-6 68 -46 107.5t-105 39.5q-124 0 -148 -147z
" />
    <glyph glyph-name="ccedilla" unicode="&#xe7;" horiz-adv-x="946" 
d="M51 438q0 195 137 332t349 137q221 0 358 -164l-182 -170q-76 82 -169 82t-145.5 -61.5t-52.5 -155.5q0 -84 52 -146q57 -67 128.5 -67t109.5 23.5t75 66.5l213 -149q-78 -96 -161 -141t-204 -50l-27 -32q84 4 134.5 -34t50.5 -87t-19.5 -83t-51.5 -57q-66 -49 -142 -49
q-127 0 -225 66l65 88q64 -41 137.5 -41t73.5 55q0 39 -59 39t-86 -10l-43 70l65 86q-165 32 -274 158q-107 123 -107 294z" />
    <glyph glyph-name="egrave" unicode="&#xe8;" horiz-adv-x="1032" 
d="M51 449q0 211 129 339q122 119 316 119q213 0 340 -139q131 -142 131 -381h-619q8 -78 56.5 -132t147.5 -54t165.5 23.5t124.5 70.5l135 -172q-100 -84 -204.5 -116t-213 -32t-199 27t-158.5 84q-151 125 -151 363zM192 1356h293l157 -342h-227zM350 555h291
q-6 68 -46 107.5t-105.5 39.5t-96.5 -42t-43 -105z" />
    <glyph glyph-name="eacute" unicode="&#xe9;" horiz-adv-x="1032" 
d="M51 449q0 211 129 339q122 119 316 119q213 0 340 -139q131 -142 131 -381h-619q8 -78 56.5 -132t147.5 -54t165.5 23.5t124.5 70.5l135 -172q-100 -84 -204.5 -116t-213 -32t-199 27t-158.5 84q-151 125 -151 363zM350 555h291q-6 68 -46 107.5t-105.5 39.5t-96.5 -42
t-43 -105zM383 1014l157 342h293l-223 -342h-227z" />
    <glyph glyph-name="ecircumflex" unicode="&#xea;" horiz-adv-x="1032" 
d="M51 449q0 211 129 339q122 119 316 119q213 0 340 -139q131 -142 131 -381h-619q8 -78 56.5 -132t147.5 -54t165.5 23.5t124.5 70.5l135 -172q-100 -84 -204.5 -116t-213 -32t-199 27t-158.5 84q-151 125 -151 363zM179 1014l211 301h222l211 -301h-232l-92 143l-92 -143
h-228zM350 555h291q-6 68 -46 107.5t-105.5 39.5t-96.5 -42t-43 -105z" />
    <glyph glyph-name="edieresis" unicode="&#xeb;" horiz-adv-x="1032" 
d="M51 449q0 211 129 339q122 119 316 119q213 0 340 -139q131 -142 131 -381h-619q8 -78 56.5 -132t147.5 -54t165.5 23.5t124.5 70.5l135 -172q-100 -84 -204.5 -116t-213 -32t-199 27t-158.5 84q-151 125 -151 363zM151 1014v266h258v-266h-258zM350 555h291
q-6 68 -46 107.5t-105.5 39.5t-96.5 -42t-43 -105zM589 1014v266h258v-266h-258z" />
    <glyph glyph-name="igrave" unicode="&#xec;" horiz-adv-x="522" 
d="M-64 1356h293l157 -342h-227zM102 0v883h318v-883h-318z" />
    <glyph glyph-name="iacute" unicode="&#xed;" horiz-adv-x="522" 
d="M102 0v883h318v-883h-318zM143 1014l157 342h293l-223 -342h-227z" />
    <glyph glyph-name="icircumflex" unicode="&#xee;" horiz-adv-x="522" 
d="M-61 1014l211 301h222l211 -301h-232l-92 143l-92 -143h-228zM102 0v883h318v-883h-318z" />
    <glyph glyph-name="idieresis" unicode="&#xef;" horiz-adv-x="522" 
d="M-76 1014v266h258v-266h-258zM102 0v883h318v-883h-318zM336 1014v266h258v-266h-258z" />
    <glyph glyph-name="eth" unicode="&#xf0;" horiz-adv-x="1057" 
d="M51 442q0 202 112 332q115 133 302 133q132 0 207 -84q-26 131 -131 271l-248 -101l-88 181l196 77q-71 70 -145 121l184 162q115 -76 217 -178l170 67l86 -180l-118 -47q211 -310 211 -690q0 -245 -144 -392q-138 -139 -334 -139q-197 0 -336 133q-141 135 -141 334z
M360 464q0 -61 10.5 -98.5t31.5 -68.5q49 -70 126 -70q79 0 126 70q40 61 40 147q0 37 -10 75t-30 67q-48 69 -128 69q-75 0 -124 -69q-42 -61 -42 -122z" />
    <glyph glyph-name="ntilde" unicode="&#xf1;" horiz-adv-x="1104" 
d="M102 0v883h318v-92q85 116 254 116q167 0 256 -109q78 -95 78 -268v-530h-318v455q0 90 -26.5 138t-97 48t-108.5 -47t-38 -129v-465h-318zM168 1014q0 116 69.5 185t192.5 69q54 0 115 -28q109 -50 147 -50q84 0 84 74h170q0 -119 -69.5 -186.5t-192.5 -67.5
q-53 0 -114 28q-111 49 -148 49q-84 0 -84 -73h-170z" />
    <glyph glyph-name="ograve" unicode="&#xf2;" horiz-adv-x="1055" 
d="M51 442q0 193 143 332q137 133 332 133q198 0 336 -131q142 -132 142 -330q0 -100 -39 -186t-103 -148q-141 -137 -334 -137q-197 0 -336 133q-141 135 -141 334zM200 1356h293l157 -342h-227zM360 464q0 -61 10.5 -98.5t31.5 -68.5q49 -70 126 -70q79 0 126 70
q40 61 40 147q0 37 -10 75t-30 67q-48 69 -128 69q-75 0 -124 -69q-42 -61 -42 -122z" />
    <glyph glyph-name="oacute" unicode="&#xf3;" horiz-adv-x="1055" 
d="M51 442q0 193 143 332q137 133 332 133q198 0 336 -131q142 -132 142 -330q0 -100 -39 -186t-103 -148q-141 -137 -334 -137q-197 0 -336 133q-141 135 -141 334zM360 464q0 -61 10.5 -98.5t31.5 -68.5q49 -70 126 -70q79 0 126 70q40 61 40 147q0 37 -10 75t-30 67
q-48 69 -128 69q-75 0 -124 -69q-42 -61 -42 -122zM381 1014l157 342h293l-223 -342h-227z" />
    <glyph glyph-name="ocircumflex" unicode="&#xf4;" horiz-adv-x="1055" 
d="M51 442q0 193 143 332q137 133 332 133q198 0 336 -131q142 -132 142 -330q0 -100 -39 -186t-103 -148q-141 -137 -334 -137q-197 0 -336 133q-141 135 -141 334zM202 1014l211 301h222l211 -301h-232l-92 143l-92 -143h-228zM360 464q0 -61 10.5 -98.5t31.5 -68.5
q49 -70 126 -70q79 0 126 70q40 61 40 147q0 37 -10 75t-30 67q-48 69 -128 69q-75 0 -124 -69q-42 -61 -42 -122z" />
    <glyph glyph-name="otilde" unicode="&#xf5;" horiz-adv-x="1055" 
d="M51 442q0 193 143 332q137 133 332 133q198 0 336 -131q142 -132 142 -330q0 -100 -39 -186t-103 -148q-141 -137 -334 -137q-197 0 -336 133q-141 135 -141 334zM133 1014q0 116 69.5 185t192.5 69q54 0 115 -28q109 -50 147 -50q84 0 84 74h170q0 -119 -69.5 -186.5
t-192.5 -67.5q-53 0 -114 28q-111 49 -148 49q-84 0 -84 -73h-170zM360 464q0 -61 10.5 -98.5t31.5 -68.5q49 -70 126 -70q79 0 126 70q40 61 40 147q0 37 -10 75t-30 67q-48 69 -128 69q-75 0 -124 -69q-42 -61 -42 -122z" />
    <glyph glyph-name="odieresis" unicode="&#xf6;" horiz-adv-x="1055" 
d="M51 442q0 193 143 332q137 133 332 133q198 0 336 -131q142 -132 142 -330q0 -100 -39 -186t-103 -148q-141 -137 -334 -137q-197 0 -336 133q-141 135 -141 334zM168 1014v266h258v-266h-258zM360 464q0 -61 10.5 -98.5t31.5 -68.5q49 -70 126 -70q79 0 126 70
q40 61 40 147q0 37 -10 75t-30 67q-48 69 -128 69q-75 0 -124 -69q-42 -61 -42 -122zM606 1014v266h258v-266h-258z" />
    <glyph glyph-name="divide" unicode="&#xf7;" horiz-adv-x="1178" 
d="M76 555v246h1026v-246h-1026zM434 143v310h307v-310h-307zM434 903v309h307v-309h-307z" />
    <glyph glyph-name="oslash" unicode="&#xf8;" horiz-adv-x="1055" 
d="M45 72l96 94q-90 119 -90 276q0 193 143 332q137 133 332 133q158 0 285 -88l102 101l115 -101l-110 -106q86 -120 86 -269q0 -194 -142 -332q-141 -137 -334 -137q-155 0 -276 86l-96 -94zM360 464q0 -61 10.5 -98.5t31.5 -68.5q49 -70 126 -70q79 0 126 70
q40 61 40 147q0 37 -10 75t-30 67q-48 69 -128 69q-75 0 -124 -69q-42 -61 -42 -122z" />
    <glyph glyph-name="ugrave" unicode="&#xf9;" horiz-adv-x="1104" 
d="M96 352v531h318v-455q0 -90 26.5 -138t97 -48t108.5 47t38 129v465h317v-883h-317v92q-85 -117 -254 -117q-166 0 -256 110q-78 95 -78 267zM241 1356h293l157 -342h-227z" />
    <glyph glyph-name="uacute" unicode="&#xfa;" horiz-adv-x="1104" 
d="M96 352v531h318v-455q0 -90 26.5 -138t97 -48t108.5 47t38 129v465h317v-883h-317v92q-85 -117 -254 -117q-166 0 -256 110q-78 95 -78 267zM410 1014l157 342h293l-223 -342h-227z" />
    <glyph glyph-name="ucircumflex" unicode="&#xfb;" horiz-adv-x="1104" 
d="M96 352v531h318v-455q0 -90 26.5 -138t97 -48t108.5 47t38 129v465h317v-883h-317v92q-85 -117 -254 -117q-166 0 -256 110q-78 95 -78 267zM225 1014l211 301h222l211 -301h-232l-92 143l-92 -143h-228z" />
    <glyph glyph-name="udieresis" unicode="&#xfc;" horiz-adv-x="1104" 
d="M96 352v531h318v-455q0 -90 26.5 -138t97 -48t108.5 47t38 129v465h317v-883h-317v92q-85 -117 -254 -117q-166 0 -256 110q-78 95 -78 267zM199 1014v266h258v-266h-258zM637 1014v266h258v-266h-258z" />
    <glyph glyph-name="yacute" unicode="&#xfd;" horiz-adv-x="987" 
d="M20 883h334l121 -402q18 -59 29 -110q2 16 7 33.5t10 37t11 39.5l105 402h330l-371 -1080q-31 -88 -89 -141t-163 -53h-184v260h67q47 0 84 24.5t37 59.5q0 57 -24 127zM369 1014l157 342h293l-223 -342h-227z" />
    <glyph glyph-name="thorn" unicode="&#xfe;" horiz-adv-x="1151" 
d="M102 -367v1862h318v-702q37 53 111.5 83.5t160.5 30.5t163 -38t131 -101t84 -148t30 -176.5t-30 -176.5t-84 -149q-119 -143 -300 -143q-80 0 -154.5 31t-111.5 84v-457h-318zM420 439q0 -91 50 -144t130 -53t131 52t51 144t-51 147.5t-132 55.5t-130 -55.5t-49 -146.5z
" />
    <glyph glyph-name="ydieresis" unicode="&#xff;" horiz-adv-x="987" 
d="M20 883h334l121 -402q18 -59 29 -110q2 16 7 33.5t10 37t11 39.5l105 402h330l-371 -1080q-31 -88 -89 -141t-163 -53h-184v260h67q47 0 84 24.5t37 59.5q0 57 -24 127zM147 1014v266h258v-266h-258zM585 1014v266h258v-266h-258z" />
    <glyph glyph-name="Amacron" unicode="&#x100;" horiz-adv-x="1454" 
d="M31 0l534 1495h316l542 -1495h-360l-115 377h-454l-117 -377h-346zM420 1691v135h614v-135h-614zM580 653h286l-110 365q-27 86 -33 119q-2 -4 -11.5 -42t-19.5 -77z" />
    <glyph glyph-name="amacron" unicode="&#x101;" horiz-adv-x="1083" 
d="M45 240q0 112 57.5 176.5t147.5 101.5q151 62 420 72v31q0 47 -32 64t-99 17q-166 0 -316 -75l-98 190q162 90 402.5 90t350 -78.5t109.5 -267.5v-561h-317v68q-86 -58 -126 -70q-77 -23 -160 -23t-141.5 19.5t-102.5 55.5q-95 78 -95 190zM256 1075v135h614v-135h-614z
M383 281.5q0 -37.5 31.5 -59t70.5 -21.5q115 0 185 63v148q-192 0 -262 -68q-25 -25 -25 -62.5z" />
    <glyph glyph-name="Abreve" unicode="&#x102;" horiz-adv-x="1454" 
d="M31 0l534 1495h316l542 -1495h-360l-115 377h-454l-117 -377h-346zM426 1921h153q42 -150 150 -150q90 0 134 101q11 26 16 49h153q-12 -148 -95 -224.5t-208 -76.5t-208 76.5t-95 224.5zM580 653h286l-110 365q-27 86 -33 119q-2 -4 -11.5 -42t-19.5 -77z" />
    <glyph glyph-name="abreve" unicode="&#x103;" horiz-adv-x="1083" 
d="M45 240q0 112 57.5 176.5t147.5 101.5q151 62 420 72v31q0 47 -32 64t-99 17q-166 0 -316 -75l-98 190q162 90 402.5 90t350 -78.5t109.5 -267.5v-561h-317v68q-86 -58 -126 -70q-77 -23 -160 -23t-141.5 19.5t-102.5 55.5q-95 78 -95 190zM250 1305h153
q42 -150 150 -150q90 0 134 101q11 26 16 49h153q-12 -148 -95 -224.5t-208 -76.5t-208 76.5t-95 224.5zM383 281.5q0 -37.5 31.5 -59t70.5 -21.5q115 0 185 63v148q-192 0 -262 -68q-25 -25 -25 -62.5z" />
    <glyph glyph-name="Aogonek" unicode="&#x104;" horiz-adv-x="1454" 
d="M31 0l534 1495h316l542 -1495q-138 -10 -222 -68q-62 -43 -62 -80.5t21.5 -54t61 -16.5t103.5 43l98 -123q-100 -96 -256 -96q-118 0 -190 43t-72 127q0 137 158 225l-115 377h-454l-117 -377h-346zM580 653h286l-110 365q-27 86 -33 119q-2 -4 -11.5 -42t-19.5 -77z" />
    <glyph glyph-name="aogonek" unicode="&#x105;" horiz-adv-x="1083" 
d="M45 240q0 112 57.5 176.5t147.5 101.5q151 62 420 72v31q0 47 -32 64t-99 17q-166 0 -316 -75l-98 190q162 90 402.5 90t350 -78.5t109.5 -267.5v-561q-133 -11 -209 -68q-55 -43 -55 -90q0 -61 85 -61q41 0 91 43l98 -123q-85 -96 -256 -96q-118 0 -185 43t-67 127
q0 135 181 225v68q-86 -58 -126 -70q-77 -23 -160 -23t-141.5 19.5t-102.5 55.5q-95 78 -95 190zM383 281.5q0 -37.5 31.5 -59t70.5 -21.5q115 0 185 63v148q-192 0 -262 -68q-25 -25 -25 -62.5z" />
    <glyph glyph-name="Cacute" unicode="&#x106;" horiz-adv-x="1475" 
d="M82 756q0 168 59.5 308t162 241.5t240.5 158t300 56.5t290 -51.5t244 -170.5l-184 -215q-150 150 -354 150q-190 0 -306 -135q-114 -133 -114 -353.5t108.5 -351.5t317.5 -131q176 0 303 104q37 31 74 66l188 -215q-223 -242 -553 -242q-182 0 -323.5 54.5t-241.5 156.5
q-211 214 -211 570zM650 1651l157 342h293l-223 -342h-227z" />
    <glyph glyph-name="cacute" unicode="&#x107;" horiz-adv-x="946" 
d="M51 438q0 195 137 332t349 137q221 0 358 -164l-182 -170q-76 82 -169 82t-145.5 -61.5t-52.5 -155.5q0 -84 52 -146q57 -67 128.5 -67t109.5 23.5t75 66.5l213 -149q-80 -100 -169 -145.5t-206 -45.5t-206 36t-153 97q-139 133 -139 330zM361 1014l157 342h293
l-223 -342h-227z" />
    <glyph glyph-name="Ccaron" unicode="&#x10c;" horiz-adv-x="1475" 
d="M82 756q0 168 59.5 308t162 241.5t240.5 158t300 56.5t290 -51.5t244 -170.5l-184 -215q-150 150 -354 150q-190 0 -306 -135q-114 -133 -114 -353.5t108.5 -351.5t317.5 -131q176 0 303 104q37 31 74 66l188 -215q-223 -242 -553 -242q-182 0 -323.5 54.5t-241.5 156.5
q-211 214 -211 570zM495 1931h232l92 -144l92 144h227l-211 -301h-221z" />
    <glyph glyph-name="ccaron" unicode="&#x10d;" horiz-adv-x="946" 
d="M51 438q0 195 137 332t349 137q221 0 358 -164l-182 -170q-76 82 -169 82t-145.5 -61.5t-52.5 -155.5q0 -84 52 -146q57 -67 128.5 -67t109.5 23.5t75 66.5l213 -149q-80 -100 -169 -145.5t-206 -45.5t-206 36t-153 97q-139 133 -139 330zM209 1315h232l92 -144l92 144
h227l-211 -301h-221z" />
    <glyph glyph-name="Dcaron" unicode="&#x10e;" horiz-adv-x="1466" 
d="M154 0v1495h452q336 0 550 -191q228 -205 228 -556q0 -183 -65.5 -323t-174.5 -235q-218 -190 -538 -190h-452zM376 1931h232l92 -144l92 144h227l-211 -301h-221zM481 276h125q200 0 324 142q117 133 117 334q0 96 -32 182t-91 148q-127 137 -318 137h-125v-943z" />
    <glyph glyph-name="dcaron" unicode="&#x10f;" horiz-adv-x="1151" 
d="M51 440q0 188 114 324q119 143 300 143q80 0 154.5 -30.5t111.5 -83.5v702h318v-1495h-318v90q-37 -53 -111.5 -84t-160.5 -31t-163 38t-131 101q-114 135 -114 326zM369 444.5q0 -92.5 51 -150.5t132 -58t130 58t49 149.5t-50 147.5t-130 56t-131 -55t-51 -147.5z
M1132 1026q58 82 58 213v256h264v-208q0 -105 -43 -192t-104 -171z" />
    <glyph glyph-name="Dcroat" unicode="&#x110;" horiz-adv-x="1528" 
d="M51 592v270h164v633h453q335 0 548 -191q230 -206 230 -556q0 -183 -65.5 -323t-174 -234.5t-249 -142.5t-289.5 -48h-453v592h-164zM543 276h125q200 0 324 142q116 132 116 334q0 96 -32 182t-90 148q-127 137 -318 137h-125v-357h225v-270h-225v-316z" />
    <glyph glyph-name="dcroat" unicode="&#x111;" horiz-adv-x="1151" 
d="M51 440q0 188 114 324q119 143 300 143q80 0 154.5 -30.5t111.5 -83.5v270h-225v270h225v162h318v-162h71v-270h-71v-1063h-318v90q-37 -53 -111.5 -84t-160.5 -31t-163 38t-131 101q-114 135 -114 326zM369 444.5q0 -92.5 51 -150.5t132 -58t130 58t49 149.5t-50 147.5
t-130 56t-131 -55t-51 -147.5z" />
    <glyph glyph-name="Emacron" unicode="&#x112;" horiz-adv-x="1171" 
d="M154 0v1495h870v-276h-543v-351h504v-276h-504v-316h574v-276h-901zM275 1691v135h614v-135h-614z" />
    <glyph glyph-name="emacron" unicode="&#x113;" horiz-adv-x="1032" 
d="M51 449q0 211 129 339q122 119 316 119q213 0 340 -139q131 -142 131 -381h-619q8 -78 56.5 -132t147.5 -54t165.5 23.5t124.5 70.5l135 -172q-100 -84 -204.5 -116t-213 -32t-199 27t-158.5 84q-151 125 -151 363zM207 1075v135h614v-135h-614zM350 555h291
q-6 68 -46 107.5t-105.5 39.5t-96.5 -42t-43 -105z" />
    <glyph glyph-name="Edotaccent" unicode="&#x116;" horiz-adv-x="1171" 
d="M154 0v1495h870v-276h-543v-351h504v-276h-504v-316h574v-276h-901zM457 1630v266h258v-266h-258z" />
    <glyph glyph-name="edotaccent" unicode="&#x117;" horiz-adv-x="1032" 
d="M51 449q0 211 129 339q122 119 316 119q213 0 340 -139q131 -142 131 -381h-619q8 -78 56.5 -132t147.5 -54t165.5 23.5t124.5 70.5l135 -172q-100 -84 -204.5 -116t-213 -32t-199 27t-158.5 84q-151 125 -151 363zM350 555h291q-6 68 -46 107.5t-105.5 39.5t-96.5 -42
t-43 -105zM372 1014v266h258v-266h-258z" />
    <glyph glyph-name="Eogonek" unicode="&#x118;" horiz-adv-x="1171" 
d="M154 0v1495h870v-276h-543v-351h504v-276h-504v-316h574v-276q-152 -4 -237 -62q-68 -46 -68 -96q0 -61 94 -61q50 0 112 43l99 -123q-89 -96 -277 -96q-119 0 -190.5 43t-71.5 127q0 128 160 225h-522z" />
    <glyph glyph-name="eogonek" unicode="&#x119;" horiz-adv-x="1032" 
d="M51 444.5q0 114.5 35 199.5t94 144q122 119 316 119q213 0 340 -139q131 -142 131 -381h-619q8 -78 56.5 -132t147.5 -54t165.5 23.5t124.5 70.5l135 -172q-76 -64 -162 -101q-174 -76 -174 -155q0 -29 21.5 -45.5t56.5 -16.5q63 0 129 43l98 -122q-24 -27 -61 -48
q-89 -49 -211.5 -49t-194 43t-71.5 135t92 170q-307 24 -412 267q-37 86 -37 200.5zM350 555h291q-6 68 -46 107.5t-105.5 39.5t-96.5 -42t-43 -105z" />
    <glyph glyph-name="Ecaron" unicode="&#x11a;" horiz-adv-x="1171" 
d="M154 0v1495h870v-276h-543v-351h504v-276h-504v-316h574v-276h-901zM276 1931h232l92 -144l92 144h227l-211 -301h-221z" />
    <glyph glyph-name="ecaron" unicode="&#x11b;" horiz-adv-x="1032" 
d="M51 449q0 211 129 339q122 119 316 119q213 0 340 -139q131 -142 131 -381h-619q8 -78 56.5 -132t147.5 -54t165.5 23.5t124.5 70.5l135 -172q-100 -84 -204.5 -116t-213 -32t-199 27t-158.5 84q-151 125 -151 363zM171 1315h232l92 -144l92 144h227l-211 -301h-221z
M350 555h291q-6 68 -46 107.5t-105.5 39.5t-96.5 -42t-43 -105z" />
    <glyph glyph-name="uni0122" unicode="&#x122;" horiz-adv-x="1649" 
d="M82 754q0 339 224 556q104 101 242 155.5t315 54.5t317.5 -69t238.5 -175l-202 -199q-144 156 -375 156q-184 0 -312 -143q-124 -139 -124 -336q0 -203 124 -344q131 -148 318 -148q283 0 369 215h-381v277h743q0 -358 -213 -574q-201 -205 -518 -205q-166 0 -307.5 56.5
t-242.5 160.5q-216 221 -216 562zM667 -597q58 82 58 213v256h264v-208q0 -105 -43 -192t-104 -171z" />
    <glyph glyph-name="uni0123" unicode="&#x123;" horiz-adv-x="1151" 
d="M51 442q0 193 114 326q119 139 300 139q80 0 154.5 -30.5t111.5 -83.5v90h318v-865q0 -200 -129 -304.5t-351 -104.5q-137 0 -251.5 32.5t-174.5 67.5l103 209q121 -72 303 -72q106 0 144 48.5t38 113.5v92q-35 -43 -102.5 -78.5t-161.5 -35.5t-171 36.5t-131 99.5
q-114 135 -114 320zM369 438q0 -92 51 -147t131 -55t130 56t50 147t-49 149.5t-130 58.5t-132 -58.5t-51 -150.5zM430 1041v208q0 105 43 192t104 171l175 -102q-58 -82 -58 -213v-256h-264z" />
    <glyph glyph-name="Imacron" unicode="&#x12a;" horiz-adv-x="635" 
d="M11 1691v135h614v-135h-614zM154 0v1495h327v-1495h-327z" />
    <glyph glyph-name="imacron" unicode="&#x12b;" horiz-adv-x="522" 
d="M-46 1075v135h614v-135h-614zM102 0v883h318v-883h-318z" />
    <glyph glyph-name="Iogonek" unicode="&#x12e;" horiz-adv-x="635" 
d="M14 -232.5q0 76.5 38 126t102 94.5v1507h327v-1495q-108 -11 -178 -70q-55 -46 -55 -88q0 -61 93 -61q50 0 114 43l98 -123q-89 -96 -277 -96q-118 0 -190 43t-72 119.5z" />
    <glyph glyph-name="iogonek" unicode="&#x12f;" horiz-adv-x="522" 
d="M-25 -221q0 110 127 213v891h318v-883q-143 -22 -198 -112q-13 -23 -13 -46.5t21.5 -40t56.5 -16.5q65 0 129 43l98 -123q-89 -96 -276 -96q-119 0 -191 43t-72 127zM102 1026v291h318v-291h-318z" />
    <glyph glyph-name="uni0136" unicode="&#x136;" horiz-adv-x="1458" 
d="M154 0v1495h327v-543l484 543h405l-582 -637l611 -858h-398l-436 612l-84 -92v-520h-327zM536 -579q58 82 58 213v256h264v-208q0 -105 -43 -192t-104 -171z" />
    <glyph glyph-name="uni0137" unicode="&#x137;" horiz-adv-x="1114" 
d="M102 0v1495h318v-956l317 344h355l-359 -377l338 -506h-377l-184 281l-90 -97v-184h-318zM366 -578q58 82 58 213v256h264v-208q0 -105 -43 -192t-104 -171z" />
    <glyph glyph-name="Lacute" unicode="&#x139;" horiz-adv-x="1085" 
d="M154 0v1495h327v-1219h533v-276h-860zM204 1651l157 342h293l-223 -342h-227z" />
    <glyph glyph-name="lacute" unicode="&#x13a;" horiz-adv-x="522" 
d="M102 0v1495h318v-1495h-318zM153 1673l157 342h293l-223 -342h-227z" />
    <glyph glyph-name="uni013B" unicode="&#x13b;" horiz-adv-x="1085" 
d="M154 0v1495h327v-1219h533v-276h-860zM405 -578q58 82 58 213v256h264v-208q0 -105 -43 -192t-104 -171z" />
    <glyph glyph-name="uni013C" unicode="&#x13c;" horiz-adv-x="522" 
d="M102 -578q58 82 58 213v256h264v-208q0 -105 -43 -192t-104 -171zM133 0v1495h318v-1495h-318z" />
    <glyph glyph-name="Lcaron" unicode="&#x13d;" horiz-adv-x="1085" 
d="M154 0v1495h327v-1219h533v-276h-860zM655 1026q58 82 58 213v256h264v-208q0 -105 -43 -192t-104 -171z" />
    <glyph glyph-name="lcaron" unicode="&#x13e;" horiz-adv-x="522" 
d="M102 0v1495h318v-1495h-318zM503 1026q58 82 58 213v256h264v-208q0 -105 -43 -192t-104 -171z" />
    <glyph glyph-name="Lslash" unicode="&#x141;" horiz-adv-x="1126" 
d="M-2 762l197 80v653h327v-518l207 84l105 -230l-312 -126v-429h533v-276h-860v569l-91 -37z" />
    <glyph glyph-name="lslash" unicode="&#x142;" horiz-adv-x="666" 
d="M-2 762l176 72v661h318v-530l71 28l105 -229l-176 -72v-692h-318v561l-70 -29z" />
    <glyph glyph-name="Nacute" unicode="&#x143;" horiz-adv-x="1610" 
d="M154 0v1495h282l660 -862q16 -21 25 -39.5t12 -22.5l-5 76v848h328v-1495h-282l-660 870q-28 42 -37 60l4 -74v-856h-327zM662 1610l157 342h293l-223 -342h-227z" />
    <glyph glyph-name="nacute" unicode="&#x144;" horiz-adv-x="1104" 
d="M102 0v883h318v-92q85 116 254 116q167 0 256 -109q78 -95 78 -268v-530h-318v455q0 90 -26.5 138t-97 48t-108.5 -47t-38 -129v-465h-318zM398 1014l157 342h293l-223 -342h-227z" />
    <glyph glyph-name="uni0145" unicode="&#x145;" horiz-adv-x="1610" 
d="M154 0v1495h282l660 -862q16 -21 25 -39.5t12 -22.5l-5 76v848h328v-1495h-282l-660 870q-28 42 -37 60l4 -74v-856h-327zM618 -578q58 82 58 213v256h264v-208q0 -105 -43 -192t-104 -171z" />
    <glyph glyph-name="uni0146" unicode="&#x146;" horiz-adv-x="1104" 
d="M102 0v883h318v-92q85 116 254 116q167 0 256 -109q78 -95 78 -268v-530h-318v455q0 90 -26.5 138t-97 48t-108.5 -47t-38 -129v-465h-318zM362 -578q58 82 58 213v256h264v-208q0 -105 -43 -192t-104 -171z" />
    <glyph glyph-name="Ncaron" unicode="&#x147;" horiz-adv-x="1610" 
d="M154 0v1495h282l660 -862q16 -21 25 -39.5t12 -22.5l-5 76v848h328v-1495h-282l-660 870q-28 42 -37 60l4 -74v-856h-327zM467 1870h232l92 -144l92 144h227l-211 -301h-221z" />
    <glyph glyph-name="ncaron" unicode="&#x148;" horiz-adv-x="1104" 
d="M102 0v883h318v-92q85 116 254 116q167 0 256 -109q78 -95 78 -268v-530h-318v455q0 90 -26.5 138t-97 48t-108.5 -47t-38 -129v-465h-318zM225 1315h232l92 -144l92 144h227l-211 -301h-221z" />
    <glyph glyph-name="Omacron" unicode="&#x14c;" horiz-adv-x="1704" 
d="M82 754.5q0 160.5 55.5 300t156.5 243t243.5 163t316.5 59.5q346 0 559 -216q100 -102 154.5 -243t54.5 -305t-55.5 -306.5t-156.5 -248t-243.5 -166t-316.5 -60.5t-315.5 61.5t-241.5 168t-155.5 248t-55.5 302zM420 754q0 -205 128 -350q125 -142 302 -142
q194 0 318 150q116 141 116 344q0 96 -30.5 183t-87.5 153q-122 141 -312 141q-187 0 -314 -147q-120 -139 -120 -332zM549 1691v135h614v-135h-614z" />
    <glyph glyph-name="omacron" unicode="&#x14d;" horiz-adv-x="1055" 
d="M51 442q0 193 143 332q137 133 332 133q198 0 336 -131q142 -132 142 -330q0 -100 -39 -186t-103 -148q-141 -137 -334 -137q-197 0 -336 133q-141 135 -141 334zM223 1075v135h614v-135h-614zM360 464q0 -61 10.5 -98.5t31.5 -68.5q49 -70 126 -70q79 0 126 70
q40 61 40 147q0 37 -10 75t-30 67q-48 69 -128 69q-75 0 -124 -69q-42 -61 -42 -122z" />
    <glyph glyph-name="Ohungarumlaut" unicode="&#x150;" horiz-adv-x="1704" 
d="M82 754.5q0 160.5 55.5 300t156.5 243t243.5 163t316.5 59.5q346 0 559 -216q100 -102 154.5 -243t54.5 -305t-55.5 -306.5t-156.5 -248t-243.5 -166t-316.5 -60.5t-315.5 61.5t-241.5 168t-155.5 248t-55.5 302zM420 754q0 -205 128 -350q125 -142 302 -142
q194 0 318 150q116 141 116 344q0 96 -30.5 183t-87.5 153q-122 141 -312 141q-187 0 -314 -147q-120 -139 -120 -332zM533 1651l190 342h252l-190 -342h-252zM877 1651l190 342h252l-190 -342h-252z" />
    <glyph glyph-name="ohungarumlaut" unicode="&#x151;" horiz-adv-x="1055" 
d="M51 442q0 193 143 332q137 133 332 133q198 0 336 -131q142 -132 142 -330q0 -100 -39 -186t-103 -148q-141 -137 -334 -137q-197 0 -336 133q-141 135 -141 334zM201 1014l190 342h252l-190 -342h-252zM360 464q0 -61 10.5 -98.5t31.5 -68.5q49 -70 126 -70q79 0 126 70
q40 61 40 147q0 37 -10 75t-30 67q-48 69 -128 69q-75 0 -124 -69q-42 -61 -42 -122zM545 1014l190 342h252l-190 -342h-252z" />
    <glyph glyph-name="OE" unicode="&#x152;" horiz-adv-x="2281" 
d="M82 754.5q0 160.5 55.5 300t156.5 243t243.5 163t293 59.5t269.5 -48.5t194 -128.5v152h840v-276h-553v-351h514v-276h-514v-316h584v-276h-871v160q-93 -121 -316 -170q-65 -15 -128 -15q-174 0 -315.5 61.5t-241.5 168t-155.5 248t-55.5 302zM420 754q0 -205 128 -350
q125 -142 302 -142q194 0 318 150q116 141 116 344q0 96 -30.5 183t-87.5 153q-122 141 -312 141q-187 0 -314 -147q-120 -139 -120 -332z" />
    <glyph glyph-name="oe" unicode="&#x153;" horiz-adv-x="1673" 
d="M51 442q0 193 143 332q137 133 332 133q99 0 183 -41t125 -106q34 59 124 104q84 43 183.5 43t186.5 -35.5t150 -103.5q130 -142 130 -381h-619q8 -78 56.5 -132t147.5 -54t165.5 23.5t124.5 70.5l135 -172q-100 -84 -204.5 -116t-189.5 -32t-137.5 11.5t-99.5 31.5
q-103 45 -149 113q-71 -104 -220 -143q-47 -13 -117.5 -13t-156.5 35t-152 98q-141 135 -141 334zM360 464q0 -61 10.5 -98.5t31.5 -68.5q49 -70 126 -70q79 0 126 70q40 61 40 147q0 37 -10 75t-30 67q-48 69 -128 69q-75 0 -124 -69q-42 -61 -42 -122zM1012 555h291
q-7 68 -46.5 107.5t-105.5 39.5t-96.5 -42t-42.5 -105z" />
    <glyph glyph-name="Racute" unicode="&#x154;" horiz-adv-x="1329" 
d="M154 0v1495h536q229 0 375 -127q139 -121 139 -304t-93 -290.5t-241 -148.5l398 -625h-371l-416 707v-707h-327zM481 858h209q86 0 136.5 51.5t50.5 134t-54.5 129t-132.5 46.5h-209v-361zM510 1630l157 342h293l-223 -342h-227z" />
    <glyph glyph-name="racute" unicode="&#x155;" horiz-adv-x="868" 
d="M102 0v883h318v-117q33 55 92 98t128 43q138 0 222 -84l-155 -268q-41 31 -71 43t-71 12q-78 0 -111.5 -52t-33.5 -124v-434h-318zM317 1014l157 342h293l-223 -342h-227z" />
    <glyph glyph-name="uni0156" unicode="&#x156;" horiz-adv-x="1329" 
d="M154 0v1495h536q229 0 375 -127q139 -121 139 -304t-93 -290.5t-241 -148.5l398 -625h-371l-416 707v-707h-327zM481 858h209q86 0 136.5 51.5t50.5 134t-54.5 129t-132.5 46.5h-209v-361zM491 -578q58 82 58 213v256h264v-208q0 -105 -43 -192t-104 -171z" />
    <glyph glyph-name="uni0157" unicode="&#x157;" horiz-adv-x="868" 
d="M102 -578q58 82 58 213v256h264v-208q0 -105 -43 -192t-104 -171zM133 0v883h318v-117q33 55 92 98t128 43q138 0 222 -84l-155 -268q-41 31 -71 43t-71 12q-78 0 -111.5 -52t-33.5 -124v-434h-318z" />
    <glyph glyph-name="Rcaron" unicode="&#x158;" horiz-adv-x="1329" 
d="M154 0v1495h536q229 0 375 -127q139 -121 139 -304t-93 -290.5t-241 -148.5l398 -625h-371l-416 707v-707h-327zM340 1931h232l92 -144l92 144h227l-211 -301h-221zM481 858h209q86 0 136.5 51.5t50.5 134t-54.5 129t-132.5 46.5h-209v-361z" />
    <glyph glyph-name="rcaron" unicode="&#x159;" horiz-adv-x="868" 
d="M102 0v883h318v-117q33 55 92 98t128 43q138 0 222 -84l-155 -268q-41 31 -71 43t-71 12q-78 0 -111.5 -52t-33.5 -124v-434h-318zM134 1315h232l92 -144l92 144h227l-211 -301h-221z" />
    <glyph glyph-name="Sacute" unicode="&#x15a;" horiz-adv-x="1214" 
d="M80 162l170 229q65 -53 155.5 -91t192.5 -38t141 37t39 98.5t-44 101.5t-107.5 69.5t-131 54t-118.5 53.5t-100.5 63.5t-86.5 82.5q-77 102 -77 241t46 221t121 134q146 102 365 102q107 0 223.5 -31t208.5 -98l-147 -244q-49 37 -126 61.5t-146.5 24.5t-108.5 -14.5
t-63 -36.5q-46 -39 -46 -92.5t33 -88t85 -62.5t116.5 -51.5t125 -50t114 -59.5t96.5 -81q96 -107 96 -273q0 -213 -140.5 -331t-383.5 -118q-156 0 -275 51.5t-227 135.5zM447 1630l157 342h293l-223 -342h-227z" />
    <glyph glyph-name="sacute" unicode="&#x15b;" horiz-adv-x="848" 
d="M43 76l102 200q127 -75 230.5 -75t103.5 49q0 35 -35.5 55.5t-85 37.5t-98.5 37.5t-91 53.5q-95 75 -95 203q0 196 218 253q68 17 160 17q163 0 312 -82l-90 -196q-104 57 -213 57t-109 -47q0 -23 46 -42t103.5 -40.5t107.5 -45.5t92 -59q96 -78 96 -196
q0 -141 -114 -216q-99 -65 -232 -65q-265 0 -408 101zM245 1014l157 342h293l-223 -342h-227z" />
    <glyph glyph-name="Scedilla" unicode="&#x15e;" horiz-adv-x="1214" 
d="M80 162l170 229q65 -53 155.5 -91t192.5 -38t141 37t39 98.5t-44 101.5t-107.5 69.5t-131 54t-118.5 53.5t-100.5 63.5t-86.5 82.5q-77 102 -77 241t46 221t121 134q146 102 365 102q107 0 223.5 -31t208.5 -98l-147 -244q-49 37 -126 61.5t-146.5 24.5t-108.5 -14.5
t-63 -36.5q-46 -39 -46 -92.5t33 -88t85 -62.5t116.5 -51.5t125 -50t114 -59.5t96.5 -81q96 -107 96 -288.5t-120 -297t-331 -131.5l-28 -37q84 4 134 -34t50 -87t-19.5 -83t-51.5 -57q-65 -49 -141 -49q-128 0 -226 66l65 88q64 -41 142 -41q28 0 48.5 13.5t20.5 41.5
q0 39 -59 39t-86 -10l-43 70l59 77q-133 11 -237.5 60t-202.5 125z" />
    <glyph glyph-name="scedilla" unicode="&#x15f;" horiz-adv-x="848" 
d="M43 76l102 200q127 -75 230.5 -75t103.5 49q0 35 -35.5 55.5t-85 37.5t-98.5 37.5t-91 53.5q-95 75 -95 203q0 196 218 253q68 17 160 17q163 0 312 -82l-90 -196q-104 57 -213 57t-109 -47q0 -23 46 -42t103.5 -40.5t107.5 -45.5t92 -59q96 -78 96 -196
q0 -141 -114 -216q-99 -65 -232 -65q-265 0 -408 101zM192 -301l65 88q64 -41 137.5 -41t73.5 55q0 39 -59 39t-86 -10l-43 70l98 129h135l-68 -86q84 4 134.5 -34t50.5 -87t-19.5 -83t-51.5 -57q-66 -49 -142 -49q-127 0 -225 66z" />
    <glyph glyph-name="Scaron" unicode="&#x160;" horiz-adv-x="1214" 
d="M80 162l170 229q65 -53 155.5 -91t192.5 -38t141 37t39 98.5t-44 101.5t-107.5 69.5t-131 54t-118.5 53.5t-100.5 63.5t-86.5 82.5q-77 102 -77 241t46 221t121 134q146 102 365 102q107 0 223.5 -31t208.5 -98l-147 -244q-49 37 -126 61.5t-146.5 24.5t-108.5 -14.5
t-63 -36.5q-46 -39 -46 -92.5t33 -88t85 -62.5t116.5 -51.5t125 -50t114 -59.5t96.5 -81q96 -107 96 -273q0 -213 -140.5 -331t-383.5 -118q-156 0 -275 51.5t-227 135.5zM284 1919h232l92 -144l92 144h227l-211 -301h-221z" />
    <glyph glyph-name="scaron" unicode="&#x161;" horiz-adv-x="848" 
d="M43 76l102 200q127 -75 230.5 -75t103.5 49q0 35 -35.5 55.5t-85 37.5t-98.5 37.5t-91 53.5q-95 75 -95 203q0 196 218 253q68 17 160 17q163 0 312 -82l-90 -196q-104 57 -213 57t-109 -47q0 -23 46 -42t103.5 -40.5t107.5 -45.5t92 -59q96 -78 96 -196
q0 -141 -114 -216q-99 -65 -232 -65q-265 0 -408 101zM105 1315h232l92 -144l92 144h227l-211 -301h-221z" />
    <glyph glyph-name="uni0162" unicode="&#x162;" horiz-adv-x="1057" 
d="M72 1219v276h913v-276h-289v-1219h-327v1219h-297zM344 -578q58 82 58 213v256h264v-208q0 -105 -43 -192t-104 -171z" />
    <glyph glyph-name="uni0163" unicode="&#x163;" horiz-adv-x="705" 
d="M35 647v236h110v366h318v-366h149v-236h-149v-266q0 -51 25.5 -83t72.5 -32h78v-266h-199q-133 0 -214 92t-81 232v323h-110zM182 -578q58 82 58 213v256h264v-208q0 -105 -43 -192t-104 -171z" />
    <glyph glyph-name="Tcaron" unicode="&#x164;" horiz-adv-x="1057" 
d="M72 1219v276h913v-276h-289v-1219h-327v1219h-297zM211 1931h232l92 -144l92 144h227l-211 -301h-221z" />
    <glyph glyph-name="tcaron" unicode="&#x165;" horiz-adv-x="705" 
d="M35 647v236h110v366h318v-366h149v-236h-149v-266q0 -51 25.5 -83t72.5 -32h78v-266h-199q-133 0 -214 92t-81 232v323h-110zM645 978q58 82 58 213v256h264v-208q0 -105 -43 -192t-104 -171z" />
    <glyph glyph-name="Umacron" unicode="&#x16a;" horiz-adv-x="1581" 
d="M143 606v889h330v-889q0 -156 87 -251q89 -97 222 -97q139 0 234 97q96 98 96 251v889h326v-889q0 -294 -197 -469q-182 -162 -459 -162q-270 0 -448 162q-191 174 -191 469zM484 1691v135h614v-135h-614z" />
    <glyph glyph-name="umacron" unicode="&#x16b;" horiz-adv-x="1104" 
d="M96 352v531h318v-455q0 -90 26.5 -138t97 -48t108.5 47t38 129v465h317v-883h-317v92q-85 -117 -254 -117q-166 0 -256 110q-78 95 -78 267zM244 1075v135h614v-135h-614z" />
    <glyph glyph-name="Uring" unicode="&#x16e;" horiz-adv-x="1581" 
d="M143 606v889h330v-889q0 -156 87 -251q89 -97 222 -97q139 0 234 97q96 98 96 251v889h326v-889q0 -294 -197 -469q-182 -162 -459 -162q-270 0 -448 162q-191 174 -191 469zM520 1819q0 105 78 185q78 79 186 79t186 -79q78 -80 78 -185q0 -54 -21.5 -102t-56.5 -84
q-78 -79 -186 -79t-186 79q-78 80 -78 186zM675 1819q0 -47 31 -78t78 -31t78 31t31 78t-31 77.5t-78 30.5t-78 -30.5t-31 -77.5z" />
    <glyph glyph-name="uring" unicode="&#x16f;" horiz-adv-x="1104" 
d="M96 352v531h318v-455q0 -90 26.5 -138t97 -48t108.5 47t38 129v465h317v-883h-317v92q-85 -117 -254 -117q-166 0 -256 110q-78 95 -78 267zM283 1183q0 105 78 185q78 79 186 79t186 -79q78 -80 78 -185q0 -54 -21.5 -102t-56.5 -84q-78 -79 -186 -79t-186 79
q-78 80 -78 186zM438 1183q0 -47 31 -78t78 -31t78 31t31 78t-31 77.5t-78 30.5t-78 -30.5t-31 -77.5z" />
    <glyph glyph-name="Uhungarumlaut" unicode="&#x170;" horiz-adv-x="1581" 
d="M143 606v889h330v-889q0 -156 87 -251q89 -97 222 -97q139 0 234 97q96 98 96 251v889h326v-889q0 -294 -197 -469q-182 -162 -459 -162q-270 0 -448 162q-191 174 -191 469zM457 1651l190 342h252l-190 -342h-252zM801 1651l190 342h252l-190 -342h-252z" />
    <glyph glyph-name="uhungarumlaut" unicode="&#x171;" horiz-adv-x="1104" 
d="M96 352v531h318v-455q0 -90 26.5 -138t97 -48t108.5 47t38 129v465h317v-883h-317v92q-85 -117 -254 -117q-166 0 -256 110q-78 95 -78 267zM232 1014l190 342h252l-190 -342h-252zM576 1014l190 342h252l-190 -342h-252z" />
    <glyph glyph-name="Uogonek" unicode="&#x172;" horiz-adv-x="1581" 
d="M143 606v889h330v-889q0 -156 87 -251q89 -97 222 -97q139 0 234 97q96 98 96 251v889h326v-889q0 -232 -128 -395q-118 -151 -315 -207q-92 -29 -140 -76t-48 -80q0 -63 78 -63q65 0 129 43l98 -123q-89 -96 -276 -96q-119 0 -191 43t-72 127q0 118 123 203
q-242 26 -392 183q-161 170 -161 441z" />
    <glyph glyph-name="uogonek" unicode="&#x173;" horiz-adv-x="1104" 
d="M96 352v531h318v-455q0 -90 26.5 -138t97 -48t108.5 47t38 129v465h317v-883q-133 -11 -209 -68q-55 -43 -55 -81q0 -70 78 -70q48 0 98 43l99 -123q-89 -96 -256 -96q-119 0 -185.5 43t-66.5 127q0 135 180 225v92q-85 -117 -254 -117q-166 0 -256 110q-78 95 -78 267z
" />
    <glyph glyph-name="Ydieresis" unicode="&#x178;" horiz-adv-x="1413" 
d="M31 1495h372l275 -518q7 -14 15.5 -41t13.5 -39q2 12 8 31.5t20 48.5l273 518h374l-516 -889v-606h-327v606zM357 1618v266h258v-266h-258zM795 1618v266h258v-266h-258z" />
    <glyph glyph-name="Zacute" unicode="&#x179;" horiz-adv-x="1352" 
d="M59 0l689 1219h-615v276h1122l-688 -1219h672v-276h-1180zM496 1651l157 342h293l-223 -342h-227z" />
    <glyph glyph-name="zacute" unicode="&#x17a;" horiz-adv-x="973" 
d="M18 0l400 592q15 25 37 47q-9 -2 -17 -2h-360v246h866l-391 -590q-6 -8 -12 -16.5t-13.5 -16.5t-13.5 -18q10 0 21 2l40 2h318v-246h-875zM340 1014l157 342h293l-223 -342h-227z" />
    <glyph glyph-name="Zdotaccent" unicode="&#x17b;" horiz-adv-x="1352" 
d="M59 0l689 1219h-615v276h1122l-688 -1219h672v-276h-1180zM541 1630v266h258v-266h-258z" />
    <glyph glyph-name="zdotaccent" unicode="&#x17c;" horiz-adv-x="973" 
d="M18 0l400 592q15 25 37 47q-9 -2 -17 -2h-360v246h866l-391 -590q-6 -8 -12 -16.5t-13.5 -16.5t-13.5 -18q10 0 21 2l40 2h318v-246h-875zM357 1014v266h258v-266h-258z" />
    <glyph glyph-name="Zcaron" unicode="&#x17d;" horiz-adv-x="1352" 
d="M59 0l689 1219h-615v276h1122l-688 -1219h672v-276h-1180zM356 1919h232l92 -144l92 144h227l-211 -301h-221z" />
    <glyph glyph-name="zcaron" unicode="&#x17e;" horiz-adv-x="973" 
d="M18 0l400 592q15 25 37 47q-9 -2 -17 -2h-360v246h866l-391 -590q-6 -8 -12 -16.5t-13.5 -16.5t-13.5 -18q10 0 21 2l40 2h318v-246h-875zM167 1315h232l92 -144l92 144h227l-211 -301h-221z" />
    <glyph glyph-name="florin" unicode="&#x192;" horiz-adv-x="750" 
d="M-2 -367l22 267h52q43 0 59 68q4 18 4 32l58 647h-111l20 236h111l31 364q10 123 81.5 198t200.5 75h166l-22 -267h-52q-51 0 -65 -100l-23 -270h117l-20 -236h-117l-66 -741q-10 -123 -80.5 -198t-199.5 -75h-166z" />
    <glyph glyph-name="circumflex" unicode="&#x2c6;" horiz-adv-x="1024" 
d="M190 1014l211 301h222l211 -301h-232l-92 143l-92 -143h-228z" />
    <glyph glyph-name="caron" unicode="&#x2c7;" horiz-adv-x="1024" 
d="M186 1315h232l92 -144l92 144h227l-211 -301h-221z" />
    <glyph glyph-name="breve" unicode="&#x2d8;" horiz-adv-x="1024" 
d="M209 1305h153q42 -150 150 -150q90 0 134 101q11 26 16 49h153q-12 -148 -95 -224.5t-208 -76.5t-208 76.5t-95 224.5z" />
    <glyph glyph-name="dotaccent" unicode="&#x2d9;" horiz-adv-x="1024" 
d="M381 1014v266h258v-266h-258z" />
    <glyph glyph-name="ogonek" unicode="&#x2db;" horiz-adv-x="1024" 
d="M256 -201q0 123 207 226h135q-174 -119 -174 -218q0 -45 24.5 -62t53.5 -17q73 0 137 43l55 -76q-80 -66 -202 -66q-91 0 -161 45q-75 47 -75 125z" />
    <glyph glyph-name="tilde" unicode="&#x2dc;" horiz-adv-x="1024" 
d="M123 1014q0 116 69.5 185t192.5 69q54 0 115 -28q109 -50 147 -50q84 0 84 74h170q0 -119 -69.5 -186.5t-192.5 -67.5q-53 0 -114 28q-111 49 -148 49q-84 0 -84 -73h-170z" />
    <glyph glyph-name="hungarumlaut" unicode="&#x2dd;" horiz-adv-x="1024" 
d="M119 1014l190 342h252l-190 -342h-252zM463 1014l190 342h252l-190 -342h-252z" />
    <glyph glyph-name="uni0401" unicode="&#x401;" horiz-adv-x="1171" 
d="M154 0v1495h870v-276h-543v-351h504v-276h-504v-316h574v-276h-901zM232 1618v266h258v-266h-258zM670 1618v266h258v-266h-258z" />
    <glyph glyph-name="uni0402" unicode="&#x402;" horiz-adv-x="1503" 
d="M72 1219v276h913v-276h-289v-428q106 116 316 116q298 0 372 -253q23 -76 23 -165v-583q0 -123 -64.5 -198t-193.5 -75h-193v267h78q33 0 44.5 26.5t11.5 73.5v414q0 106 -39 166.5t-140.5 60.5t-156 -54.5t-58.5 -146.5v-440h-327v1219h-297z" />
    <glyph glyph-name="uni0403" unicode="&#x403;" horiz-adv-x="1067" 
d="M154 0v1495h800v-276h-473v-1219h-327zM447 1641l157 342h293l-223 -342h-227z" />
    <glyph glyph-name="uni0404" unicode="&#x404;" horiz-adv-x="1475" 
d="M82 756q0 168 59.5 308t162 241.5t240.5 158t300 56.5t290 -51.5t244 -170.5l-184 -215q-150 150 -354 150q-160 0 -266.5 -96.5t-141.5 -249.5h676v-277h-676q31 -166 135.5 -257t278.5 -91q176 0 303 104q37 31 74 66l188 -215q-223 -242 -553 -242q-182 0 -323.5 54.5
t-241.5 156.5q-211 214 -211 570z" />
    <glyph glyph-name="uni0405" unicode="&#x405;" horiz-adv-x="1214" 
d="M80 162l170 229q65 -53 155.5 -91t192.5 -38t141 37t39 98.5t-44 101.5t-107.5 69.5t-131 54t-118.5 53.5t-100.5 63.5t-86.5 82.5q-77 102 -77 241t46 221t121 134q146 102 365 102q107 0 223.5 -31t208.5 -98l-147 -244q-49 37 -126 61.5t-146.5 24.5t-108.5 -14.5
t-63 -36.5q-46 -39 -46 -92.5t33 -88t85 -62.5t116.5 -51.5t125 -50t114 -59.5t96.5 -81q96 -107 96 -273q0 -213 -140.5 -331t-383.5 -118q-156 0 -275 51.5t-227 135.5z" />
    <glyph glyph-name="uni0406" unicode="&#x406;" horiz-adv-x="635" 
d="M154 0v1495h327v-1495h-327z" />
    <glyph glyph-name="uni0407" unicode="&#x407;" horiz-adv-x="635" 
d="M-30 1618v266h258v-266h-258zM154 0v1495h327v-1495h-327zM408 1618v266h258v-266h-258z" />
    <glyph glyph-name="uni0408" unicode="&#x408;" horiz-adv-x="883" 
d="M72 0v281h104q117 0 176.5 61t59.5 205v948h327v-1022q0 -204 -147 -341q-144 -132 -350 -132h-170z" />
    <glyph glyph-name="uni0409" unicode="&#x409;" horiz-adv-x="2128" 
d="M72 0v276h37q47 0 72.5 32t25.5 83v1104h1155v-594h168q254 0 398 -115q149 -120 149 -326q0 -106 -38 -191t-109 -145q-143 -124 -400 -124h-496v1219h-499v-895q0 -140 -81 -232t-214 -92h-168zM1362 276h168q219 0 219 179q0 92 -54.5 131t-164.5 39h-168v-349z" />
    <glyph glyph-name="uni040A" unicode="&#x40a;" horiz-adv-x="2095" 
d="M154 0v1495h327v-594h520v594h328v-594h168q254 0 399 -115q148 -120 148 -326q0 -106 -38 -191t-108 -145q-144 -124 -401 -124h-496v625h-520v-625h-327zM1329 276h168q219 0 219 179q0 92 -54 131t-165 39h-168v-349z" />
    <glyph glyph-name="uni040B" unicode="&#x40b;" horiz-adv-x="1503" 
d="M72 1219v276h913v-276h-289v-428q106 116 316 116q298 0 372 -253q23 -76 23 -165v-489h-317v414q0 106 -39 166.5t-140.5 60.5t-156 -54.5t-58.5 -146.5v-440h-327v1219h-297z" />
    <glyph glyph-name="uni040C" unicode="&#x40c;" horiz-adv-x="1458" 
d="M154 0v1495h327v-543l267 299q119 133 252 187q136 57 350 57v-276q-123 0 -212 -38t-167 -124l-183 -199l611 -858h-398l-436 612l-84 -92v-520h-327zM650 1618l157 342h293l-223 -342h-227z" />
    <glyph glyph-name="uni040E" unicode="&#x40e;" horiz-adv-x="1167" 
d="M31 1495h352l186 -623q11 -34 19 -67t10 -41q0 8 29 108l161 623h349l-447 -1300q-31 -89 -89 -142t-163 -53h-245v260h129q47 0 83.5 24.5t36.5 59.5q0 57 -24 127zM295 1932h153q42 -150 150 -150q90 0 134 101q11 26 16 49h153q-12 -148 -95 -224.5t-208 -76.5
t-208 76.5t-95 224.5z" />
    <glyph glyph-name="uni040F" unicode="&#x40f;" horiz-adv-x="1462" 
d="M154 0v1495h327v-1219h500v1219h328v-1495h-418v-367h-320v367h-417z" />
    <glyph glyph-name="uni0410" unicode="&#x410;" horiz-adv-x="1454" 
d="M31 0l534 1495h316l542 -1495h-360l-115 377h-454l-117 -377h-346zM580 653h286l-110 365q-27 86 -33 119q-2 -4 -11.5 -42t-19.5 -77z" />
    <glyph glyph-name="uni0411" unicode="&#x411;" horiz-adv-x="1247" 
d="M154 0v1495h800v-276h-473v-318h168q254 0 399 -115q148 -120 148 -326q0 -106 -38 -191t-108 -145q-144 -124 -401 -124h-495zM481 276h168q219 0 219 179q0 92 -54 131t-165 39h-168v-349z" />
    <glyph glyph-name="uni0412" unicode="&#x412;" horiz-adv-x="1352" 
d="M154 0v1495h518q236 0 378 -107t142 -294q0 -113 -63.5 -198t-161.5 -122q134 -21 216 -120q87 -104 87 -248q0 -82 -39 -161t-109 -133q-145 -112 -401 -112h-567zM481 276h240q117 0 164 44.5t47 121.5q0 154 -211 154h-240v-320zM481 872h160q229 0 229 183
q0 94 -59 129t-170 35h-160v-347z" />
    <glyph glyph-name="uni0413" unicode="&#x413;" horiz-adv-x="1067" 
d="M154 0v1495h800v-276h-473v-1219h-327z" />
    <glyph glyph-name="uni0414" unicode="&#x414;" horiz-adv-x="1528" 
d="M-4 276h108q79 0 91 115l81 1104h1074v-1219h153v-643h-319v367h-869v-367h-319v643zM487 276h535v943h-436l-64 -834q-8 -82 -35 -109z" />
    <glyph glyph-name="uni0415" unicode="&#x415;" horiz-adv-x="1171" 
d="M154 0v1495h870v-276h-543v-351h504v-276h-504v-316h574v-276h-901z" />
    <glyph glyph-name="uni0416" unicode="&#x416;" horiz-adv-x="2281" 
d="M59 0l611 858l-183 199q-77 86 -166.5 124t-211.5 38v276q308 0 481 -132q61 -46 121 -112l266 -299v543h328v-543l266 299q119 133 251 187q137 57 351 57v-276q-123 0 -212 -38t-167 -124l-182 -199l610 -858h-397l-436 612l-84 -92v-520h-328v520l-84 92l-436 -612
h-398z" />
    <glyph glyph-name="uni0417" unicode="&#x417;" horiz-adv-x="1225" 
d="M33 197l174 204q152 -139 360 -139q103 0 173.5 52.5t70.5 150.5t-72.5 137t-208.5 39h-153v266h190q105 0 156 38t51 122t-60.5 125t-152.5 41t-159.5 -19.5t-133.5 -74.5l-153 215q170 134 345 158q64 8 148 8t174 -29t161 -81q159 -116 159 -292q0 -112 -55.5 -196
t-157.5 -123q117 -33 183.5 -124t66.5 -206t-40 -204t-114 -153q-157 -137 -418 -137q-327 0 -534 222z" />
    <glyph glyph-name="uni0418" unicode="&#x418;" horiz-adv-x="1610" 
d="M154 0h282l660 870q28 42 37 60l-4 -74v-856h327v1495h-282l-660 -862q-16 -21 -25 -39.5t-12 -22.5l5 76v848h-328v-1495z" />
    <glyph glyph-name="uni0419" unicode="&#x419;" horiz-adv-x="1610" 
d="M154 0h282l660 870q28 42 37 60l-4 -74v-856h327v1495h-282l-660 -862q-16 -21 -25 -39.5t-12 -22.5l5 76v848h-328v-1495zM518 1921h153q42 -150 150 -150q90 0 134 101q11 26 16 49h153q-12 -148 -95 -224.5t-208 -76.5t-208 76.5t-95 224.5z" />
    <glyph glyph-name="uni041A" unicode="&#x41a;" horiz-adv-x="1458" 
d="M154 0v1495h327v-543l267 299q119 133 252 187q136 57 350 57v-276q-123 0 -212 -38t-167 -124l-183 -199l611 -858h-398l-436 612l-84 -92v-520h-327z" />
    <glyph glyph-name="uni041B" unicode="&#x41b;" horiz-adv-x="1516" 
d="M72 0v276h37q47 0 72.5 32t25.5 83v1104h1155v-1495h-328v1219h-499v-895q0 -140 -81 -232t-214 -92h-168z" />
    <glyph glyph-name="uni041C" unicode="&#x41c;" horiz-adv-x="1802" 
d="M154 0v1495h321l404 -729q10 -21 18 -42.5t10 -25.5q0 11 27 68l381 729h334v-1495h-328v862q0 91 6 103q-2 -4 -9 -22.5t-18 -35.5l-333 -612h-125l-340 612q-20 34 -27 58l6 -103v-862h-327z" />
    <glyph glyph-name="uni041D" unicode="&#x41d;" horiz-adv-x="1483" 
d="M154 0v1495h327v-621h520v621h328v-1495h-328v598h-520v-598h-327z" />
    <glyph glyph-name="uni041E" unicode="&#x41e;" horiz-adv-x="1704" 
d="M82 754.5q0 160.5 55.5 300t156.5 243t243.5 163t316.5 59.5q346 0 559 -216q100 -102 154.5 -243t54.5 -305t-55.5 -306.5t-156.5 -248t-243.5 -166t-316.5 -60.5t-315.5 61.5t-241.5 168t-155.5 248t-55.5 302zM420 754q0 -205 128 -350q125 -142 302 -142
q194 0 318 150q116 141 116 344q0 96 -30.5 183t-87.5 153q-122 141 -312 141q-187 0 -314 -147q-120 -139 -120 -332z" />
    <glyph glyph-name="uni041F" unicode="&#x41f;" horiz-adv-x="1462" 
d="M154 0v1495h1155v-1495h-328v1219h-500v-1219h-327z" />
    <glyph glyph-name="uni0420" unicode="&#x420;" horiz-adv-x="1247" 
d="M154 0v1495h495q254 0 399 -115q148 -120 148 -326q0 -106 -38 -191t-108 -145q-144 -124 -401 -124h-168v-594h-327zM481 870h168q219 0 219 179q0 92 -54 131t-165 39h-168v-349z" />
    <glyph glyph-name="uni0421" unicode="&#x421;" horiz-adv-x="1475" 
d="M82 756q0 168 59.5 308t162 241.5t240.5 158t300 56.5t290 -51.5t244 -170.5l-184 -215q-150 150 -354 150q-190 0 -306 -135q-114 -133 -114 -353.5t108.5 -351.5t317.5 -131q176 0 303 104q37 31 74 66l188 -215q-223 -242 -553 -242q-182 0 -323.5 54.5t-241.5 156.5
q-211 214 -211 570z" />
    <glyph glyph-name="uni0422" unicode="&#x422;" horiz-adv-x="1057" 
d="M72 1219v276h913v-276h-289v-1219h-327v1219h-297z" />
    <glyph glyph-name="uni0423" unicode="&#x423;" horiz-adv-x="1167" 
d="M31 1495h352l186 -623q11 -34 19 -67t10 -41q0 8 29 108l161 623h349l-447 -1300q-31 -89 -89 -142t-163 -53h-245v260h129q47 0 83.5 24.5t36.5 59.5q0 57 -24 127z" />
    <glyph glyph-name="uni0424" unicode="&#x424;" horiz-adv-x="1780" 
d="M82 752q0 273 176 455q182 188 467 188v100h328v-100q290 0 469 -183q176 -180 176 -460q0 -277 -177 -462q-183 -192 -468 -192v-98h-328v98q-286 0 -467 192q-176 186 -176 462zM393 752q0 -162 99 -271q101 -110 233 -110v749q-143 0 -240 -114q-92 -108 -92 -254z
M1053 371q148 0 243 119q88 109 88 262q0 156 -91 259q-96 109 -240 109v-749z" />
    <glyph glyph-name="uni0425" unicode="&#x425;" horiz-adv-x="1432" 
d="M49 0l479 815l-405 680h362l228 -391l215 391h366l-401 -680l489 -815h-366l-303 528l-299 -528h-365z" />
    <glyph glyph-name="uni0426" unicode="&#x426;" horiz-adv-x="1487" 
d="M154 0v1495h327v-1219h500v1219h328v-1219h153v-643h-319v367h-989z" />
    <glyph glyph-name="uni0427" unicode="&#x427;" horiz-adv-x="1346" 
d="M113 975v520h327v-444q0 -109 43 -168.5t159 -59.5t169 58.5t53 158.5v455h328v-1495h-328v674q-121 -117 -329 -117q-213 0 -322 120q-100 110 -100 298z" />
    <glyph glyph-name="uni0428" unicode="&#x428;" horiz-adv-x="2208" 
d="M154 0v1495h327v-1219h459v1219h328v-1219h458v1219h328v-1495h-1900z" />
    <glyph glyph-name="uni0429" unicode="&#x429;" horiz-adv-x="2232" 
d="M154 0v1495h327v-1219h459v1219h328v-1219h458v1219h328v-1219h154v-643h-320v367h-1734z" />
    <glyph glyph-name="uni042A" unicode="&#x42a;" horiz-adv-x="1462" 
d="M72 1219v276h624v-594h168q254 0 398 -115q149 -120 149 -326q0 -106 -38 -191t-109 -145q-143 -124 -400 -124h-495v1219h-297zM696 276h168q219 0 219 179q0 92 -54 131t-165 39h-168v-349z" />
    <glyph glyph-name="uni042B" unicode="&#x42b;" horiz-adv-x="1788" 
d="M154 0v1495h327v-594h168q254 0 399 -115q148 -120 148 -326q0 -106 -38 -191t-108 -145q-144 -124 -401 -124h-495zM481 276h168q219 0 219 179q0 92 -54 131t-165 39h-168v-349zM1307 0v1495h327v-1495h-327z" />
    <glyph glyph-name="uni042C" unicode="&#x42c;" horiz-adv-x="1247" 
d="M154 0v1495h327v-594h168q254 0 399 -115q148 -120 148 -326q0 -106 -38 -191t-108 -145q-144 -124 -401 -124h-495zM481 276h168q219 0 219 179q0 92 -54 131t-165 39h-168v-349z" />
    <glyph glyph-name="uni042D" unicode="&#x42d;" horiz-adv-x="1475" 
d="M64 217q223 -242 553 -242q182 0 323.5 54.5t241.5 156.5q211 214 211 570q0 168 -59.5 308t-162 241.5t-240.5 158t-300 56.5t-290 -51.5t-244 -170.5l184 -215q150 150 354 150q160 0 266.5 -96.5t141.5 -249.5h-676v-277h676q-31 -166 -135.5 -257t-278.5 -91
q-176 0 -303 104q-37 31 -74 66z" />
    <glyph glyph-name="uni042E" unicode="&#x42e;" horiz-adv-x="2380" 
d="M154 0v1495h327v-621h285q36 280 244 461q211 185 520 185q346 0 559 -216q100 -102 154.5 -243t54.5 -305t-55.5 -306.5t-156.5 -248t-243.5 -166t-305.5 -60.5t-291 47.5t-225 131.5q-198 171 -249 444h-291v-598h-327zM1096 754q0 -205 128 -350q125 -142 302 -142
q194 0 318 150q116 141 116 344q0 96 -31 183t-87 153q-121 141 -312 141q-187 0 -314 -147q-120 -139 -120 -332z" />
    <glyph glyph-name="uni042F" unicode="&#x42f;" horiz-adv-x="1350" 
d="M82 0v276q88 0 164 50.5t149 167.5l84 131q-147 41 -240.5 148.5t-93.5 275.5q0 197 139 319q146 127 375 127h537v-1495h-328v707l-213 -363q-154 -266 -388 -324q-83 -20 -185 -20zM473 1043.5q0 -82.5 50 -134t136 -51.5h209v361h-209q-77 0 -131.5 -46.5t-54.5 -129z
" />
    <glyph glyph-name="uni0430" unicode="&#x430;" horiz-adv-x="1083" 
d="M45 240q0 112 57.5 176.5t147.5 101.5q151 62 420 72v31q0 47 -32 64t-99 17q-166 0 -316 -75l-98 190q162 90 402.5 90t350 -78.5t109.5 -267.5v-561h-317v68q-86 -58 -126 -70q-77 -23 -160 -23t-141.5 19.5t-102.5 55.5q-95 78 -95 190zM383 281.5q0 -37.5 31.5 -59
t70.5 -21.5q115 0 185 63v148q-192 0 -262 -68q-25 -25 -25 -62.5z" />
    <glyph glyph-name="uni0431" unicode="&#x431;" horiz-adv-x="1118" 
d="M59 632.5q0 192.5 52.5 355.5t160.5 276q219 229 662 229v-268q-420 0 -516 -248q-31 -80 -31 -184q37 53 111.5 83.5t160.5 30.5t163 -39t132 -102q113 -133 113 -309q0 -206 -151 -347q-144 -137 -347 -137q-349 0 -468 345q-42 122 -42 314.5zM387 443.5
q0 -91.5 49 -149.5t130 -58t132.5 58t51.5 150.5t-51.5 147.5t-131.5 55t-130 -56t-50 -147.5z" />
    <glyph glyph-name="uni0432" unicode="&#x432;" horiz-adv-x="995" 
d="M102 0v883h469q148 0 238 -62.5t90 -175.5q0 -65 -38 -113.5t-95 -70.5q75 -12 127 -72q51 -59 51 -139q0 -119 -92 -184.5t-252 -65.5h-498zM399 207h115q68 0 96.5 18.5t28.5 57.5q0 71 -125 71h-115v-147zM399 522h68q135 0 135 80q0 43 -35 58.5t-100 15.5h-68v-154z
" />
    <glyph glyph-name="uni0433" unicode="&#x433;" horiz-adv-x="725" 
d="M102 0v883h590v-236h-272v-647h-318z" />
    <glyph glyph-name="uni0434" unicode="&#x434;" horiz-adv-x="1210" 
d="M16 244h60q85 0 98 114l62 525h819v-639h139v-611h-317v367h-543v-367h-318v611zM461 244h276v403h-211l-37 -323q-6 -58 -28 -80z" />
    <glyph glyph-name="uni0435" unicode="&#x435;" horiz-adv-x="1032" 
d="M51 449q0 211 129 339q122 119 316 119q213 0 340 -139q131 -142 131 -381h-619q8 -78 56.5 -132t147.5 -54t165.5 23.5t124.5 70.5l135 -172q-100 -84 -204.5 -116t-213 -32t-199 27t-158.5 84q-151 125 -151 363zM350 555h291q-6 68 -46 107.5t-105.5 39.5t-96.5 -42
t-43 -105z" />
    <glyph glyph-name="uni0436" unicode="&#x436;" horiz-adv-x="1706" 
d="M43 0l338 506q-78 78 -130 101q-87 40 -198 40v236q187 0 266.5 -30t129 -64.5t98.5 -90.5l147 -159v344h318v-344l147 159q133 152 332 176q70 9 162 9v-236q-111 0 -165 -25q-85 -38 -163 -116l338 -506h-377l-184 281l-90 -97v-184h-318v184l-90 97l-184 -281h-377z
" />
    <glyph glyph-name="uni0437" unicode="&#x437;" horiz-adv-x="858" 
d="M31 106l153 179q68 -68 174 -68q134 0 134 84q0 78 -166 78h-90v158h112q60 0 90.5 13t30.5 48q0 68 -97 68t-155 -50l-137 193q82 55 162 76.5t170 21.5t156.5 -18.5t114.5 -50.5q103 -70 103 -179q0 -65 -33.5 -115t-93.5 -73q70 -18 109 -72.5t39 -122t-25.5 -122
t-75.5 -94.5q-105 -85 -296 -85q-235 0 -379 131z" />
    <glyph glyph-name="uni0438" unicode="&#x438;" horiz-adv-x="1067" 
d="M102 0v883h287v-387q0 -17 -1 -29t-1 -16q4 12 21 34l297 398h260v-883h-287v383q0 12 1 24.5t1 16.5l-21 -33l-297 -391h-260z" />
    <glyph glyph-name="uni0439" unicode="&#x439;" horiz-adv-x="1067" 
d="M102 0v883h287v-387q0 -17 -1 -29t-1 -16q4 12 21 34l297 398h260v-883h-287v383q0 12 1 24.5t1 16.5l-21 -33l-297 -391h-260zM240 1305h153q42 -150 150 -150q90 0 134 101q11 26 16 49h153q-12 -148 -95 -224.5t-208 -76.5t-208 76.5t-95 224.5z" />
    <glyph glyph-name="uni043A" unicode="&#x43a;" horiz-adv-x="1114" 
d="M102 0v883h318v-344l147 159q133 152 332 176q70 9 162 9v-236q-111 0 -165 -25q-85 -38 -163 -116l338 -506h-377l-184 281l-90 -97v-184h-318z" />
    <glyph glyph-name="uni043B" unicode="&#x43b;" horiz-adv-x="1139" 
d="M41 0v266h16q47 0 73 32t26 83v502h880v-883h-317v647h-246v-323q0 -140 -81 -232t-214 -92h-137z" />
    <glyph glyph-name="uni043C" unicode="&#x43c;" horiz-adv-x="1206" 
d="M102 0v883h293l209 -363l201 363h299v-883h-295v391l-145 -235h-115l-150 247v-403h-297z" />
    <glyph glyph-name="uni043D" unicode="&#x43d;" horiz-adv-x="1077" 
d="M102 0v883h318v-320h235v320h320v-883h-320v317h-235v-317h-318z" />
    <glyph glyph-name="uni043E" unicode="&#x43e;" horiz-adv-x="1055" 
d="M51 442q0 193 143 332q137 133 332 133q198 0 336 -131q142 -132 142 -330q0 -100 -39 -186t-103 -148q-141 -137 -334 -137q-197 0 -336 133q-141 135 -141 334zM360 464q0 -61 10.5 -98.5t31.5 -68.5q49 -70 126 -70q79 0 126 70q40 61 40 147q0 37 -10 75t-30 67
q-48 69 -128 69q-75 0 -124 -69q-42 -61 -42 -122z" />
    <glyph glyph-name="uni043F" unicode="&#x43f;" horiz-adv-x="1085" 
d="M102 0v883h881v-883h-317v647h-246v-647h-318z" />
    <glyph glyph-name="uni0440" unicode="&#x440;" horiz-adv-x="1151" 
d="M102 -367v1250h318v-90q37 53 111.5 83.5t160.5 30.5t163 -38t131 -101t84 -148t30 -176.5t-30 -176.5t-84 -149q-119 -143 -300 -143q-80 0 -154.5 31t-111.5 84v-457h-318zM420 439q0 -91 50 -147t130 -56t131 55t51 147t-51 150.5t-132 58.5t-130 -58.5t-49 -149.5z
" />
    <glyph glyph-name="uni0441" unicode="&#x441;" horiz-adv-x="946" 
d="M51 438q0 195 137 332t349 137q221 0 358 -164l-182 -170q-76 82 -169 82t-145.5 -61.5t-52.5 -155.5q0 -84 52 -146q57 -67 128.5 -67t109.5 23.5t75 66.5l213 -149q-80 -100 -169 -145.5t-206 -45.5t-206 36t-153 97q-139 133 -139 330z" />
    <glyph glyph-name="uni0442" unicode="&#x442;" horiz-adv-x="788" 
d="M4 647v236h780v-236h-231v-647h-317v647h-232z" />
    <glyph glyph-name="uni0443" unicode="&#x443;" horiz-adv-x="987" 
d="M20 883h334l121 -402q18 -59 29 -110q2 16 7 33.5t10 37t11 39.5l105 402h330l-371 -1080q-31 -88 -89 -141t-163 -53h-184v260h67q47 0 84 24.5t37 59.5q0 57 -24 127z" />
    <glyph glyph-name="uni0444" unicode="&#x444;" horiz-adv-x="1780" 
d="M51 440q0 188 114 324q119 143 300 143q80 0 154.5 -30.5t111.5 -83.5v702h318v-702q36 53 111 83.5t161 30.5t163 -38t131 -101t84 -148t30 -176.5t-30 -176.5t-84 -149q-119 -143 -300 -143q-80 0 -155 31t-111 84v-457h-318v457q-37 -53 -111.5 -84t-160.5 -31
t-163 38t-131 101q-114 135 -114 326zM369 444.5q0 -92.5 51 -150.5t132 -58t130 58t49 149.5t-50 147.5t-130 56t-131 -55t-51 -147.5zM1049 439q0 -91 50 -147t130 -56t131 55t51 147t-51 150.5t-132 58.5t-130 -58.5t-49 -149.5z" />
    <glyph glyph-name="uni0445" unicode="&#x445;" horiz-adv-x="995" 
d="M25 0l305 453l-273 430h336l76 -138l33 -65q0 9 30 65l70 138h340l-276 -432l305 -451h-340l-90 150q-4 8 -11.5 20t-15.5 26.5t-18 32.5q-9 -12 -16 -25q-12 -24 -29 -52l-93 -152h-333z" />
    <glyph glyph-name="uni0446" unicode="&#x446;" horiz-adv-x="1139" 
d="M102 0v883h318v-639h246v639h317v-639h139v-611h-317v367h-703z" />
    <glyph glyph-name="uni0447" unicode="&#x447;" horiz-adv-x="1090" 
d="M82 625v258h317v-183q0 -90 27 -138t97.5 -48t108.5 47t38 129v193h317v-883h-317v365q-84 -117 -254 -117q-167 0 -256 110q-78 96 -78 267z" />
    <glyph glyph-name="uni0448" unicode="&#x448;" horiz-adv-x="1573" 
d="M102 0v883h318v-639h209v639h315v-639h211v639h315v-883h-1368z" />
    <glyph glyph-name="uni0449" unicode="&#x449;" horiz-adv-x="1626" 
d="M102 0v883h318v-639h209v639h315v-639h211v639h315v-639h140v-611h-318v367h-1190z" />
    <glyph glyph-name="uni044A" unicode="&#x44a;" horiz-adv-x="1212" 
d="M31 647v236h583v-207h203q158 0 251 -89t93 -243t-92 -249t-252 -95h-514v647h-272zM614 236h99q129 0 129 102t-129 102h-99v-204z" />
    <glyph glyph-name="uni044B" unicode="&#x44b;" horiz-adv-x="1468" 
d="M102 0v883h312v-207h202q158 0 251.5 -89t93.5 -243t-92.5 -249t-252.5 -95h-514zM414 236h98q129 0 129 102t-129 102h-98v-204zM1048 0v883h318v-883h-318z" />
    <glyph glyph-name="uni044C" unicode="&#x44c;" horiz-adv-x="1012" 
d="M102 0v883h312v-207h202q158 0 251.5 -89t93.5 -243t-92.5 -249t-252.5 -95h-514zM414 236h98q129 0 129 102t-129 102h-98v-204z" />
    <glyph glyph-name="uni044D" unicode="&#x44d;" horiz-adv-x="946" 
d="M22 166q80 -100 169 -145.5t206 -45.5t206 36t153 97q139 133 139 330q0 195 -137 332t-349 137q-221 0 -358 -164l182 -170q76 82 176 82q127 0 177 -125h-261v-168h263q-21 -57 -67 -97t-109.5 -40t-101.5 23.5t-75 66.5z" />
    <glyph glyph-name="uni044E" unicode="&#x44e;" horiz-adv-x="1546" 
d="M102 0v883h318v-320h139q42 151 171 247q129 97 288 97q197 0 336 -131q141 -132 141 -330q0 -100 -39 -186t-103.5 -148.5t-151.5 -99.5t-175 -37t-163 25t-135 70q-126 95 -169 247h-139v-317h-318zM852 465q0 -62 10 -99.5t32 -68.5q48 -70 126 -70t124 70
q42 63 42 147q0 37 -10.5 75t-31.5 67q-47 69 -126 69q-76 0 -124 -69q-42 -59 -42 -121z" />
    <glyph glyph-name="uni044F" unicode="&#x44f;" horiz-adv-x="1010" 
d="M72 598q0 126 99 204q102 81 265 81h471v-883h-307v379l-108 -176q-70 -113 -151 -155q-89 -48 -265 -48v225q55 0 95 15.5t77 70.5l24 37q-200 68 -200 250zM387 577.5q0 -38.5 29.5 -64.5t81.5 -26h102v172h-102q-45 0 -78 -21.5t-33 -60z" />
    <glyph glyph-name="uni0451" unicode="&#x451;" horiz-adv-x="1032" 
d="M51 449q0 211 129 339q122 119 316 119q213 0 340 -139q131 -142 131 -381h-619q8 -78 56.5 -132t147.5 -54t165.5 23.5t124.5 70.5l135 -172q-100 -84 -204.5 -116t-213 -32t-199 27t-158.5 84q-151 125 -151 363zM151 1014v266h258v-266h-258zM350 555h291
q-6 68 -46 107.5t-105.5 39.5t-96.5 -42t-43 -105zM589 1014v266h258v-266h-258z" />
    <glyph glyph-name="uni0452" unicode="&#x452;" horiz-adv-x="1104" 
d="M31 1063v270h71v162h318v-162h225v-270h-225v-272q85 116 254 116q167 0 256 -109q78 -95 78 -268v-624q0 -123 -64.5 -198t-193.5 -75h-193v267h78q33 0 44 26.5t11 73.5v455q0 90 -26.5 138t-97 48t-108.5 -47t-38 -129v-465h-318v1063h-71z" />
    <glyph glyph-name="uni0453" unicode="&#x453;" horiz-adv-x="733" 
d="M102 0v883h590v-236h-272v-647h-318zM251 1014l157 342h293l-223 -342h-227z" />
    <glyph glyph-name="uni0454" unicode="&#x454;" horiz-adv-x="946" 
d="M51 438q0 195 137 332t349 137q221 0 358 -164l-182 -170q-76 82 -176 82q-127 0 -177 -125h261v-168h-263q21 -57 67 -97t109.5 -40t101.5 23.5t75 66.5l213 -149q-80 -100 -169 -145.5t-206 -45.5t-206 36t-153 97q-139 133 -139 330z" />
    <glyph glyph-name="uni0455" unicode="&#x455;" horiz-adv-x="848" 
d="M43 76l102 200q127 -75 230.5 -75t103.5 49q0 35 -35.5 55.5t-85 37.5t-98.5 37.5t-91 53.5q-95 75 -95 203q0 196 218 253q68 17 160 17q163 0 312 -82l-90 -196q-104 57 -213 57t-109 -47q0 -23 46 -42t103.5 -40.5t107.5 -45.5t92 -59q96 -78 96 -196
q0 -141 -114 -216q-99 -65 -232 -65q-265 0 -408 101z" />
    <glyph glyph-name="uni0456" unicode="&#x456;" horiz-adv-x="522" 
d="M102 0v883h318v-883h-318zM102 1026v291h318v-291h-318z" />
    <glyph glyph-name="uni0457" unicode="&#x457;" horiz-adv-x="522" 
d="M-76 1014v266h258v-266h-258zM102 0v883h318v-883h-318zM336 1014v266h258v-266h-258z" />
    <glyph glyph-name="uni0458" unicode="&#x458;" horiz-adv-x="522" 
d="M-31 -100h78q33 0 44 26.5t11 73.5v883h318v-977q0 -123 -64.5 -198t-193.5 -75h-193v267zM102 1026v291h318v-291h-318z" />
    <glyph glyph-name="uni0459" unicode="&#x459;" horiz-adv-x="1628" 
d="M41 0v266h16q47 0 73 32t26 83v502h874v-207h203q158 0 251 -89t93 -243t-92 -249t-252 -95h-514v647h-246v-323q0 -140 -81 -232t-214 -92h-137zM1030 236h98q129 0 129 102t-129 102h-98v-204z" />
    <glyph glyph-name="uni045A" unicode="&#x45a;" horiz-adv-x="1565" 
d="M102 0v883h318v-320h235v320h312v-207h202q158 0 251 -89t93 -243t-92 -249t-252 -95h-514v317h-235v-317h-318zM967 236h98q129 0 129 102t-129 102h-98v-204z" />
    <glyph glyph-name="uni045B" unicode="&#x45b;" horiz-adv-x="1104" 
d="M31 1063v270h71v162h318v-162h225v-270h-225v-272q85 116 254 116q167 0 256 -109q78 -95 78 -268v-530h-318v455q0 90 -26.5 138t-97 48t-108.5 -47t-38 -129v-465h-318v1063h-71z" />
    <glyph glyph-name="uni045C" unicode="&#x45c;" horiz-adv-x="1114" 
d="M102 0v883h318v-344l147 159q133 152 332 176q70 9 162 9v-236q-111 0 -165 -25q-85 -38 -163 -116l338 -506h-377l-184 281l-90 -97v-184h-318zM457 1014l157 342h293l-223 -342h-227z" />
    <glyph glyph-name="uni045E" unicode="&#x45e;" horiz-adv-x="987" 
d="M20 883h334l121 -402q18 -59 29 -110q2 16 7 33.5t10 37t11 39.5l105 402h330l-371 -1080q-31 -88 -89 -141t-163 -53h-184v260h67q47 0 84 24.5t37 59.5q0 57 -24 127zM192 1305h153q42 -150 150 -150q90 0 134 101q11 26 16 49h153q-12 -148 -95 -224.5t-208 -76.5
t-208 76.5t-95 224.5z" />
    <glyph glyph-name="uni045F" unicode="&#x45f;" horiz-adv-x="1102" 
d="M102 0v883h318v-639h262v639h317v-883h-284v-367h-318v367h-295z" />
    <glyph glyph-name="uni0490" unicode="&#x490;" horiz-adv-x="1067" 
d="M154 0v1495h483v266h317v-542h-473v-1219h-327z" />
    <glyph glyph-name="uni0491" unicode="&#x491;" horiz-adv-x="725" 
d="M102 0v883h273v202h317v-438h-272v-647h-318z" />
    <glyph glyph-name="endash" unicode="&#x2013;" horiz-adv-x="942" 
d="M82 418v270h778v-270h-778z" />
    <glyph glyph-name="emdash" unicode="&#x2014;" horiz-adv-x="1331" 
d="M82 418v270h1167v-270h-1167z" />
    <glyph glyph-name="quoteleft" unicode="&#x2018;" horiz-adv-x="512" 
d="M102 932v184q0 115 48.5 213t115.5 191l195 -115q-64 -97 -64 -238v-235h-295z" />
    <glyph glyph-name="quoteright" unicode="&#x2019;" horiz-adv-x="512" 
d="M39 1022q63 96 63 238v235h295v-184q0 -115 -48 -213.5t-116 -190.5z" />
    <glyph glyph-name="quotesinglbase" unicode="&#x201a;" horiz-adv-x="512" 
d="M39 -238q63 98 63 238v236h295v-185q0 -114 -48 -212.5t-116 -190.5z" />
    <glyph glyph-name="quotedblleft" unicode="&#x201c;" horiz-adv-x="922" 
d="M102 932v184q0 115 48.5 213t115.5 191l195 -115q-64 -97 -64 -238v-235h-295zM524 932v184q0 115 48.5 213t115.5 191l195 -115q-64 -97 -64 -238v-235h-295z" />
    <glyph glyph-name="quotedblright" unicode="&#x201d;" horiz-adv-x="922" 
d="M39 1022q63 96 63 238v235h295v-184q0 -115 -48 -213.5t-116 -190.5zM461 1022q63 96 63 238v235h295v-184q0 -115 -48 -213.5t-116 -190.5z" />
    <glyph glyph-name="quotedblbase" unicode="&#x201e;" horiz-adv-x="922" 
d="M39 -238q63 98 63 238v236h295v-185q0 -114 -48 -212.5t-116 -190.5zM461 -238q63 98 63 238v236h295v-185q0 -114 -48 -212.5t-116 -190.5z" />
    <glyph glyph-name="dagger" unicode="&#x2020;" horiz-adv-x="1178" 
d="M61 692v271h385v532h285v-532h385v-271h-385v-1059h-285v1059h-385z" />
    <glyph glyph-name="daggerdbl" unicode="&#x2021;" horiz-adv-x="1178" 
d="M61 147v271h385v274h-385v271h385v532h285v-532h385v-271h-385v-274h385v-271h-385v-514h-285v514h-385z" />
    <glyph glyph-name="bullet" unicode="&#x2022;" horiz-adv-x="782" 
d="M51 778q0 141 99 239q101 99 241 99q141 0 242 -99q100 -98 100 -239q0 -71 -26.5 -133.5t-73.5 -110.5q-99 -100 -242 -100q-142 0 -241 100q-99 102 -99 244z" />
    <glyph glyph-name="ellipsis" unicode="&#x2026;" horiz-adv-x="1495" 
d="M102 0v309h308v-309h-308zM594 0v309h307v-309h-307zM1085 0v309h308v-309h-308z" />
    <glyph glyph-name="perthousand" unicode="&#x2030;" horiz-adv-x="2281" 
d="M76 1133q0 165 89 275q90 112 224 112q136 0 224 -114q85 -110 85 -270q0 -81 -23.5 -152t-65.5 -124q-89 -112 -226 -112q-121 0 -208 95q-99 108 -99 290zM133 0l1022 1495h289l-1022 -1495h-289zM287 1133.5q0 -205.5 96 -205.5q102 0 102 205q0 139 -51 188
q-18 18 -47 18q-100 0 -100 -205.5zM893 360q0 166 89 276q90 112 224 112q138 0 224 -114q86 -113 86 -270q0 -81 -24 -152t-66 -124q-90 -113 -226 -113q-120 0 -208 96q-99 108 -99 289zM1104 360q0 -204 96 -204q103 0 103 204q0 137 -51 188q-19 19 -47.5 19t-48 -17.5
t-30.5 -45.5q-22 -54 -22 -144zM1597 360q0 165 90 276q90 112 224 112q136 0 224 -114q85 -110 85 -270q0 -81 -23.5 -152t-65.5 -124q-90 -113 -226 -113q-120 0 -208 96q-100 109 -100 289zM1808 361.5q0 -205.5 97 -205.5q102 0 102 204q0 137 -51 188q-19 19 -47 19
q-101 0 -101 -205.5z" />
    <glyph glyph-name="guilsinglleft" unicode="&#x2039;" horiz-adv-x="496" 
d="M82 311v279l311 227v-268l-133 -98l133 -99v-268z" />
    <glyph glyph-name="guilsinglright" unicode="&#x203a;" horiz-adv-x="496" 
d="M102 84v268l134 99l-134 98v268l312 -227v-279z" />
    <glyph glyph-name="Euro" unicode="&#x20ac;" horiz-adv-x="1337" 
d="M35 608v92h178q-2 50 0 101h-178v92h184q29 285 175 451q155 176 401 176q174 0 298 -81t195 -229l-250 -141q-97 178 -237 178q-180 0 -233 -217q-15 -65 -21 -137h371v-92h-377q-2 -51 0 -101h377v-92h-371q42 -360 248 -360q96 0 156.5 53t107.5 135l237 -143
q-86 -166 -207.5 -242t-273 -76t-253 46.5t-172.5 130.5q-142 169 -171 456h-184z" />
    <glyph glyph-name="uni2116" unicode="&#x2116;" horiz-adv-x="2486" 
d="M154 0v1495h282l660 -862q16 -21 25 -39.5t12 -22.5l-5 76v848h328v-1495h-282l-660 870q-28 42 -37 60l4 -74v-856h-327zM1628 522v166h719v-166h-719zM1628 1165q0 143 97 246q104 109 258 109t262 -106q102 -100 102 -246q0 -74 -27.5 -142t-75.5 -119
q-102 -108 -257 -108q-156 0 -255 99q-104 104 -104 267zM1821 1157q0 -80 44 -129t125 -49t123 52t42 134t-48.5 129t-122 47t-118.5 -52t-45 -132z" />
    <glyph glyph-name="trademark" unicode="&#x2122;" horiz-adv-x="1677" 
d="M66 1339v156h495v-156h-170v-741h-164v741h-161zM657 598v897h146l317 -438l307 438h152v-897h-164v637l-260 -383h-70l-264 371v-625h-164z" />
    <glyph glyph-name="glyph200" 
 />
    <glyph glyph-name="glyph201" 
 />
    <glyph glyph-name="glyph202" 
 />
    <glyph glyph-name="glyph203" 
 />
    <glyph glyph-name="glyph212" 
 />
    <glyph glyph-name="glyph213" 
 />
    <glyph glyph-name="glyph220" 
 />
    <glyph glyph-name="glyph221" 
 />
    <glyph glyph-name="glyph222" 
 />
    <glyph glyph-name="glyph223" 
 />
    <glyph glyph-name="glyph224" 
 />
    <glyph glyph-name="glyph225" 
 />
    <glyph glyph-name="glyph228" 
 />
    <glyph glyph-name="glyph229" 
 />
    <glyph glyph-name="glyph230" 
 />
    <glyph glyph-name="glyph231" 
 />
    <glyph glyph-name="glyph232" 
 />
    <glyph glyph-name="glyph233" 
 />
    <glyph glyph-name="glyph236" 
 />
    <glyph glyph-name="glyph237" 
 />
    <glyph glyph-name="glyph240" 
 />
    <glyph glyph-name="glyph241" 
 />
    <glyph glyph-name="glyph242" 
 />
    <glyph glyph-name="glyph243" 
 />
    <glyph glyph-name="glyph244" 
 />
    <glyph glyph-name="glyph245" 
 />
    <glyph glyph-name="glyph248" 
 />
    <glyph glyph-name="glyph255" 
 />
    <glyph glyph-name="glyph256" 
 />
    <glyph glyph-name="glyph265" 
 />
    <glyph glyph-name="glyph266" 
 />
    <glyph glyph-name="glyph267" 
 />
    <glyph glyph-name="glyph270" 
 />
    <glyph glyph-name="glyph271" 
 />
    <glyph glyph-name="glyph284" 
 />
    <glyph glyph-name="glyph285" 
 />
    <glyph glyph-name="glyph294" 
 />
    <glyph glyph-name="glyph295" 
 />
    <glyph glyph-name="glyph296" 
 />
    <glyph glyph-name="glyph297" 
 />
    <glyph glyph-name="glyph300" 
 />
    <glyph glyph-name="glyph301" 
 />
    <glyph glyph-name="glyph308" 
 />
    <glyph glyph-name="glyph309" 
 />
    <glyph glyph-name="glyph310" 
 />
    <glyph glyph-name="glyph311" 
 />
    <glyph glyph-name="glyph319" 
 />
    <glyph glyph-name="glyph321" 
 />
    <glyph glyph-name="glyph322" 
 />
    <glyph glyph-name="glyph323" 
 />
    <glyph glyph-name="glyph324" 
 />
    <glyph glyph-name="glyph325" 
 />
    <glyph glyph-name="glyph326" 
 />
    <glyph glyph-name="glyph327" 
 />
    <glyph glyph-name="glyph328" 
 />
    <glyph glyph-name="glyph333" 
 />
    <glyph glyph-name="glyph337" 
 />
    <glyph glyph-name="glyph338" 
 />
    <glyph glyph-name="glyph339" 
 />
    <glyph glyph-name="glyph340" 
 />
    <glyph glyph-name="glyph341" 
 />
    <glyph glyph-name="glyph342" 
 />
    <glyph glyph-name="glyph343" 
 />
    <glyph glyph-name="glyph344" 
 />
    <glyph glyph-name="glyph345" 
 />
    <glyph glyph-name="glyph346" 
 />
    <glyph glyph-name="glyph347" 
 />
    <glyph glyph-name="glyph348" 
 />
    <glyph glyph-name="glyph349" 
 />
    <glyph glyph-name="glyph350" 
 />
    <glyph glyph-name="glyph351" 
 />
    <glyph glyph-name="glyph352" 
 />
    <glyph glyph-name="glyph353" 
 />
    <glyph glyph-name="glyph354" 
 />
    <glyph glyph-name="glyph355" 
 />
    <glyph glyph-name="glyph356" 
 />
    <glyph glyph-name="glyph357" 
 />
    <glyph glyph-name="glyph358" 
 />
    <glyph glyph-name="glyph359" 
 />
    <glyph glyph-name="glyph360" 
 />
    <glyph glyph-name="glyph361" 
 />
    <glyph glyph-name="glyph362" 
 />
    <glyph glyph-name="glyph363" 
 />
    <glyph glyph-name="glyph364" 
 />
    <glyph glyph-name="glyph365" 
 />
    <glyph glyph-name="glyph366" 
 />
    <glyph glyph-name="glyph367" 
 />
    <glyph glyph-name="glyph368" 
 />
    <glyph glyph-name="glyph369" 
 />
    <glyph glyph-name="glyph370" 
 />
    <glyph glyph-name="glyph371" 
 />
    <glyph glyph-name="glyph372" 
 />
    <glyph glyph-name="glyph373" 
 />
    <glyph glyph-name="glyph374" 
 />
    <glyph glyph-name="glyph375" 
 />
    <glyph glyph-name="glyph376" 
 />
    <glyph glyph-name="glyph377" 
 />
    <glyph glyph-name="glyph378" 
 />
    <glyph glyph-name="glyph379" 
 />
    <glyph glyph-name="glyph380" 
 />
    <glyph glyph-name="glyph381" 
 />
    <glyph glyph-name="glyph382" 
 />
    <glyph glyph-name="glyph383" 
 />
    <glyph glyph-name="glyph384" 
 />
    <glyph glyph-name="glyph385" 
 />
    <glyph glyph-name="glyph386" 
 />
    <glyph glyph-name="glyph387" 
 />
    <glyph glyph-name="glyph388" 
 />
    <glyph glyph-name="glyph389" 
 />
    <glyph glyph-name="glyph390" 
 />
    <glyph glyph-name="glyph391" 
 />
    <glyph glyph-name="glyph392" 
 />
    <glyph glyph-name="glyph393" 
 />
    <glyph glyph-name="glyph394" 
 />
    <glyph glyph-name="glyph395" 
 />
    <glyph glyph-name="glyph396" 
 />
    <glyph glyph-name="glyph397" 
 />
    <glyph glyph-name="glyph398" 
 />
    <glyph glyph-name="glyph399" 
 />
    <glyph glyph-name="glyph400" 
 />
    <glyph glyph-name="glyph401" 
 />
    <glyph glyph-name="glyph402" 
 />
    <glyph glyph-name="glyph403" 
 />
    <glyph glyph-name="glyph404" 
 />
    <glyph glyph-name="glyph405" 
 />
    <glyph glyph-name="glyph406" 
 />
    <glyph glyph-name="glyph407" 
 />
    <glyph glyph-name="glyph408" 
 />
    <glyph glyph-name="glyph503" 
 />
    <glyph glyph-name="glyph504" 
 />
    <glyph glyph-name="glyph505" 
 />
    <glyph glyph-name="glyph506" 
 />
    <glyph glyph-name="glyph507" 
 />
    <glyph glyph-name="glyph508" 
 />
    <glyph glyph-name="glyph509" 
 />
    <glyph glyph-name="glyph510" 
 />
    <glyph glyph-name="glyph526" 
 />
    <glyph glyph-name="glyph529" 
 />
    <glyph glyph-name="glyph531" 
 />
    <glyph glyph-name="glyph532" 
 />
    <glyph glyph-name="glyph533" 
 />
    <glyph glyph-name="glyph534" 
 />
    <glyph glyph-name="glyph535" 
 />
    <glyph glyph-name="glyph536" 
 />
    <glyph glyph-name="glyph537" 
 />
    <glyph glyph-name="glyph538" 
 />
    <glyph glyph-name="glyph539" 
 />
    <glyph glyph-name="glyph540" 
 />
    <glyph glyph-name="glyph541" 
 />
    <glyph glyph-name="glyph542" 
 />
    <glyph glyph-name="glyph543" 
 />
    <glyph glyph-name="glyph544" 
 />
    <glyph glyph-name="glyph545" 
 />
    <glyph glyph-name="glyph546" 
 />
    <glyph glyph-name="glyph547" 
 />
    <glyph glyph-name="glyph553" 
 />
    </font>
</defs>
</svg>
